<svg width="24" height="25" viewBox="0 0 24 25" fill="none" xmlns="http://www.w3.org/2000/svg">
<mask id="mask0_67_2072" style="mask-type:alpha" maskUnits="userSpaceOnUse" x="0" y="0" width="24" height="25">
<rect y="0.5" width="24" height="24" fill="#D9D9D9"/>
</mask>
<g mask="url(#mask0_67_2072)">
<path d="M12.4 22.5L14.575 20.5C16.3583 18.8333 17.5417 17.5625 18.125 16.6875C18.7083 15.8125 19 14.875 19 13.875C19 13.4417 18.9417 13.0333 18.825 12.65C18.7083 12.2667 18.5333 11.8833 18.3 11.5H20C20.55 11.5 21.0208 11.6958 21.4125 12.0875C21.8042 12.4792 22 12.95 22 13.5V22.5H12.4ZM2 22.5V13.5C2 12.95 2.19167 12.4792 2.575 12.0875C2.95833 11.6958 3.43333 11.5 4 11.5H5.675C5.45833 11.85 5.29167 12.2292 5.175 12.6375C5.05833 13.0458 5 13.4583 5 13.875C5 14.875 5.27917 15.8125 5.8375 16.6875C6.39583 17.5625 7.58333 18.8333 9.4 20.5L11.6 22.5H2ZM19 10.5C18.15 10.5 17.4375 10.2125 16.8625 9.6375C16.2875 9.0625 16 8.35 16 7.5C16 6.66667 16.2875 5.95833 16.8625 5.375C17.4375 4.79167 18.15 4.5 19 4.5C19.8333 4.5 20.5417 4.79167 21.125 5.375C21.7083 5.95833 22 6.66667 22 7.5C22 8.35 21.7083 9.0625 21.125 9.6375C20.5417 10.2125 19.8333 10.5 19 10.5ZM12 9.5C11.0167 9.5 10.1875 9.1625 9.5125 8.4875C8.8375 7.8125 8.5 6.98333 8.5 6C8.5 5.03333 8.8375 4.20833 9.5125 3.525C10.1875 2.84167 11.0167 2.5 12 2.5C12.9667 2.5 13.7917 2.84167 14.475 3.525C15.1583 4.20833 15.5 5.03333 15.5 6C15.5 6.98333 15.1583 7.8125 14.475 8.4875C13.7917 9.1625 12.9667 9.5 12 9.5ZM7 13.875C7 14.5583 7.33333 15.325 8 16.175C8.66667 17.025 9.99167 18.35 11.975 20.15C13.9417 18.3833 15.2708 17.0708 15.9625 16.2125C16.6542 15.3542 17 14.575 17 13.875C17 13.2083 16.775 12.6458 16.325 12.1875C15.875 11.7292 15.3333 11.5 14.7 11.5C14.3167 11.5 13.9583 11.5917 13.625 11.775C13.2917 11.9583 13 12.1833 12.75 12.45L11.975 13.25L11.225 12.475C10.9917 12.225 10.725 12 10.425 11.8C10.125 11.6 9.75 11.5 9.3 11.5C8.61667 11.5 8.0625 11.7292 7.6375 12.1875C7.2125 12.6458 7 13.2083 7 13.875ZM5 10.5C4.15 10.5 3.4375 10.2125 2.8625 9.6375C2.2875 9.0625 2 8.35 2 7.5C2 6.66667 2.2875 5.95833 2.8625 5.375C3.4375 4.79167 4.15 4.5 5 4.5C5.83333 4.5 6.54167 4.79167 7.125 5.375C7.70833 5.95833 8 6.66667 8 7.5C8 8.35 7.70833 9.0625 7.125 9.6375C6.54167 10.2125 5.83333 10.5 5 10.5Z" fill="black"/>
</g>
</svg>
