<svg width="24" height="25" viewBox="0 0 24 25" fill="none" xmlns="http://www.w3.org/2000/svg">
<mask id="mask0_5_2734" style="mask-type:alpha" maskUnits="userSpaceOnUse" x="0" y="0" width="24" height="25">
<rect y="0.5" width="24" height="24" fill="#D9D9D9"/>
</mask>
<g mask="url(#mask0_5_2734)">
<path d="M4 20.5C3.45 20.5 2.97917 20.3042 2.5875 19.9125C2.19583 19.5208 2 19.05 2 18.5V6.5C2 5.95 2.19583 5.47917 2.5875 5.0875C2.97917 4.69583 3.45 4.5 4 4.5H10L12 6.5H20C20.55 6.5 21.0208 6.69583 21.4125 7.0875C21.8042 7.47917 22 7.95 22 8.5H11.175L9.175 6.5H4V18.5L6.4 10.5H23.5L20.925 19.075C20.7917 19.5083 20.5458 19.8542 20.1875 20.1125C19.8292 20.3708 19.4333 20.5 19 20.5H4ZM6.1 18.5H19L20.8 12.5H7.9L6.1 18.5Z" fill="#1C1B1F"/>
</g>
</svg>
