<svg width="24" height="25" viewBox="0 0 24 25" fill="none" xmlns="http://www.w3.org/2000/svg">
<mask id="mask0_92_4907" style="mask-type:alpha" maskUnits="userSpaceOnUse" x="0" y="0" width="24" height="25">
<rect y="0.5" width="24" height="24" fill="#D9D9D9"/>
</mask>
<g mask="url(#mask0_92_4907)">
<path d="M9 8.5H15V6.5C15 5.66667 14.7083 4.95833 14.125 4.375C13.5417 3.79167 12.8333 3.5 12 3.5C11.1667 3.5 10.4583 3.79167 9.875 4.375C9.29167 4.95833 9 5.66667 9 6.5V8.5ZM18 23.5C16.6167 23.5 15.4375 23.0125 14.4625 22.0375C13.4875 21.0625 13 19.8833 13 18.5C13 17.1167 13.4875 15.9375 14.4625 14.9625C15.4375 13.9875 16.6167 13.5 18 13.5C19.3833 13.5 20.5625 13.9875 21.5375 14.9625C22.5125 15.9375 23 17.1167 23 18.5C23 19.8833 22.5125 21.0625 21.5375 22.0375C20.5625 23.0125 19.3833 23.5 18 23.5ZM19.65 20.85L20.35 20.15L18.5 18.3V15.5H17.5V18.7L19.65 20.85ZM12.25 22.5H6C5.45 22.5 4.97917 22.3042 4.5875 21.9125C4.19583 21.5208 4 21.05 4 20.5V10.5C4 9.95 4.19583 9.47917 4.5875 9.0875C4.97917 8.69583 5.45 8.5 6 8.5H7V6.5C7 5.11667 7.4875 3.9375 8.4625 2.9625C9.4375 1.9875 10.6167 1.5 12 1.5C13.3833 1.5 14.5625 1.9875 15.5375 2.9625C16.5125 3.9375 17 5.11667 17 6.5V8.5H18C18.55 8.5 19.0208 8.69583 19.4125 9.0875C19.8042 9.47917 20 9.95 20 10.5V11.8C19.6667 11.6833 19.3333 11.6042 19 11.5625C18.6667 11.5208 18.3333 11.5 18 11.5C16.05 11.5 14.3958 12.1792 13.0375 13.5375C11.6792 14.8958 11 16.55 11 18.5C11 19.2167 11.1125 19.9125 11.3375 20.5875C11.5625 21.2625 11.8667 21.9 12.25 22.5Z" fill="#1C1B1F"/>
</g>
</svg>
