<svg class="component-logo-snq-cn-icon" width="85" height="100" viewBox="0 0 85 100" fill="none" xmlns="http://www.w3.org/2000/svg">
<g clip-path="url(#clip0_762_7137)">
<path d="M0 42.2827C0 65.5944 18.999 84.5654 42.3451 84.5654C65.6912 84.5654 84.6902 65.5944 84.6902 42.2827C84.6902 18.971 65.6912 0 42.3451 0C18.999 0 0 18.971 0 42.2827ZM1.11516 42.2827C1.11516 19.5896 19.6186 1.12383 42.3451 1.12383C65.0717 1.12383 83.5648 19.5896 83.5648 42.293C83.5648 64.9964 65.0717 83.4519 42.3451 83.4519C19.6186 83.4519 1.11516 64.9861 1.11516 42.2827Z" fill="#009C43"/>
<path d="M59.6816 29.6114C59.0931 28.8072 57.9263 27.1163 55.7786 25.1883C54.364 23.9098 52.4744 22.621 50.6571 21.6518C46.5475 19.4351 41.9836 19.2701 39.6913 19.4557C36.9551 19.6722 34.4769 20.4249 31.9988 21.7859C30.0886 22.8375 27.8066 24.4666 26.6605 25.9719C24.0997 29.3433 22.8504 31.6838 23.2531 34.6635C23.4183 35.9007 24.7709 37.0658 26.3507 37.8494C27.2594 38.303 28.23 38.6845 29.0044 38.9526C30.6978 39.5609 31.4102 39.6228 32.577 39.8908C33.7335 40.1589 35.5301 40.3754 35.5508 40.994C35.5818 41.6126 33.1656 42.3034 31.3483 42.8293C29.3038 43.417 27.5278 44.0356 27.5278 44.0356C27.5278 44.0356 23.3976 44.8913 22.7161 47.4277C21.6526 51.3662 25.7518 54.9852 25.7518 54.9852L17.7702 60.759C13.6606 55.4594 11.2031 48.799 11.2031 41.5714C11.2031 24.2603 25.2459 10.2383 42.5825 10.2383C53.1352 10.2383 62.4592 15.4347 68.1589 23.4046L59.6816 29.6217V29.6114Z" fill="#FFE100"/>
<path d="M26.3818 55.7275C28.5398 58.1607 31.4619 57.7998 32.3809 57.3977C33.8471 56.7585 35.1275 54.4902 36.9345 52.7478C41.9217 47.9225 46.1552 46.4069 46.1552 46.4069C50.3887 44.6335 53.7342 44.6541 54.6635 44.5717C58.0709 44.1696 59.754 43.8602 60.7039 43.3447C61.8191 42.7364 62.1185 42.3859 62.5212 41.6332C62.8 41.1177 62.862 40.4063 62.9033 39.8289C62.9652 38.9525 62.862 38.3133 62.7897 37.3029C62.6141 34.7356 60.2702 30.6424 60.2702 30.6424L68.7578 24.3428C72.0001 29.2505 73.9103 35.1274 73.9413 41.4476C74.0239 58.7484 60.0328 72.8426 42.7065 72.9251C32.9591 72.9767 24.234 68.5844 18.4414 61.6456L26.3921 55.7378L26.3818 55.7275Z" fill="#009944"/>
<path d="M12.5453 58.8514L15.5913 62.9652L11.3269 66.1202L11.0068 65.6974L11.1513 65.5737L8.74548 62.3156L8.58027 62.4188L8.27051 61.996L12.535 58.8411L12.5453 58.8514ZM12.473 59.5525L9.13785 62.0167L11.5644 65.285L14.8995 62.8209L14.4039 62.1507L14.311 62.759L14.0115 62.6971L14.2697 63.058L13.9289 63.3158L13.1751 62.295C12.8138 62.5837 12.4833 62.9033 12.1839 63.2642L12.1116 63.3982C12.4111 63.3776 12.7518 63.2951 13.1235 63.1405L13.1442 63.1714L13.2887 63.6354C13.2887 63.6354 13.2165 63.6869 13.0512 63.6766C12.6485 63.8106 12.2458 63.8725 11.8122 63.8622C11.7502 63.9859 11.7192 64.1096 11.7192 64.2334C11.7192 64.3674 11.9051 64.3674 12.2562 64.254V64.2746L12.2149 64.7695C11.998 64.8108 11.7709 64.8314 11.5334 64.8417C11.4301 64.8417 11.3372 64.8211 11.2546 64.7489L11.2236 64.718C11.11 64.5221 11.141 64.2231 11.3165 63.8003L10.4285 63.4807L10.4492 63.0271C10.7383 63.1817 11.0687 63.2848 11.4198 63.3673L11.5334 63.3879C11.8018 62.924 12.2562 62.4291 12.8964 61.9239L11.7399 60.3773L12.0806 60.1299L13.2268 61.6867L13.7121 61.3259L13.7327 61.3465L13.9289 61.8104C13.9289 61.862 13.8463 61.8929 13.7224 61.8826L13.5159 62.0373L13.9289 62.594C13.9289 62.594 13.9909 62.3775 14.0218 62.0579L14.3832 62.1198L12.4937 59.5628L12.473 59.5525ZM11.2856 62.8002L11.3165 62.8415L10.9861 63.0889L9.81934 62.1404C9.62316 62.1198 9.61283 62.0476 9.79869 61.8929L10.0155 61.6455L10.9655 62.5528L11.2856 62.8002ZM11.5644 60.6969L12.4627 61.9032L11.4508 62.6559L10.5525 61.4393L11.5644 60.6969ZM11.5127 61.2743L11.11 61.5733L11.4921 62.0888L11.8948 61.7898L11.5127 61.2743Z" fill="#231815"/>
<path d="M21.849 70.2032L24.7608 72.0694L24.4923 72.4818L23.2636 71.6879L23.0777 71.7291C23.1293 71.9559 23.15 72.224 23.1396 72.5333L23.1087 72.7498C23.2223 72.7705 23.6146 72.7705 24.2858 72.7189L24.4613 72.6983L24.5749 73.3169V73.3582C24.451 73.2963 24.3168 73.2757 24.1516 73.2963L23.0777 73.2344C23.1293 74.0696 23.3875 74.8325 23.8418 75.5336L23.1603 75.6264C22.8815 75.1625 22.6957 74.5748 22.6234 73.8634C22.4685 74.1005 22.2517 74.3376 21.9832 74.5645C21.7664 74.7913 21.3843 74.7191 20.8267 74.3583C20.9197 74.1933 20.9919 73.9871 21.0436 73.7603L21.4256 74.0283C21.6115 74.1933 21.8696 74.0077 22.2103 73.4716C21.5598 73.6056 20.6615 73.5541 19.5154 73.3169L19.3398 72.7086C19.9594 72.9045 20.6925 73.0282 21.5185 73.0901C21.6631 73.0901 21.9729 73.0798 22.4582 73.0179L22.5821 72.6055V72.5849C21.8799 72.6983 21.0436 72.6364 20.073 72.4096L19.9181 71.8322C20.424 71.9972 21.0539 72.1312 21.8386 72.2137L22.6027 72.1828L22.5408 71.76C21.9935 71.76 21.374 71.6879 20.6718 71.5229L20.5066 70.9352C21.0436 71.1105 21.6631 71.2445 22.3446 71.327H22.6853L21.5805 70.6156L21.849 70.2032ZM23.8211 69.7805L24.3477 70.1826C24.3994 70.2238 24.3477 70.265 24.1619 70.3166L24.0173 70.5434L26.0102 71.8219L25.2667 72.9664L24.8124 72.6674L25.2874 71.925L21.787 69.6877L21.312 70.43L20.8474 70.131L21.5805 68.9866L23.5217 70.2238L23.8315 69.7702L23.8211 69.7805Z" fill="#231815"/>
<path d="M33.7857 77.3584L35.985 77.7811L35.4997 80.3381L34.9834 80.235L35.0454 79.8329L33.8992 79.6164L33.8063 80.0082L33.29 79.9154L33.7753 77.3584H33.7857ZM34.209 77.9255L33.9715 79.1421L35.1486 79.3689L35.3861 78.1523L34.209 77.9255ZM35.1899 74.9149L38.3392 75.5128L37.9056 77.8017L37.3686 77.6986L37.4099 77.3893L35.3655 76.9975L35.2932 77.2965L34.7563 77.1934L35.1899 74.9045V74.9149ZM35.6339 75.5128L35.4481 76.513L37.5235 76.9047L37.7197 75.915L35.6443 75.5232L35.6339 75.5128ZM36.5426 77.8842L38.7419 78.3069L38.2566 80.8639L37.7404 80.7608L37.8023 80.369L36.6562 80.1525L36.5736 80.5443L36.0573 80.4412L36.5529 77.8842H36.5426ZM36.9659 78.4513L36.7284 79.6679L37.9056 79.8947L38.143 78.6781L36.9659 78.4616V78.4513Z" fill="#231815"/>
<path d="M49.9133 74.9973H49.9649L50.378 75.286C50.4296 75.3788 50.3573 75.42 50.1508 75.3994L48.6536 75.8428L48.6846 76.1005L50.4812 75.719L50.5741 76.1418L49.8513 76.2964L50.0062 77.0388L49.49 77.1522L49.3351 76.3995L48.7155 76.5336C48.7155 76.781 48.6226 77.0903 48.4161 77.4718L47.9824 77.245C48.2715 76.8944 48.3025 76.3377 48.0857 75.5953L49.4383 75.1932L49.9133 74.9973ZM49.0253 77.4512L52.7219 76.6779L53.2588 79.2142L52.3708 79.3998C52.7012 79.4926 53.2072 79.5236 53.899 79.5029L53.5995 79.9978C53.2278 79.9772 52.7941 79.9257 52.3088 79.8226L51.9784 79.7298L52.1333 79.4514L50.6774 79.771L51.0285 79.9669C51.0285 79.9669 51.0285 80.07 50.9046 80.1216L49.6552 80.7608L49.4383 80.8536L48.9427 80.5443C49.3351 80.4206 49.8204 80.1731 50.3986 79.8329L49.5622 79.9978L49.0253 77.4615V77.4512ZM49.6448 77.7296L49.7171 78.0492L52.3398 77.4924L52.2779 77.1728L49.6552 77.7296H49.6448ZM52.4534 74.4612H52.5153L52.9387 74.7499C52.9903 74.8427 52.918 74.8736 52.7115 74.8633L51.2246 75.2963L51.2659 75.5644L53.1245 75.1726L53.2175 75.5953L52.4947 75.75L52.6496 76.5026L52.1333 76.6057L51.9784 75.8634L51.2969 76.0077C51.2866 76.2346 51.2143 76.482 51.1111 76.7398L51.0181 76.9254L50.5741 76.6985C50.8529 76.3583 50.8736 75.8118 50.6567 75.0592L52.0817 74.6365L52.4637 74.4818L52.4534 74.4612ZM49.7894 78.3997L49.8617 78.7503L52.4844 78.1935L52.4121 77.843L49.7894 78.3997ZM49.934 79.1008L50.0166 79.472L52.6392 78.9152L52.5566 78.5441L49.934 79.1008Z" fill="#231815"/>
<path d="M60.8486 70.6259L61.3546 70.3269C61.4062 70.296 61.4372 70.3578 61.4372 70.5331L62.0051 71.2858L62.4284 70.9662L62.7279 71.3683L62.3045 71.6879L62.3975 71.8116C62.7072 71.9869 63.1099 72.1106 63.5952 72.1828L63.5333 72.6983L62.8828 72.4611L64.6278 74.7913L64.2148 75.1006L62.6659 73.0385L62.9344 74.1211L62.3355 74.1624C62.3458 73.6365 62.2013 72.9251 61.9018 72.0281L61.8812 72.0075L61.2926 72.4508L60.9932 72.0487L61.5714 71.6157L60.8486 70.6259ZM61.9328 70.1104L64.7517 68.0071L65.0305 68.3679L64.1631 69.0278L64.3903 69.3268L65.1337 68.77L65.9701 69.8836L63.43 71.7807L62.5937 70.6672L63.3268 70.1207L63.0996 69.8217L62.2219 70.4816L61.9535 70.1207L61.9328 70.1104ZM63.4403 69.5536L63.6675 69.8526L64.0083 69.5949L63.7811 69.2959L63.4403 69.5536ZM63.2338 70.7084L63.5643 71.1414L63.8947 70.894L63.5746 70.4609L63.2442 70.7084H63.2338ZM63.9256 70.1929L64.2457 70.6259L64.5865 70.3681L64.2664 69.9454L63.9256 70.1929ZM63.7914 71.8838L65.9391 70.265L66.1973 70.6156L64.0392 72.224L63.7811 71.8735L63.7914 71.8838ZM64.6278 69.667L64.9479 70.1001L65.2886 69.8423L64.9685 69.4093L64.6278 69.6567V69.667ZM63.8121 72.7911L66.7445 70.5847L67.0336 70.9662L65.7946 71.8941L66.3522 72.6364C66.6516 73.0179 66.5483 73.3788 66.0321 73.719L65.9598 73.7912L65.4745 73.5025L65.8772 73.1829C66.0217 73.0901 65.8565 72.7601 65.3712 72.2137L64.1012 73.1726L63.8121 72.7911ZM64.7517 72.9148H65.268C65.3196 72.9148 65.3196 72.9767 65.2473 73.1313C65.2473 73.3066 65.1854 73.6159 65.0511 74.0593L64.9995 74.1727L64.4523 74.1108C64.6381 73.7602 64.7414 73.4097 64.762 73.0282V72.9148H64.7517ZM66.4348 71.6982C66.7858 71.7807 67.1988 71.791 67.6945 71.6982L67.6325 72.2549C67.4983 72.2962 67.0956 72.2343 66.4038 72.09L66.3831 72.059L66.4244 71.6982H66.4348Z" fill="#231815"/>
<path d="M71.5873 59.6247L71.9797 59.1504C71.9797 59.1504 72.0623 59.1504 72.1243 59.3154L72.2585 59.4082L73.4046 57.676L73.7557 57.9132L73.2291 58.7174L73.6008 59.2947L74.4682 57.9853L74.8502 58.2431L71.8661 62.7487L71.4841 62.5013L72.3824 61.1403L71.7629 60.9444L71.1743 61.8414L70.8232 61.6043L71.9591 59.8824L71.5977 59.635L71.5873 59.6247ZM72.0623 60.4598L72.6818 60.6557L73.2807 59.7587L72.9193 59.171L72.0726 60.4495L72.0623 60.4598ZM72.527 62.1816L74.6334 58.9854L76.1409 59.9752L75.2323 61.3465L75.5317 61.5424L76.8327 59.5731L77.2044 59.8206L75.9034 61.7899L76.523 62.2023L76.2235 62.6559L75.604 62.2538L74.2513 64.3056L73.8796 64.0581L75.2323 62.0167L74.9328 61.8208L74.0242 63.1921L72.5166 62.2023L72.527 62.1816ZM73.1775 61.9548L73.4253 62.1095L74.9328 59.8309L74.685 59.6762L73.1775 61.9548ZM73.7351 62.326L73.9829 62.491L75.4904 60.2124L75.2426 60.0577L73.7351 62.3363V62.326Z" fill="#231815"/>
<path d="M6.88733 48.6132L6.70147 47.7162C6.98026 47.6338 7.17645 47.4997 7.2797 47.3244C7.39328 47.1389 7.43459 46.912 7.40361 46.6233C7.37263 46.3243 7.29003 46.1078 7.1558 45.9635C7.02156 45.8294 6.87701 45.7676 6.72212 45.7779C6.62919 45.7779 6.54659 45.8294 6.47431 45.9016C6.41236 45.9738 6.36073 46.0872 6.32975 46.2522C6.3091 46.3656 6.2678 46.6233 6.2265 47.0151C6.16454 47.5307 6.06129 47.8915 5.92705 48.108C5.73087 48.4173 5.4624 48.5823 5.13199 48.6235C4.91515 48.6442 4.70864 48.6029 4.51245 48.4895C4.30594 48.3761 4.15106 48.2008 4.01683 47.9637C3.89292 47.7265 3.81032 47.4275 3.76901 47.077C3.70706 46.4996 3.76901 46.046 3.97552 45.7367C4.17171 45.417 4.47115 45.2314 4.8532 45.1799L4.98743 46.1078C4.78092 46.1697 4.62603 46.2728 4.55376 46.4068C4.47115 46.5512 4.4505 46.7471 4.47115 47.0151C4.50213 47.2832 4.57441 47.4894 4.68799 47.6338C4.76027 47.7265 4.8532 47.7575 4.96678 47.7575C5.05971 47.7472 5.14231 47.6956 5.20427 47.5925C5.27654 47.4688 5.3385 47.1698 5.39013 46.7161C5.44175 46.2522 5.50371 45.9119 5.58631 45.6851C5.66892 45.4583 5.79282 45.2727 5.95803 45.1283C6.12324 44.984 6.34008 44.9015 6.60854 44.8706C6.85636 44.8397 7.08352 44.8912 7.32101 45.0149C7.54817 45.1387 7.73403 45.3242 7.85793 45.582C7.99217 45.8398 8.07477 46.1697 8.11607 46.5718C8.17803 47.1492 8.10575 47.6131 7.88891 47.9534C7.67207 48.2936 7.34166 48.5204 6.86668 48.6339" fill="#231815"/>
<path d="M4.73982 43.0972L4.77079 42.159L6.98046 41.4373L4.83275 40.5712L4.87405 39.6536L7.76521 40.9424L8.30214 41.1898C8.47767 41.2723 8.6119 41.3548 8.70483 41.4269C8.79776 41.4991 8.87004 41.5816 8.92167 41.6744C8.9733 41.7672 9.0146 41.8806 9.04558 42.0146C9.06623 42.1487 9.08688 42.3033 9.07655 42.4683C9.07655 42.6333 9.04558 42.8085 9.0146 42.9632L8.37441 43.0147C8.40539 42.8807 8.42604 42.757 8.42604 42.6436C8.42604 42.4374 8.38474 42.2827 8.27116 42.1796C8.15758 42.0765 8.02335 41.994 7.84781 41.9425L4.72949 43.0869L4.73982 43.0972Z" fill="#231815"/>
<path d="M5.07031 37.4988L5.23552 36.7049L5.64854 36.7874C5.38008 36.4368 5.28715 36.0553 5.38008 35.6635C5.42138 35.4573 5.50399 35.2821 5.61757 35.1377C5.73115 35.0037 5.87571 34.9006 6.05124 34.8387C5.91701 34.6634 5.8344 34.4778 5.7931 34.2923C5.7518 34.1067 5.74147 33.9211 5.7931 33.7355C5.84473 33.4881 5.92733 33.3025 6.06157 33.1581C6.18547 33.0138 6.34036 32.9107 6.53654 32.8694C6.6811 32.8385 6.88761 32.8488 7.17673 32.9107L9.10761 33.3128L8.92175 34.1788L7.19738 33.818C6.89794 33.7561 6.69143 33.7458 6.5985 33.7871C6.47459 33.8386 6.39198 33.952 6.35068 34.117C6.31971 34.2407 6.33003 34.3644 6.38166 34.4778C6.42296 34.6016 6.51589 34.6944 6.62947 34.7768C6.75338 34.849 6.94956 34.9212 7.23868 34.9727L8.68426 35.2717L8.50872 36.1378L6.85663 35.7873C6.56752 35.7254 6.37133 35.7048 6.2784 35.7151C6.18547 35.7254 6.11319 35.7666 6.06157 35.8182C6.00994 35.8697 5.96864 35.9625 5.94799 36.0656C5.91701 36.1997 5.92733 36.3234 5.96864 36.4471C6.00994 36.5708 6.09254 36.6636 6.20612 36.7358C6.31971 36.808 6.52622 36.8698 6.81533 36.9317L8.28156 37.2307L8.10603 38.0968L5.11161 37.4678L5.07031 37.4988Z" fill="#231815"/>
<path d="M9.72701 31.4259L5.79297 29.869L6.12339 29.0442L7.52766 29.6009C7.36245 29.2401 7.35213 28.8792 7.49669 28.5287C7.65157 28.1472 7.89938 27.8791 8.26078 27.7348C8.61185 27.5801 9.02487 27.611 9.49984 27.7966C9.99547 27.9925 10.3156 28.2709 10.4808 28.6318C10.646 28.9926 10.646 29.3535 10.5014 29.7144C10.4291 29.8896 10.3156 30.0546 10.1607 30.1886C10.0058 30.333 9.81994 30.4258 9.61343 30.4876L10.0264 30.6526L9.72701 31.4259ZM8.57054 30.0237C8.86999 30.1474 9.1178 30.1783 9.30366 30.1371C9.5618 30.0752 9.74766 29.9206 9.84059 29.6834C9.91287 29.4978 9.90254 29.3122 9.80961 29.1267C9.71668 28.9411 9.51017 28.7864 9.2004 28.6627C8.85966 28.5287 8.60152 28.4977 8.39501 28.5699C8.19882 28.6421 8.05427 28.7761 7.98199 28.9823C7.89938 29.1885 7.90971 29.3741 8.00264 29.57C8.09557 29.7659 8.28143 29.9102 8.57054 30.034" fill="#231815"/>
<path d="M10.3052 26.1161C10.0677 25.9821 9.88189 25.7862 9.73733 25.5387C9.59277 25.281 9.53082 25.0129 9.54114 24.7139C9.56179 24.4149 9.65472 24.1262 9.80961 23.8375C10.0677 23.4045 10.4085 23.1158 10.8318 22.9818C11.2552 22.8477 11.6682 22.8993 12.0709 23.1364C12.4736 23.3736 12.7317 23.7035 12.8247 24.1468C12.9279 24.5799 12.8556 25.0129 12.5975 25.446C12.4426 25.714 12.2464 25.9305 11.9883 26.1161C11.7405 26.2914 11.472 26.3842 11.1829 26.3842C10.8938 26.3842 10.5943 26.3017 10.2949 26.1161M10.7905 25.3532C11.059 25.5078 11.2965 25.5594 11.5236 25.5078C11.7508 25.4563 11.916 25.3222 12.0296 25.1263C12.1432 24.9304 12.1742 24.7139 12.1122 24.4974C12.0503 24.2809 11.8747 24.085 11.6063 23.9303C11.3378 23.7757 11.1003 23.7344 10.8731 23.786C10.6563 23.8375 10.4808 23.9716 10.3672 24.1675C10.2536 24.3737 10.2226 24.5799 10.2846 24.7964C10.3465 25.0129 10.5117 25.2088 10.7802 25.3532" fill="#231815"/>
<path d="M14.4967 22.3837L11.0996 19.8577L11.6365 19.1462L15.0233 21.6723L14.4967 22.3837Z" fill="#231815"/>
<path d="M19.5465 14.6922C19.3813 14.4757 19.2884 14.2179 19.2471 13.9293C19.2161 13.6406 19.2574 13.3622 19.3916 13.0941C19.5259 12.826 19.722 12.5889 19.9905 12.393C20.4035 12.094 20.8269 11.96 21.2606 12.0115C21.7046 12.0631 22.0659 12.2693 22.3447 12.6405C22.6235 13.0116 22.7268 13.424 22.6442 13.8674C22.5616 14.3107 22.3241 14.6716 21.9214 14.9706C21.6736 15.1562 21.4051 15.2799 21.1057 15.3418C20.8062 15.4036 20.5171 15.383 20.259 15.2696C20.0008 15.1562 19.753 14.9603 19.5465 14.6819M20.3003 14.1664C20.4861 14.4138 20.6926 14.5582 20.9198 14.5891C21.147 14.6304 21.3535 14.5788 21.5393 14.4345C21.7252 14.3004 21.8388 14.1148 21.8594 13.888C21.8904 13.6612 21.8078 13.424 21.6219 13.1766C21.4361 12.9291 21.2399 12.7848 21.0127 12.7539C20.7856 12.7126 20.5791 12.7642 20.3932 12.9085C20.2073 13.0529 20.1041 13.2281 20.0731 13.455C20.0421 13.6818 20.1247 13.9189 20.3106 14.1664" fill="#231815"/>
<path d="M23.0264 10.4444L23.4497 10.2073L23.3361 10.0011C23.2019 9.77426 23.1399 9.58867 23.1296 9.45464C23.1296 9.31029 23.1606 9.16595 23.2639 9.0216C23.3671 8.86695 23.522 8.73291 23.7388 8.60919C23.966 8.48547 24.1932 8.39267 24.441 8.33081L24.6268 8.87726C24.4823 8.9185 24.3584 8.98036 24.2345 9.04222C24.1209 9.10409 24.0589 9.17626 24.0279 9.25874C24.0073 9.34122 24.0279 9.44433 24.1106 9.58867L24.2138 9.78457L24.792 9.45464L25.1121 10.0114L24.5339 10.3413L25.7317 12.4343L24.9676 12.8674L23.7698 10.7744L23.3465 11.0218L23.0264 10.4651V10.4444Z" fill="#231815"/>
<path d="M33.4647 9.22779L32.5664 5.10365L33.4544 4.90776L35.9325 7.27914L35.3337 4.50565L36.1804 4.32007L37.0684 8.4442L36.1597 8.6401L33.7125 6.33059L34.3114 9.04221L33.4647 9.22779Z" fill="#231815"/>
<path d="M39.7122 6.02115L38.8965 5.93867C38.9688 5.63967 39.1133 5.40253 39.3198 5.24787C39.5367 5.09322 39.8568 5.00042 40.2904 4.96949C40.6931 4.94887 40.9822 4.96949 41.1888 5.04166C41.3849 5.11384 41.5295 5.21694 41.6224 5.34066C41.705 5.46439 41.767 5.71184 41.7876 6.06239L41.8393 7.01094C41.8599 7.27901 41.8806 7.48522 41.9219 7.60894C41.9632 7.73266 42.0251 7.8667 42.1077 8.01104L41.2197 8.07291C41.2197 8.07291 41.1578 7.94918 41.1165 7.84608C41.1062 7.79453 41.0855 7.7636 41.0855 7.75329C40.9409 7.89763 40.7861 8.01104 40.6209 8.09353C40.4556 8.1657 40.2698 8.21725 40.0736 8.22756C39.7329 8.24818 39.4541 8.18632 39.2476 8.02135C39.041 7.8667 38.9275 7.65018 38.9068 7.39242C38.8965 7.21715 38.9275 7.06249 39.0101 6.91815C39.0927 6.7738 39.2166 6.66039 39.3715 6.57791C39.5263 6.49542 39.7638 6.41294 40.0633 6.34077C40.4763 6.23766 40.7551 6.15518 40.91 6.08301V6.00053C40.8996 5.84587 40.848 5.73246 40.7551 5.68091C40.6725 5.61904 40.5073 5.59842 40.2698 5.60873C40.1149 5.61904 39.991 5.66029 39.9084 5.71184C39.8155 5.7737 39.7535 5.8768 39.7122 6.03146M40.9513 6.60884C40.8377 6.65008 40.6622 6.70163 40.4143 6.7738C40.1665 6.83566 40.0116 6.89753 39.9394 6.94908C39.8258 7.03156 39.7742 7.13466 39.7845 7.24808C39.7948 7.36149 39.8464 7.4646 39.9394 7.53677C40.0426 7.61925 40.1562 7.65018 40.3008 7.65018C40.466 7.63987 40.6105 7.57801 40.7551 7.47491C40.8583 7.39242 40.9203 7.28932 40.9513 7.18622C40.9719 7.11404 40.9719 6.98001 40.9513 6.78411V6.61915V6.60884Z" fill="#231815"/>
<path d="M45.6696 5.083L45.6386 5.72224L45.0294 5.69131L44.9571 6.93886C44.9468 7.18631 44.9468 7.34096 44.9571 7.38221C44.9674 7.42345 44.9881 7.46469 45.0294 7.48531C45.0707 7.51624 45.1223 7.53686 45.1843 7.53686C45.2669 7.53686 45.3805 7.52655 45.5457 7.475L45.5766 8.10393C45.3701 8.16579 45.1326 8.19672 44.8745 8.18641C44.7196 8.18641 44.5751 8.14517 44.4512 8.09362C44.3273 8.03176 44.2343 7.96989 44.1827 7.88741C44.1311 7.80493 44.0898 7.70183 44.0794 7.56779C44.0588 7.46469 44.0691 7.2791 44.0794 6.99041L44.1517 5.65007L43.749 5.62945L43.78 4.99021L44.193 5.01083L44.224 4.40252L45.1326 3.96948L45.081 5.05207L45.6902 5.083H45.6696Z" fill="#231815"/>
<path d="M47.3018 8.34103L47.7458 5.3201L48.6234 5.45413L48.1794 8.47506L47.3018 8.34103ZM47.8077 4.89737L47.9213 4.15503L48.799 4.27875L48.6957 5.0211L47.818 4.88706L47.8077 4.89737Z" fill="#231815"/>
<path d="M50.4712 7.26891C50.5435 7.01115 50.6777 6.77401 50.8842 6.5678C51.0907 6.3616 51.3385 6.22756 51.638 6.1657C51.9374 6.10384 52.2369 6.11415 52.557 6.20694C53.0526 6.34098 53.414 6.59874 53.6411 6.96991C53.8786 7.35139 53.9303 7.75349 53.8063 8.20715C53.6824 8.6608 53.4243 8.99073 53.0319 9.19694C52.6292 9.40315 52.1956 9.44439 51.7206 9.32067C51.4211 9.23818 51.1527 9.10415 50.9152 8.90825C50.6777 8.71236 50.5228 8.47522 50.4505 8.19684C50.3679 7.91846 50.3783 7.60915 50.4712 7.26891ZM51.3385 7.54729C51.2559 7.84629 51.2766 8.09373 51.3798 8.28963C51.4934 8.48553 51.6586 8.61956 51.8858 8.68142C52.113 8.74329 52.3195 8.71236 52.5157 8.58863C52.7118 8.47522 52.8564 8.2587 52.9287 7.9597C53.0113 7.6607 52.9906 7.41325 52.8874 7.21736C52.7841 7.02146 52.6086 6.88742 52.3917 6.82556C52.1646 6.7637 51.9581 6.79463 51.7619 6.90805C51.5657 7.02146 51.4211 7.22767 51.3489 7.52667" fill="#231815"/>
<path d="M57.9571 11.5373L57.1414 11.1867L57.7713 9.74326C57.9055 9.44426 57.9778 9.23805 57.9778 9.13495C57.9778 9.03185 57.9571 8.93905 57.8952 8.84626C57.8332 8.76378 57.7609 8.69161 57.6474 8.65036C57.5028 8.5885 57.3583 8.56788 57.2137 8.5885C57.0691 8.60912 56.9452 8.67098 56.8523 8.76378C56.7594 8.86688 56.6458 9.07309 56.5012 9.3824L55.9436 10.6609L55.1279 10.3L56.3567 7.49561L57.1208 7.82554L56.9452 8.23795C57.3583 8.03174 57.7713 8.02143 58.174 8.19671C58.3598 8.27919 58.5044 8.38229 58.6283 8.49571C58.7522 8.61943 58.8348 8.74316 58.8658 8.87719C58.9071 9.00092 58.9071 9.12464 58.8864 9.25867C58.8658 9.3824 58.8038 9.55767 58.7109 9.77419L57.9468 11.5166L57.9571 11.5373Z" fill="#231815"/>
<path d="M61.4575 11.0217L60.838 10.4856C61.0754 10.2794 61.3233 10.1763 61.5814 10.1763C61.8395 10.1763 62.1596 10.2794 62.5314 10.5165C62.8721 10.7227 63.0993 10.9083 63.2232 11.0939C63.3471 11.2692 63.3987 11.4341 63.3987 11.5888C63.3987 11.7434 63.3058 11.9703 63.1199 12.2693L62.614 13.0735C62.4694 13.3106 62.3765 13.4859 62.3352 13.6096C62.2939 13.7333 62.2629 13.8777 62.2526 14.0426L61.4988 13.5787C61.4988 13.5271 61.5194 13.4446 61.5504 13.3312C61.5608 13.2797 61.5711 13.2488 61.5711 13.2384C61.3646 13.2797 61.1787 13.2797 60.9928 13.2384C60.807 13.2075 60.6315 13.1353 60.4662 13.0322C60.1771 12.857 59.9913 12.6404 59.9087 12.393C59.8364 12.1455 59.857 11.9084 60.0016 11.6816C60.0945 11.5269 60.2184 11.4238 60.363 11.3516C60.5179 11.2795 60.6728 11.2589 60.8586 11.2795C61.0341 11.3001 61.2716 11.3723 61.5607 11.4857C61.9531 11.6403 62.2319 11.7434 62.4074 11.7744L62.4487 11.7022C62.5314 11.5682 62.552 11.4548 62.521 11.3516C62.4797 11.2485 62.3661 11.1351 62.1596 11.0114C62.0254 10.9289 61.9015 10.8877 61.7982 10.8877C61.695 10.8877 61.5814 10.9392 61.4575 11.032M62.1287 12.2177C62.0151 12.1868 61.8395 12.1352 61.6021 12.0424C61.3646 11.96 61.1994 11.9084 61.1064 11.9084C60.9722 11.9084 60.8689 11.9703 60.7967 12.0631C60.745 12.1559 60.7244 12.2693 60.7657 12.393C60.7967 12.5167 60.8793 12.6095 61.0032 12.692C61.1374 12.7745 61.2923 12.8157 61.4678 12.8054C61.6021 12.8054 61.7053 12.7539 61.7879 12.6817C61.8499 12.6404 61.9221 12.527 62.0254 12.3621L62.1183 12.2177H62.1287Z" fill="#231815"/>
<path d="M66.3503 11.8015L63.7451 15.1335L64.4451 15.6792L67.0503 12.3472L66.3503 11.8015Z" fill="#231815"/>
<path d="M72.7538 24.1675C72.7538 24.4459 72.8054 24.714 72.888 24.9924L72.1962 25.0542C72.1446 24.9202 72.1136 24.7758 72.0826 24.6315C72.0826 24.6006 72.062 24.3634 72.031 23.9098C71.7625 23.7242 71.5251 23.4871 71.3185 23.1777C70.9159 22.5901 70.7506 22.023 70.8436 21.4765C70.9365 20.9301 71.2566 20.4558 71.8348 20.064C72.4027 19.6722 72.9706 19.5279 73.5179 19.6413C74.0651 19.7547 74.5401 20.095 74.9325 20.6723C75.3249 21.2394 75.4694 21.7962 75.3868 22.3426C75.3042 22.8891 74.9738 23.3633 74.4059 23.7551C74.1064 23.9613 73.807 24.0954 73.5076 24.1675C73.2804 24.2191 73.0429 24.2191 72.7745 24.1778M72.7228 23.3015C72.8984 23.3221 73.0739 23.3015 73.2701 23.2602C73.4559 23.1984 73.6521 23.1056 73.8483 22.9715C74.251 22.6932 74.4885 22.3838 74.5608 22.0539C74.6227 21.724 74.5608 21.3941 74.3439 21.0847C74.1271 20.7754 73.8483 20.5898 73.5076 20.5383C73.1772 20.4764 72.8054 20.5898 72.3924 20.8682C71.9794 21.1466 71.7419 21.4559 71.6696 21.7962C71.5973 22.1364 71.6696 22.4457 71.8658 22.7447C71.9381 22.8581 72.031 22.9509 72.1343 23.0231C72.1239 22.7963 72.0826 22.5901 72.0207 22.3942L72.5783 22.3323C72.6712 22.6416 72.7228 22.9715 72.7228 23.3118" fill="#231815"/>
<path d="M74.4679 28.6112L74.881 28.4153C74.6848 28.3741 74.4886 28.2813 74.3234 28.1473C74.1479 28.0132 74.0136 27.838 73.9207 27.6318C73.8278 27.4256 73.7761 27.2297 73.7865 27.0235C73.7865 26.8172 73.8484 26.6523 73.962 26.5079C74.0756 26.3636 74.2614 26.2296 74.5196 26.1058L76.2852 25.281L76.657 26.0852L75.3766 26.6832C74.9842 26.8688 74.7571 26.9925 74.6848 27.0647C74.6125 27.1369 74.5712 27.2193 74.5505 27.3225C74.5402 27.4256 74.5506 27.539 74.6125 27.6627C74.6848 27.7967 74.7674 27.9101 74.8913 27.9823C75.0152 28.0545 75.1288 28.0957 75.2527 28.0854C75.3766 28.0854 75.6347 27.9823 76.0374 27.7967L77.2042 27.24L77.5863 28.0442L74.819 29.3433L74.4679 28.5906V28.6112Z" fill="#231815"/>
<path d="M77.7822 31.2815L77.6686 30.4773C77.9784 30.4773 78.2365 30.5598 78.4327 30.7247C78.6392 30.9 78.8044 31.1887 78.9283 31.6011C79.0419 31.9826 79.0935 32.2713 79.0626 32.4878C79.0419 32.694 78.98 32.859 78.8664 32.9724C78.7631 33.0858 78.5463 33.1992 78.2055 33.3023L77.2969 33.5704C77.0388 33.6529 76.8529 33.7251 76.7393 33.7869C76.6257 33.8488 76.5122 33.9416 76.3986 34.055L76.1301 33.2095C76.1301 33.2095 76.2437 33.1271 76.3263 33.0652C76.3676 33.0343 76.3986 33.0239 76.4089 33.0033C76.2334 32.9002 76.0888 32.7765 75.9752 32.6322C75.8616 32.4878 75.779 32.3228 75.7171 32.1373C75.6138 31.8073 75.6138 31.529 75.7171 31.2815C75.8203 31.0444 76.0062 30.8897 76.254 30.8072C76.4192 30.7557 76.5844 30.7557 76.7393 30.8072C76.8942 30.8588 77.0388 30.9413 77.1523 31.0856C77.2659 31.2196 77.4002 31.4258 77.5447 31.7042C77.7306 32.0857 77.8855 32.3332 77.9887 32.4775L78.0713 32.4569C78.2159 32.4053 78.3088 32.3435 78.3501 32.2404C78.3914 32.1373 78.3708 31.9826 78.2985 31.7558C78.2469 31.6011 78.1952 31.498 78.1126 31.4258C78.03 31.364 77.9164 31.3227 77.7615 31.3124M77.4828 32.6425C77.4105 32.5497 77.3279 32.3847 77.204 32.1682C77.0904 31.9414 76.9871 31.8073 76.9252 31.7455C76.8219 31.663 76.7083 31.6321 76.5948 31.663C76.4812 31.6939 76.3986 31.7661 76.3469 31.8795C76.2953 31.9929 76.285 32.1166 76.3263 32.261C76.3779 32.4156 76.4709 32.5394 76.6051 32.6528C76.7083 32.7353 76.8219 32.7765 76.9355 32.7765C77.0078 32.7765 77.142 32.7559 77.3279 32.694L77.4828 32.6425Z" fill="#231815"/>
<path d="M80.9429 35.0946L76.7842 35.8853L76.9503 36.7563L81.109 35.9656L80.9429 35.0946Z" fill="#231815"/>
<path d="M77.2666 38.8493L80.3126 38.54L80.4056 39.4164L77.3595 39.7257L77.2666 38.839V38.8493ZM80.7257 38.4884L81.4691 38.4163L81.562 39.3029L80.8186 39.3751L80.7257 38.4884Z" fill="#231815"/>
<path d="M80.5604 43.3653H79.9202V42.7673H78.6709C78.4127 42.7879 78.2682 42.7879 78.2269 42.7982C78.1856 42.8085 78.1546 42.8395 78.1236 42.8807C78.0926 42.922 78.0823 42.9735 78.0823 43.0354C78.0823 43.1179 78.1133 43.2313 78.1649 43.3859L77.535 43.4581C77.4524 43.2519 77.4111 43.0251 77.4111 42.7673C77.4111 42.6127 77.4318 42.4683 77.4731 42.3446C77.5247 42.2106 77.5867 42.1178 77.6589 42.0559C77.7415 41.994 77.8448 41.9528 77.979 41.9322C78.072 41.9115 78.2682 41.9012 78.5573 41.9012H79.8996V41.4785H80.5501V41.8806H81.1593L81.6446 42.757H80.5604V43.3756V43.3653Z" fill="#231815"/>
<path d="M80.5291 45.0973L80.4259 46.0253L78.1749 46.5923L80.2607 47.6027L80.1677 48.5204L77.3695 47.0357L76.8532 46.7573C76.688 46.6645 76.5538 46.5717 76.4712 46.4995C76.3783 46.4171 76.3163 46.3243 76.2647 46.2315C76.2234 46.1387 76.1821 46.015 76.1717 45.8809C76.1511 45.7469 76.1511 45.5922 76.1717 45.4273C76.1924 45.2623 76.2234 45.0973 76.2647 44.9324H76.9049C76.8636 45.0561 76.8326 45.1798 76.8223 45.2932C76.8016 45.4891 76.8429 45.6541 76.9462 45.7572C77.0494 45.8706 77.1837 45.9531 77.3489 46.0253L80.5395 45.0973H80.5291Z" fill="#231815"/>
<path d="M79.5788 15.084V11.0732H81.3548C81.7162 11.0732 81.9847 11.1042 82.1705 11.1867C82.3564 11.2588 82.5113 11.3826 82.6145 11.5681C82.7281 11.7537 82.7797 11.9496 82.7797 12.1764C82.7797 12.4651 82.6868 12.7023 82.501 12.8982C82.3151 13.0941 82.0363 13.2178 81.6439 13.2693C81.7885 13.3312 81.8917 13.4034 81.964 13.4652C82.1189 13.6096 82.2635 13.7849 82.3977 14.0014L83.0895 15.0943H82.4287L81.8918 14.2591C81.7369 14.022 81.613 13.8364 81.5097 13.7024C81.4065 13.5787 81.3238 13.4859 81.2412 13.4343C81.1586 13.3828 81.076 13.3518 80.9934 13.3312C80.9315 13.3209 80.8385 13.3106 80.694 13.3106H80.0745V15.0943H79.5479L79.5788 15.084ZM80.1054 12.8466H81.2516C81.4891 12.8466 81.6852 12.8157 81.8195 12.7744C81.964 12.7229 82.0673 12.6404 82.1396 12.527C82.2015 12.4136 82.2428 12.3002 82.2428 12.1661C82.2428 11.9702 82.1809 11.8259 82.0363 11.6919C81.9021 11.5681 81.6749 11.5063 81.3858 11.5063H80.1158V12.8363L80.1054 12.8466Z" fill="#009944"/>
<path d="M77.6377 13.094C77.6377 15.0117 79.2072 16.5789 81.1277 16.5789C83.0483 16.5789 84.6178 15.0117 84.6178 13.094C84.6178 11.1763 83.0483 9.60913 81.1277 9.60913C79.2072 9.60913 77.6377 11.1763 77.6377 13.094ZM78.1333 13.094C78.1333 11.4444 79.4756 10.104 81.1277 10.104C82.7798 10.104 84.1221 11.4444 84.1221 13.094C84.1221 14.7437 82.7798 16.084 81.1277 16.084C79.4756 16.084 78.1333 14.7437 78.1333 13.094Z" fill="#009944"/>
<path d="M75.2913 92.0301V93.6001H77.0813V92.0301H75.2913ZM74.7613 91.5201H77.6213V94.1201H74.7613V91.5201ZM74.2812 94.9501H77.8713V95.5501H74.2812V94.9501ZM75.2313 95.1901H75.8213C75.7013 95.8601 75.5313 96.6701 75.3913 97.1801H74.7913C74.9513 96.6401 75.1213 95.8301 75.2313 95.1901ZM75.2713 96.6201H77.1012V97.1801H75.1213L75.2713 96.6201ZM76.8713 96.6201H77.4613C77.4613 96.6201 77.4513 96.8101 77.4413 96.9101C77.2913 98.8601 77.1613 99.6101 76.8913 99.8901C76.7413 100.05 76.5913 100.11 76.3213 100.13C76.1313 100.15 75.7413 100.14 75.3413 100.12C75.3313 99.9501 75.2813 99.7001 75.1813 99.5401C75.5713 99.5801 75.9512 99.5801 76.1012 99.5801C76.2412 99.5901 76.3313 99.5701 76.4113 99.4901C76.6013 99.3001 76.7413 98.5901 76.8713 96.7201V96.6201ZM80.6113 91.7901H82.9912V92.3501H80.6113V91.7901ZM78.6312 93.0601H83.0513V93.6201H78.6312V93.0601ZM78.3313 93.0601H78.9212V95.6101C78.9212 96.9901 78.7913 98.9301 77.9013 100.25C77.8013 100.14 77.5513 99.9601 77.4013 99.8901C78.2313 98.6301 78.3313 96.9001 78.3313 95.6101V93.0601ZM79.1413 94.6801L82.1913 94.3601L82.2513 94.8501L79.2113 95.1701L79.1413 94.6801ZM82.8713 93.0601H82.9713L83.0813 93.0401L83.4912 93.1501C83.3612 93.7201 83.1912 94.4101 83.0612 94.8401L82.5413 94.7201C82.6613 94.3201 82.8013 93.6701 82.8713 93.1501V93.0601ZM79.7812 96.8601H80.3613C80.2913 98.4701 80.0213 99.5701 78.9413 100.22C78.8713 100.08 78.7012 99.8701 78.5612 99.7801C79.5112 99.2301 79.7213 98.2601 79.7812 96.8601ZM81.2713 96.8601H81.8413V99.2001C81.8413 99.2701 81.8512 99.3401 81.9212 99.3701C81.9712 99.4001 82.0513 99.4101 82.1513 99.4101C82.2413 99.4101 82.4013 99.4101 82.5213 99.4101C82.6313 99.4101 82.7512 99.4001 82.8112 99.3701C82.8712 99.3301 82.9313 99.2501 82.9513 99.1501C82.9713 98.9801 82.9913 98.5901 82.9813 98.1301C83.1013 98.2401 83.3212 98.3601 83.4912 98.4101C83.4812 98.8801 83.4513 99.3801 83.3913 99.5501C83.3313 99.7301 83.2312 99.8401 83.1012 99.9201C82.9713 99.9801 82.7513 100.01 82.5813 100.01C82.4513 100.01 82.1312 100.01 82.0312 100.01C81.8213 100.01 81.5913 99.9801 81.4613 99.8701C81.3012 99.7401 81.2713 99.6001 81.2713 99.1701V96.8601ZM80.3112 91.0701H80.9413V93.3601H80.3112V91.0701ZM80.2513 93.7001H80.8313V95.4501C80.8313 95.7101 80.8613 95.7901 81.0713 95.7901C81.2413 95.7901 82.0213 95.7901 82.2013 95.7901C82.3713 95.7901 82.6513 95.7801 82.7913 95.7501C82.8113 95.9101 82.8312 96.1101 82.8512 96.2501C82.7212 96.3001 82.4613 96.3001 82.2213 96.3001C82.0213 96.3001 81.1413 96.3001 80.9813 96.3001C80.3813 96.3001 80.2513 96.0501 80.2513 95.4301V93.7001Z" fill="#231815"/>
<path d="M70.3725 99.4499C70.4925 96.6399 71.0125 94.8399 72.4525 92.8399H68.8525V92.1299H73.3825V92.6299C71.6625 94.8499 71.3325 96.5899 71.2225 99.4499H70.3725Z" fill="#231815"/>
<path d="M65.6348 99.59C64.2548 99.59 63.3848 98.33 63.3848 95.77C63.3848 93.23 64.2548 92 65.6348 92C66.9948 92 67.8648 93.23 67.8648 95.77C67.8648 98.33 66.9948 99.59 65.6348 99.59ZM65.6348 98.92C66.4948 98.92 67.0748 97.94 67.0748 95.77C67.0748 93.62 66.4948 92.66 65.6348 92.66C64.7648 92.66 64.1748 93.62 64.1748 95.77C64.1748 97.94 64.7648 98.92 65.6348 98.92Z" fill="#231815"/>
<path d="M60.1465 99.59C58.7665 99.59 57.8965 98.33 57.8965 95.77C57.8965 93.23 58.7665 92 60.1465 92C61.5065 92 62.3765 93.23 62.3765 95.77C62.3765 98.33 61.5065 99.59 60.1465 99.59ZM60.1465 98.92C61.0065 98.92 61.5865 97.94 61.5865 95.77C61.5865 93.62 61.0065 92.66 60.1465 92.66C59.2765 92.66 58.6865 93.62 58.6865 95.77C58.6865 97.94 59.2765 98.92 60.1465 98.92Z" fill="#231815"/>
<path d="M52.7979 99.4499V98.7699H54.4379V93.1699H53.1379V92.6399C53.7779 92.5299 54.2379 92.3599 54.6179 92.1299H55.2479V98.7699H56.7379V99.4499H52.7979Z" fill="#231815"/>
<path d="M49.1699 99.59C47.7899 99.59 46.9199 98.33 46.9199 95.77C46.9199 93.23 47.7899 92 49.1699 92C50.5299 92 51.3999 93.23 51.3999 95.77C51.3999 98.33 50.5299 99.59 49.1699 99.59ZM49.1699 98.92C50.0299 98.92 50.6099 97.94 50.6099 95.77C50.6099 93.62 50.0299 92.66 49.1699 92.66C48.2999 92.66 47.7099 93.62 47.7099 95.77C47.7099 97.94 48.2999 98.92 49.1699 98.92Z" fill="#231815"/>
<path d="M41.1797 99.4499V92.1299H43.2097C44.8497 92.1299 45.9297 92.6799 45.9297 94.2599C45.9297 95.7799 44.8597 96.4899 43.2497 96.4899H41.9997V99.4499H41.1797ZM41.9997 95.8099H43.1297C44.4597 95.8099 45.0997 95.3399 45.0997 94.2599C45.0997 93.1499 44.4297 92.8099 43.0897 92.8099H41.9997V95.8099Z" fill="#231815"/>
<path d="M32.1099 95.47H38.1899V94.48H31.4799V93.9H38.8399V96.04H32.1099V95.47ZM31.8399 95.47H32.4799C32.3799 96.19 32.2499 97.07 32.1399 97.62H31.4799C31.6199 97.04 31.7599 96.17 31.8399 95.47ZM31.9599 97.04H38.6599V97.62H31.7799L31.9599 97.04ZM38.4799 97.04H39.1499C39.1499 97.04 39.1399 97.22 39.1299 97.32C38.9899 98.73 38.8499 99.34 38.5899 99.58C38.4299 99.74 38.2599 99.8 37.9699 99.81C37.7299 99.82 37.2399 99.82 36.7199 99.79C36.7099 99.61 36.6299 99.35 36.5299 99.17C37.0299 99.23 37.5199 99.23 37.6899 99.23C37.8699 99.23 37.9699 99.22 38.0499 99.14C38.2299 98.98 38.3499 98.45 38.4799 97.12V97.04ZM34.7699 94.05H35.4399V100.23H34.7699V94.05ZM34.5799 97.19L35.0999 97.43C34.2599 98.63 32.7099 99.72 31.3299 100.25C31.2399 100.09 31.0399 99.85 30.8899 99.73C32.2699 99.26 33.7899 98.26 34.5799 97.19ZM31.9299 91.81H35.1099V92.35H31.9299V91.81ZM36.0499 91.82H39.6999V92.36H36.0499V91.82ZM32.1499 91L32.7499 91.16C32.3599 92.11 31.7299 93.05 31.1099 93.66C31.0099 93.55 30.7699 93.32 30.6299 93.22C31.2499 92.66 31.8099 91.84 32.1499 91ZM36.2599 91L36.8799 91.15C36.5899 91.97 36.0599 92.76 35.5199 93.27C35.3999 93.17 35.1499 92.96 34.9999 92.87C35.5499 92.41 36.0099 91.73 36.2599 91ZM32.6599 92.65L33.0799 92.32C33.4199 92.61 33.8599 93.04 34.0699 93.31L33.6199 93.68C33.4099 93.4 32.9899 92.96 32.6599 92.65ZM37.0199 92.71L37.4599 92.36C37.8199 92.64 38.2699 93.04 38.5099 93.31L38.0499 93.71C37.8299 93.43 37.3799 93.01 37.0199 92.71Z" fill="#231815"/>
<path d="M22.4796 93.96H27.3396V94.59H22.4796V93.96ZM20.8496 96.48H29.4396V97.12H20.8496V96.48ZM24.7996 95.84H25.5096V99.39C25.5096 99.81 25.3996 100.01 25.0596 100.12C24.7296 100.22 24.2196 100.23 23.3796 100.23C23.3296 100.04 23.1996 99.75 23.0796 99.57C23.7696 99.58 24.3996 99.58 24.5696 99.58C24.7496 99.57 24.7996 99.52 24.7996 99.38V95.84ZM27.1396 93.96H27.3196L27.4796 93.93L27.9296 94.27C27.2296 95 26.1496 95.77 25.1896 96.23C25.0896 96.12 24.9096 95.93 24.7996 95.84C25.6596 95.42 26.6396 94.68 27.1396 94.11V93.96ZM20.9796 92.13H29.3296V94.15H28.6396V92.78H21.6396V94.15H20.9796V92.13ZM24.4296 91.21L25.0696 91C25.3696 91.38 25.6596 91.89 25.7896 92.23L25.0996 92.48C24.9996 92.13 24.7196 91.6 24.4296 91.21Z" fill="#231815"/>
<path d="M13.1298 92.14V94.14H17.2098V92.14H13.1298ZM12.4798 91.5H17.8898V94.79H12.4798V91.5ZM11.0098 95.89H14.5198V100.15H13.8598V96.53H11.6498V100.23H11.0098V95.89ZM15.6598 95.89H19.3898V100.17H18.7098V96.53H16.2998V100.23H15.6598V95.89ZM11.2998 99.04H14.1298V99.69H11.2998V99.04ZM15.9898 99.04H18.9998V99.69H15.9898V99.04Z" fill="#231815"/>
<path d="M2.22 93.53H8.12V94.05H2.22V93.53ZM6.41 92.66L6.73 92.32C7.13 92.5 7.6 92.78 7.84 93.01L7.52 93.38C7.28 93.14 6.81 92.84 6.41 92.66ZM7.12 94.54L7.67 94.65C7.17 96.57 6.17 97.97 4.77 98.87C4.69 98.76 4.49 98.54 4.37 98.44C5.75 97.63 6.68 96.3 7.12 94.54ZM2.12 97.66C2.9 97.53 4.03 97.33 5.17 97.1L5.19 97.58C4.14 97.8 3.06 98.02 2.22 98.19L2.12 97.66ZM3.08 95.15V96.23H4.31V95.15H3.08ZM2.59 94.72H4.82V96.67H2.59V94.72ZM5.23 92.42H5.81C5.94 95.31 6.4 98 7.43 98.15C7.58 98.19 7.68 97.76 7.75 97.09C7.86 97.21 8.07 97.34 8.2 97.4C8.07 98.47 7.75 98.87 7.25 98.7C5.85 98.42 5.42 95.55 5.23 92.42ZM1 91.54H9.32V100.27H8.65V92.15H1.64V100.27H1V91.54ZM1.39 99.18H9.03V99.79H1.39V99.18Z" fill="#231815"/>
</g>
<defs>
<clipPath id="clip0_762_7137">
<rect width="85" height="100" fill="white"/>
</clipPath>
</defs>
</svg>
