<svg viewBox="0 0 24 25" fill="none" xmlns="http://www.w3.org/2000/svg"
     class="component-dns-icon">
  <mask id="mask0_11_3265" style="mask-type:alpha" maskUnits="userSpaceOnUse" x="0" y="0" width="24" height="25">
    <rect y="0.5" width="24" height="24" fill="#D9D9D9"/>
  </mask>
  <g mask="url(#mask0_11_3265)">
    <path
      class="component-dns-icon__path"
      d="M7.5 6.5C7.08333 6.5 6.72917 6.64583 6.4375 6.9375C6.14583 7.22917 6 7.58333 6 8C6 8.41667 6.14583 8.77083 6.4375 9.0625C6.72917 9.35417 7.08333 9.5 7.5 9.5C7.91667 9.5 8.27083 9.35417 8.5625 9.0625C8.85417 8.77083 9 8.41667 9 8C9 7.58333 8.85417 7.22917 8.5625 6.9375C8.27083 6.64583 7.91667 6.5 7.5 6.5ZM7.5 16.5C7.08333 16.5 6.72917 16.6458 6.4375 16.9375C6.14583 17.2292 6 17.5833 6 18C6 18.4167 6.14583 18.7708 6.4375 19.0625C6.72917 19.3542 7.08333 19.5 7.5 19.5C7.91667 19.5 8.27083 19.3542 8.5625 19.0625C8.85417 18.7708 9 18.4167 9 18C9 17.5833 8.85417 17.2292 8.5625 16.9375C8.27083 16.6458 7.91667 16.5 7.5 16.5ZM4 3.5H20C20.2833 3.5 20.5208 3.59583 20.7125 3.7875C20.9042 3.97917 21 4.21667 21 4.5V11.5C21 11.7833 20.9042 12.0208 20.7125 12.2125C20.5208 12.4042 20.2833 12.5 20 12.5H4C3.71667 12.5 3.47917 12.4042 3.2875 12.2125C3.09583 12.0208 3 11.7833 3 11.5V4.5C3 4.21667 3.09583 3.97917 3.2875 3.7875C3.47917 3.59583 3.71667 3.5 4 3.5ZM5 5.5V10.5H19V5.5H5ZM4 13.5H20C20.2833 13.5 20.5208 13.5958 20.7125 13.7875C20.9042 13.9792 21 14.2167 21 14.5V21.5C21 21.7833 20.9042 22.0208 20.7125 22.2125C20.5208 22.4042 20.2833 22.5 20 22.5H4C3.71667 22.5 3.47917 22.4042 3.2875 22.2125C3.09583 22.0208 3 21.7833 3 21.5V14.5C3 14.2167 3.09583 13.9792 3.2875 13.7875C3.47917 13.5958 3.71667 13.5 4 13.5ZM5 15.5V20.5H19V15.5H5Z"/>
  </g>
</svg>
