<svg width="24" height="25" viewBox="0 0 24 25" fill="none" xmlns="http://www.w3.org/2000/svg">
<mask id="mask0_92_4833" style="mask-type:alpha" maskUnits="userSpaceOnUse" x="0" y="0" width="24" height="25">
<rect y="0.5" width="24" height="24" fill="#D9D9D9"/>
</mask>
<g mask="url(#mask0_92_4833)">
<path d="M7 21.5L5.6 20.1L7.175 18.45C5.40833 18.25 3.9375 17.4875 2.7625 16.1625C1.5875 14.8375 1 13.2833 1 11.5C1 9.55 1.67917 7.89583 3.0375 6.5375C4.39583 5.17917 6.05 4.5 8 4.5H11V6.5H8C6.61667 6.5 5.4375 6.9875 4.4625 7.9625C3.4875 8.9375 3 10.1167 3 11.5C3 12.7 3.38333 13.7583 4.15 14.675C4.91667 15.5917 5.89167 16.1667 7.075 16.4L5.6 14.925L7 13.5L11 17.5L7 21.5ZM13 20.5V13.5H22V20.5H13ZM13 11.5V4.5H22V11.5H13ZM15 9.5H20V6.5H15V9.5Z" fill="#1C1B1F"/>
</g>
</svg>
