<svg width="24" height="25" viewBox="0 0 24 25" fill="none" xmlns="http://www.w3.org/2000/svg">
<mask id="mask0_93_4924" style="mask-type:alpha" maskUnits="userSpaceOnUse" x="0" y="0" width="24" height="25">
<rect y="0.5" width="24" height="24" fill="#D9D9D9"/>
</mask>
<g mask="url(#mask0_93_4924)">
<path d="M12.125 13.5H16.2C16.6333 13.5 17 13.35 17.3 13.05C17.6 12.75 17.75 12.3833 17.75 11.95C17.75 11.5167 17.6 11.1458 17.3 10.8375C17 10.5292 16.6333 10.375 16.2 10.375H16.15C16.0667 9.84167 15.825 9.39583 15.425 9.0375C15.025 8.67917 14.55 8.5 14 8.5C13.5667 8.5 13.175 8.6125 12.825 8.8375C12.475 9.0625 12.2083 9.36667 12.025 9.75C11.525 9.78333 11.1042 9.97917 10.7625 10.3375C10.4208 10.6958 10.25 11.125 10.25 11.625C10.25 12.125 10.4292 12.5625 10.7875 12.9375C11.1458 13.3125 11.5917 13.5 12.125 13.5ZM3 21.5C2.45 21.5 1.97917 21.3042 1.5875 20.9125C1.19583 20.5208 1 20.05 1 19.5V6.5H3V19.5H20V21.5H3ZM7 17.5C6.45 17.5 5.97917 17.3042 5.5875 16.9125C5.19583 16.5208 5 16.05 5 15.5V4.5C5 3.95 5.19583 3.47917 5.5875 3.0875C5.97917 2.69583 6.45 2.5 7 2.5H12L14 4.5H21C21.55 4.5 22.0208 4.69583 22.4125 5.0875C22.8042 5.47917 23 5.95 23 6.5V15.5C23 16.05 22.8042 16.5208 22.4125 16.9125C22.0208 17.3042 21.55 17.5 21 17.5H7Z" fill="#1C1B1F"/>
</g>
</svg>
