<svg width="24" height="25" viewBox="0 0 24 25" fill="none" xmlns="http://www.w3.org/2000/svg">
<mask id="mask0_67_2120" style="mask-type:alpha" maskUnits="userSpaceOnUse" x="0" y="0" width="24" height="25">
<rect y="0.5" width="24" height="24" fill="#D9D9D9"/>
</mask>
<g mask="url(#mask0_67_2120)">
<path d="M7 20.525V11.5H8.6C8.71667 11.5 8.83333 11.5125 8.95 11.5375C9.06667 11.5625 9.18333 11.5917 9.3 11.625L16.225 14.2C16.4583 14.2833 16.6458 14.4333 16.7875 14.65C16.9292 14.8667 17 15.0917 17 15.325C17 15.675 16.8792 15.9583 16.6375 16.175C16.3958 16.3917 16.1167 16.5 15.8 16.5H13.175C13.0917 16.5 13.0292 16.4958 12.9875 16.4875C12.9458 16.4792 12.8917 16.4583 12.825 16.425L11.225 15.8L10.9 16.775L12.825 17.45C12.8583 17.4667 12.9083 17.4792 12.975 17.4875C13.0417 17.4958 13.1 17.5 13.15 17.5H20C20.5333 17.5 21 17.6917 21.4 18.075C21.8 18.4583 22 18.9333 22 19.5L14.025 22.5L7 20.525ZM1 22.5V11.5H5V22.5H1ZM16 13.5L11.85 9.45C11.3333 8.95 10.8958 8.39583 10.5375 7.7875C10.1792 7.17917 10 6.51667 10 5.8C10 4.88333 10.3208 4.10417 10.9625 3.4625C11.6042 2.82083 12.3833 2.5 13.3 2.5C13.8333 2.5 14.3333 2.6125 14.8 2.8375C15.2667 3.0625 15.6667 3.36667 16 3.75C16.3333 3.36667 16.7333 3.0625 17.2 2.8375C17.6667 2.6125 18.1667 2.5 18.7 2.5C19.6167 2.5 20.3958 2.82083 21.0375 3.4625C21.6792 4.10417 22 4.88333 22 5.8C22 6.51667 21.825 7.17917 21.475 7.7875C21.125 8.39583 20.6917 8.95 20.175 9.45L16 13.5Z" fill="black"/>
</g>
</svg>
