<svg width="43" height="42" viewBox="0 0 43 42" fill="none" xmlns="http://www.w3.org/2000/svg">
<path d="M16.584 26.8756C15.729 18.6062 26.416 16.9741 26.416 12.1865C26.416 9.1943 23.9046 7.8342 20.3779 7.8342C17.3321 7.8342 15.0878 9.2487 12.7366 11.7513L7.5 6.85492C10.813 2.72021 15.8359 0 21.5 0C29.355 0 35.5 3.53627 35.5 11.3161C35.5 19.1503 24.4389 19.6943 24.9198 26.8756H16.584ZM20.7519 42C17.5458 42 15.3015 39.6606 15.3015 36.4508C15.3015 33.2409 17.5992 31.0104 20.7519 31.0104C23.9046 31.0104 26.2023 33.2409 26.2023 36.4508C26.2023 39.6606 23.9046 42 20.7519 42Z" fill="#D9F1FE"/>
</svg>
