<svg class="component-psychology-alt-solid-icon" width="24" height="25" viewBox="0 0 24 25" fill="none" xmlns="http://www.w3.org/2000/svg">
<mask id="mask0_34_3951" style="mask-type:alpha" maskUnits="userSpaceOnUse" x="0" y="0" width="24" height="25">
<rect y="0.5" width="24" height="24" fill="#D9D9D9"/>
</mask>
<g mask="url(#mask0_34_3951)">
<path class="component-psychology-alt-solid-icon__path" d="M6 22.5V18.2C5.05 17.3333 4.3125 16.3208 3.7875 15.1625C3.2625 14.0042 3 12.7833 3 11.5C3 9 3.875 6.875 5.625 5.125C7.375 3.375 9.5 2.5 12 2.5C14.0833 2.5 15.9292 3.1125 17.5375 4.3375C19.1458 5.5625 20.1917 7.15833 20.675 9.125L21.975 14.25C22.0583 14.5667 22 14.8542 21.8 15.1125C21.6 15.3708 21.3333 15.5 21 15.5H19V18.5C19 19.05 18.8042 19.5208 18.4125 19.9125C18.0208 20.3042 17.55 20.5 17 20.5H15V22.5H6ZM12 16.5C12.2833 16.5 12.5208 16.4042 12.7125 16.2125C12.9042 16.0208 13 15.7833 13 15.5C13 15.2167 12.9042 14.9792 12.7125 14.7875C12.5208 14.5958 12.2833 14.5 12 14.5C11.7167 14.5 11.4792 14.5958 11.2875 14.7875C11.0958 14.9792 11 15.2167 11 15.5C11 15.7833 11.0958 16.0208 11.2875 16.2125C11.4792 16.4042 11.7167 16.5 12 16.5ZM11.25 13.3H12.775C12.775 12.8833 12.8292 12.5458 12.9375 12.2875C13.0458 12.0292 13.2667 11.7167 13.6 11.35C13.9 11.0167 14.1917 10.6792 14.475 10.3375C14.7583 9.99583 14.9 9.55 14.9 9C14.9 8.3 14.6292 7.70833 14.0875 7.225C13.5458 6.74167 12.875 6.5 12.075 6.5C11.4083 6.5 10.8042 6.69167 10.2625 7.075C9.72083 7.45833 9.34167 7.95833 9.125 8.575L10.5 9.15C10.6167 8.78333 10.8208 8.4875 11.1125 8.2625C11.4042 8.0375 11.725 7.925 12.075 7.925C12.4417 7.925 12.7458 8.025 12.9875 8.225C13.2292 8.425 13.35 8.68333 13.35 9C13.35 9.35 13.2458 9.6625 13.0375 9.9375C12.8292 10.2125 12.5833 10.4917 12.3 10.775C11.9667 11.125 11.7083 11.475 11.525 11.825C11.3417 12.175 11.25 12.6667 11.25 13.3Z" fill="black"/>
</g>
</svg>
