<svg class="component-logo-snq-en-icon" width="160" height="60" viewBox="0 0 160 60" fill="none" xmlns="http://www.w3.org/2000/svg">
<g clip-path="url(#clip0_762_7138)">
<path d="M67.1605 47.1324L68.5475 46.9934C68.6274 47.4835 68.8017 47.8493 69.0559 48.076C69.3101 48.3101 69.6586 48.4199 70.0871 48.4199C70.5519 48.4199 70.8932 48.3174 71.1256 48.1126C71.358 47.9078 71.4742 47.6664 71.4742 47.3957C71.4742 47.2201 71.4234 47.0665 71.3289 46.9422C71.2345 46.8178 71.0602 46.7081 70.8133 46.6203C70.6463 46.5618 70.2614 46.452 69.6659 46.2911C68.9034 46.0936 68.366 45.8449 68.0537 45.5523C67.618 45.1426 67.4001 44.6378 67.4001 44.0453C67.4001 43.6649 67.5018 43.3138 67.7051 42.9773C67.9085 42.6481 68.2062 42.3921 68.5911 42.2238C68.976 42.0482 69.4408 41.9604 69.9854 41.9604C70.8714 41.9604 71.5395 42.1653 71.9898 42.5822C72.4401 42.9919 72.6724 43.5406 72.6942 44.2282L71.2636 44.294C71.2055 43.9063 71.0748 43.6356 70.8714 43.4674C70.6681 43.2991 70.3703 43.2187 69.9709 43.2187C69.5715 43.2187 69.2302 43.3065 68.9978 43.4893C68.8453 43.6064 68.7727 43.76 68.7727 43.9502C68.7727 44.1258 68.8453 44.2794 68.9833 44.4038C69.1648 44.5647 69.6005 44.7329 70.2977 44.9012C70.9876 45.0768 71.5032 45.2523 71.8373 45.4352C72.1714 45.6181 72.4328 45.8741 72.6143 46.196C72.8032 46.5179 72.8976 46.9129 72.8976 47.3811C72.8976 47.8054 72.7814 48.2077 72.5563 48.5808C72.3311 48.9539 72.0116 49.2318 71.5976 49.4074C71.1837 49.5903 70.6753 49.6854 70.0581 49.6854C69.1648 49.6854 68.4749 49.4659 67.9956 49.0343C67.5163 48.6027 67.2258 47.9663 67.1387 47.1324" fill="#231815"/>
<path d="M75.1708 45.7937L73.9363 45.5596C74.0742 45.0329 74.3139 44.6526 74.6552 44.3965C74.9893 44.1478 75.4904 44.0234 76.1585 44.0234C76.7612 44.0234 77.2188 44.0966 77.5092 44.2502C77.807 44.4038 78.0103 44.594 78.1338 44.8281C78.2572 45.0622 78.3153 45.4865 78.3153 46.1083L78.2936 47.7762C78.2936 48.2517 78.3153 48.6028 78.3589 48.8296C78.4025 49.0564 78.4824 49.2978 78.6058 49.5538H77.2623C77.226 49.4587 77.1824 49.3197 77.1316 49.1295C77.1098 49.0417 77.0953 48.9905 77.0808 48.9613C76.8484 49.1953 76.6015 49.3782 76.34 49.4953C76.0786 49.6123 75.7954 49.6708 75.4976 49.6708C74.9675 49.6708 74.5535 49.5172 74.2485 49.2173C73.9435 48.9174 73.791 48.5297 73.791 48.0688C73.791 47.7615 73.8636 47.4909 74.0016 47.2495C74.1396 47.0081 74.3357 46.8252 74.5826 46.7008C74.8295 46.5692 75.1926 46.4594 75.6574 46.3643C76.2892 46.24 76.7322 46.1229 76.9718 46.0132V45.8742C76.9718 45.5962 76.9065 45.3987 76.783 45.2817C76.6523 45.1646 76.4127 45.1061 76.0568 45.1061C75.8172 45.1061 75.6283 45.1573 75.4904 45.2597C75.3524 45.3621 75.2434 45.5377 75.1636 45.7864M76.9718 46.9422C76.7975 47.0008 76.5216 47.0739 76.144 47.1617C75.7663 47.2495 75.5194 47.3299 75.4032 47.4104C75.2289 47.5421 75.1345 47.7103 75.1345 47.9152C75.1345 48.12 75.2071 48.2883 75.3451 48.4346C75.4904 48.5809 75.6647 48.654 75.8898 48.654C76.1367 48.654 76.3691 48.5662 76.5869 48.398C76.754 48.2663 76.8557 48.1127 76.9137 47.9225C76.9501 47.7981 76.9646 47.564 76.9646 47.2202V46.9349L76.9718 46.9422Z" fill="#231815"/>
<path d="M79.1064 44.1477H79.8617V43.7381C79.8617 43.2845 79.9053 42.948 79.9997 42.7212C80.0941 42.4945 80.2611 42.3189 80.508 42.1726C80.755 42.0336 81.0672 41.9604 81.4449 41.9604C81.8225 41.9604 82.2074 42.019 82.5778 42.1433L82.3889 43.1382C82.1711 43.087 81.9677 43.0577 81.7644 43.0577C81.5611 43.0577 81.4303 43.109 81.3432 43.204C81.256 43.2991 81.2197 43.4893 81.2197 43.76V44.1404H82.2364V45.2596H81.2197V49.5464H79.8617V45.2596H79.1064V44.1404V44.1477Z" fill="#231815"/>
<path d="M86.0132 47.8347L87.364 48.0688C87.1897 48.5955 86.9137 48.9905 86.5433 49.2685C86.1657 49.5465 85.7009 49.6782 85.1345 49.6782C84.2412 49.6782 83.5804 49.3709 83.1519 48.7564C82.8178 48.2663 82.6436 47.6445 82.6436 46.891C82.6436 45.9986 82.8687 45.2963 83.3117 44.7842C83.7547 44.2795 84.3139 44.0234 84.9965 44.0234C85.759 44.0234 86.3618 44.2868 86.8048 44.8208C87.2478 45.3548 87.4584 46.1668 87.4366 47.2641H84.0379C84.0452 47.6884 84.1613 48.0176 84.3647 48.2517C84.5753 48.4858 84.8367 48.6028 85.149 48.6028C85.3596 48.6028 85.5412 48.5443 85.6864 48.4199C85.8316 48.3029 85.9406 48.1054 86.0132 47.8347ZM86.0931 46.3863C86.0786 45.9766 85.9769 45.6621 85.7881 45.4426C85.592 45.2305 85.3596 45.1207 85.0836 45.1207C84.7859 45.1207 84.539 45.2378 84.3502 45.4646C84.1541 45.6913 84.0597 45.9986 84.0669 46.3863H86.0931Z" fill="#231815"/>
<path d="M90.9439 44.1478V45.289H90.0144V47.4689C90.0144 47.9152 90.0216 48.1712 90.0434 48.2371C90.0579 48.3102 90.1015 48.3687 90.1596 48.4199C90.2177 48.4711 90.2976 48.4931 90.3847 48.4931C90.5082 48.4931 90.6897 48.4492 90.9294 48.3541L91.0529 49.466C90.7406 49.605 90.3847 49.6782 89.9853 49.6782C89.7384 49.6782 89.5205 49.6343 89.3245 49.5465C89.1284 49.4587 88.9831 49.349 88.896 49.21C88.8016 49.071 88.7435 48.8881 88.7072 48.654C88.6781 48.4858 88.6636 48.1493 88.6636 47.6445V45.289H88.0391V44.1478H88.6636V43.0725L90.0216 42.2312V44.1478H90.9512H90.9439Z" fill="#231815"/>
<path d="M91.2924 44.1477H92.7376L93.9576 47.9882L95.1559 44.1477H96.5575L94.7492 49.3562L94.4224 50.2925C94.3062 50.6071 94.19 50.8485 94.0811 51.0168C93.9722 51.185 93.8487 51.3167 93.7107 51.4191C93.5727 51.5215 93.3984 51.602 93.1951 51.6605C92.9918 51.719 92.7594 51.7483 92.5052 51.7483C92.251 51.7483 91.9896 51.719 91.7354 51.6605L91.612 50.5413C91.8226 50.5852 92.0114 50.6071 92.1857 50.6071C92.4979 50.6071 92.7376 50.512 92.8828 50.3145C93.0353 50.117 93.1515 49.8683 93.2314 49.5683L91.2852 44.1477H91.2924Z" fill="#231815"/>
<path d="M101.3 45.7937L100.066 45.5596C100.204 45.0329 100.443 44.6526 100.777 44.3965C101.111 44.1478 101.62 44.0234 102.281 44.0234C102.883 44.0234 103.334 44.0966 103.631 44.2502C103.929 44.4038 104.132 44.594 104.256 44.8281C104.379 45.0622 104.437 45.4865 104.437 46.1083L104.416 47.7762C104.416 48.2517 104.437 48.6028 104.481 48.8296C104.525 49.0564 104.604 49.2978 104.728 49.5538H103.384C103.348 49.4587 103.305 49.3197 103.254 49.1295C103.232 49.0417 103.217 48.9905 103.203 48.9613C102.97 49.1953 102.724 49.3782 102.462 49.4953C102.201 49.6123 101.917 49.6708 101.62 49.6708C101.09 49.6708 100.676 49.5172 100.371 49.2173C100.066 48.9174 99.9131 48.5297 99.9131 48.0688C99.9131 47.7615 99.9857 47.4909 100.124 47.2495C100.262 47.0081 100.458 46.8252 100.705 46.7008C100.952 46.5692 101.315 46.4594 101.787 46.3643C102.419 46.24 102.862 46.1229 103.101 46.0132V45.8742C103.101 45.5962 103.036 45.3987 102.912 45.2817C102.782 45.1646 102.542 45.1061 102.186 45.1061C101.946 45.1061 101.758 45.1573 101.627 45.2597C101.496 45.3621 101.38 45.5377 101.3 45.7864M103.108 46.9422C102.934 47.0008 102.658 47.0739 102.281 47.1617C101.903 47.2495 101.656 47.3299 101.54 47.4104C101.366 47.5421 101.271 47.7103 101.271 47.9152C101.271 48.12 101.344 48.2883 101.482 48.4346C101.62 48.5809 101.801 48.654 102.019 48.654C102.266 48.654 102.498 48.5662 102.724 48.398C102.891 48.2663 102.992 48.1127 103.043 47.9225C103.079 47.7981 103.094 47.564 103.094 47.2202V46.9349L103.108 46.9422Z" fill="#231815"/>
<path d="M110.494 49.5538H109.136V46.7959C109.136 46.2107 109.107 45.8303 109.049 45.6621C108.991 45.4938 108.897 45.3621 108.766 45.267C108.635 45.1719 108.475 45.1207 108.294 45.1207C108.054 45.1207 107.844 45.1866 107.662 45.3256C107.473 45.4646 107.35 45.6401 107.277 45.8669C107.204 46.0937 107.175 46.5033 107.175 47.1105V49.5611H105.817V44.1551H107.081V44.9452C107.531 44.338 108.09 44.0308 108.773 44.0308C109.071 44.0308 109.347 44.0893 109.594 44.199C109.841 44.3087 110.029 44.455 110.153 44.6306C110.284 44.8062 110.371 45.0037 110.422 45.2305C110.472 45.4572 110.494 45.7791 110.494 46.1961V49.5538Z" fill="#231815"/>
<path d="M116.623 49.5539H115.367V48.7638C115.156 49.0711 114.909 49.3052 114.626 49.4515C114.343 49.6051 114.053 49.6782 113.769 49.6782C113.181 49.6782 112.68 49.4295 112.259 48.9248C111.838 48.4273 111.627 47.7251 111.627 46.8326C111.627 45.9401 111.83 45.2159 112.237 44.7404C112.644 44.2649 113.159 44.0235 113.784 44.0235C114.358 44.0235 114.851 44.2722 115.265 44.777V42.0923H116.623V49.5539ZM113.014 46.7302C113.014 47.3081 113.087 47.7251 113.239 47.9811C113.457 48.3542 113.762 48.5444 114.154 48.5444C114.466 48.5444 114.728 48.4054 114.946 48.1201C115.164 47.8421 115.273 47.4251 115.273 46.8619C115.273 46.2401 115.164 45.7938 114.953 45.5158C114.742 45.2452 114.474 45.1062 114.14 45.1062C113.806 45.1062 113.551 45.2379 113.334 45.5085C113.116 45.7792 113.007 46.1815 113.007 46.7155" fill="#231815"/>
<path d="M126.514 48.61C126.862 48.8734 127.247 49.0855 127.661 49.2392L127.138 50.2999C126.921 50.234 126.71 50.1389 126.507 50.0219C126.463 49.9999 126.144 49.7732 125.555 49.3562C125.09 49.5684 124.575 49.6781 124.016 49.6781C122.926 49.6781 122.077 49.3416 121.459 48.6686C120.842 47.9956 120.537 47.0446 120.537 45.8229C120.537 44.6013 120.842 43.6576 121.467 42.9773C122.084 42.3043 122.926 41.9604 123.987 41.9604C125.047 41.9604 125.868 42.297 126.485 42.9773C127.102 43.6576 127.407 44.6013 127.407 45.8229C127.407 46.4667 127.32 47.0373 127.153 47.5201C127.022 47.8931 126.819 48.2516 126.528 48.6027M125.381 47.7542C125.57 47.5274 125.708 47.2494 125.802 46.9275C125.897 46.6057 125.94 46.2326 125.94 45.8156C125.94 44.9524 125.759 44.3087 125.395 43.8844C125.032 43.4601 124.56 43.2479 123.979 43.2479C123.398 43.2479 122.919 43.4601 122.556 43.8917C122.193 44.316 122.011 44.9597 122.011 45.8229C122.011 46.6861 122.193 47.3445 122.556 47.7834C122.919 48.215 123.377 48.4345 123.929 48.4345C124.132 48.4345 124.328 48.3979 124.517 48.3247C124.226 48.1199 123.929 47.9663 123.631 47.8566L124.03 47.0007C124.502 47.1689 124.945 47.425 125.374 47.7615" fill="#231815"/>
<path d="M131.918 49.5537V48.7417C131.729 49.0343 131.489 49.2538 131.184 49.422C130.879 49.5903 130.56 49.6707 130.218 49.6707C129.877 49.6707 129.565 49.5903 129.289 49.4293C129.02 49.2684 128.817 49.0489 128.693 48.7563C128.57 48.4637 128.512 48.0687 128.512 47.5566V44.1331H129.87V46.6129C129.87 47.3737 129.892 47.8419 129.942 48.0102C129.993 48.1784 130.08 48.3174 130.218 48.4198C130.349 48.5222 130.516 48.5734 130.719 48.5734C130.952 48.5734 131.162 48.5076 131.344 48.3759C131.526 48.2442 131.656 48.076 131.722 47.8785C131.787 47.681 131.823 47.1908 131.823 46.4227V44.1404H133.181V49.5464H131.925L131.918 49.5537Z" fill="#231815"/>
<path d="M135.658 45.7937L134.423 45.5596C134.561 45.0329 134.801 44.6526 135.135 44.3965C135.469 44.1478 135.977 44.0234 136.638 44.0234C137.241 44.0234 137.691 44.0966 137.989 44.2502C138.286 44.4038 138.49 44.594 138.613 44.8281C138.737 45.0622 138.795 45.4865 138.795 46.1083L138.773 47.7762C138.773 48.2517 138.795 48.6028 138.838 48.8296C138.882 49.0564 138.962 49.2978 139.085 49.5538H137.742C137.706 49.4587 137.662 49.3197 137.611 49.1295C137.589 49.0417 137.575 48.9905 137.56 48.9613C137.328 49.1953 137.081 49.3782 136.82 49.4953C136.558 49.6123 136.275 49.6708 135.977 49.6708C135.447 49.6708 135.033 49.5172 134.728 49.2173C134.423 48.9174 134.271 48.5297 134.271 48.0688C134.271 47.7615 134.336 47.4909 134.474 47.2495C134.612 47.0081 134.808 46.8252 135.055 46.7008C135.302 46.5692 135.665 46.4594 136.13 46.3643C136.761 46.24 137.204 46.1229 137.444 46.0132V45.8742C137.444 45.5962 137.379 45.3987 137.255 45.2817C137.125 45.1646 136.885 45.1061 136.529 45.1061C136.289 45.1061 136.101 45.1573 135.963 45.2597C135.825 45.3621 135.716 45.5377 135.636 45.7864M137.444 46.9422C137.27 47.0008 136.994 47.0739 136.616 47.1617C136.239 47.2495 135.992 47.3299 135.875 47.4104C135.694 47.5421 135.607 47.7103 135.607 47.9152C135.607 48.12 135.679 48.2883 135.817 48.4346C135.963 48.5809 136.137 48.654 136.362 48.654C136.609 48.654 136.841 48.5662 137.059 48.398C137.226 48.2663 137.328 48.1127 137.386 47.9225C137.422 47.7981 137.437 47.564 137.437 47.2202V46.9349L137.444 46.9422Z" fill="#231815"/>
<path d="M141.547 42.085H140.188V49.5466H141.547V42.085Z" fill="#231815"/>
<path d="M142.984 42.085H144.342V43.409H142.984V42.085ZM142.984 49.5466V44.1406H144.342V49.5466H142.984Z" fill="#231815"/>
<path d="M148.126 44.1478V45.289H147.197V47.4689C147.197 47.9152 147.204 48.1712 147.226 48.2371C147.24 48.3102 147.284 48.3687 147.349 48.4199C147.414 48.4711 147.487 48.4931 147.581 48.4931C147.705 48.4931 147.886 48.4492 148.126 48.3541L148.242 49.466C147.93 49.605 147.574 49.6782 147.175 49.6782C146.928 49.6782 146.71 49.6343 146.514 49.5465C146.318 49.4587 146.173 49.349 146.085 49.21C145.991 49.071 145.933 48.8881 145.897 48.654C145.868 48.4858 145.853 48.1493 145.853 47.6445V45.289H145.229V44.1478H145.853V43.0725L147.211 42.2312V44.1478H148.141H148.126Z" fill="#231815"/>
<path d="M148.482 44.1477H149.928L151.148 47.9882L152.346 44.1477H153.747L151.946 49.3562L151.62 50.2925C151.503 50.6071 151.387 50.8485 151.278 51.0168C151.169 51.185 151.046 51.3167 150.908 51.4191C150.77 51.5215 150.596 51.602 150.392 51.6605C150.189 51.719 149.957 51.7483 149.702 51.7483C149.448 51.7483 149.187 51.719 148.933 51.6605L148.809 50.5413C149.02 50.5852 149.216 50.6071 149.383 50.6071C149.695 50.6071 149.935 50.512 150.08 50.3145C150.233 50.117 150.349 49.8683 150.429 49.5683L148.482 44.1477Z" fill="#231815"/>
<path d="M0 30C0 46.5399 13.3624 60 29.7821 60C46.2019 60 59.5643 46.5399 59.5643 30C59.5643 13.4601 46.2019 0 29.7821 0C13.3624 0 0 13.4601 0 30ZM0.784314 30C0.784314 13.899 13.7981 0.790051 29.7821 0.790051C45.7662 0.790051 58.7727 13.8917 58.7727 30C58.7727 46.1083 45.7662 59.2026 29.7821 59.2026C13.7981 59.2026 0.784314 46.1083 0.784314 30Z" fill="#009C43"/>
<path d="M41.9757 21.0096C41.5618 20.439 40.7412 19.2393 39.2306 17.8713C38.2357 16.9642 36.9068 16.0498 35.6286 15.3622C32.7383 13.7894 29.5284 13.6724 27.9162 13.804C25.9917 13.9577 24.2488 14.4917 22.5059 15.4573C21.1624 16.2034 19.5574 17.3593 18.7513 18.4273C16.9503 20.8194 16.0716 22.48 16.3548 24.5941C16.471 25.4719 17.4224 26.2985 18.5335 26.8545C19.1725 27.1691 19.8552 27.447 20.3999 27.6372C21.5908 28.0688 22.0919 28.1127 22.9126 28.3029C23.7259 28.4931 24.9895 28.6467 25.0041 29.0857C25.0259 29.5246 23.3265 30.0147 22.0484 30.3878C20.6105 30.8048 19.3614 31.2437 19.3614 31.2437C19.3614 31.2437 16.4565 31.8508 15.9772 33.6504C15.2292 36.4448 18.1123 39.0125 18.1123 39.0125L12.4986 43.1091C9.60828 39.349 7.87988 34.6233 7.87988 29.4953C7.87988 17.213 17.7564 7.26416 29.9496 7.26416C37.3715 7.26416 43.9293 10.9511 47.938 16.6058L41.9757 21.0169V21.0096Z" fill="#FFE100"/>
<path d="M18.5553 39.5319C20.0731 41.2583 22.1283 41.0023 22.7746 40.717C23.8059 40.2634 24.7064 38.6541 25.9772 37.4178C29.4849 33.9942 32.4624 32.9189 32.4624 32.9189C35.4398 31.6606 37.7928 31.6753 38.4464 31.6168C40.8429 31.3315 42.0266 31.112 42.6947 30.7462C43.4791 30.3146 43.6897 30.0659 43.9729 29.5319C44.169 29.1661 44.2125 28.6614 44.2416 28.2517C44.2852 27.6299 44.2125 27.1764 44.1617 26.4595C44.0382 24.638 42.3897 21.7338 42.3897 21.7338L48.3592 17.2642C50.6395 20.7462 51.983 24.916 52.0048 29.4002C52.0629 41.6753 42.2227 51.6753 30.0368 51.7338C23.1813 51.7704 17.0448 48.6541 12.9707 43.7309L18.5626 39.5392L18.5553 39.5319Z" fill="#009944"/>
<path d="M8.82392 41.7556L10.9663 44.6744L7.96698 46.9129L7.74186 46.613L7.84353 46.5252L6.15144 44.2135L6.03525 44.2867L5.81738 43.9868L8.81666 41.7556H8.82392ZM8.77308 42.2531L6.4274 44.0014L8.13401 46.3204L10.4797 44.572L10.1311 44.0965L10.0657 44.5208L9.85515 44.4769L10.0367 44.7329L9.79705 44.9085L9.26691 44.1843C9.01273 44.3891 8.78035 44.6159 8.56974 44.8719L8.51891 44.967C8.72951 44.9524 8.96916 44.8939 9.2306 44.7841L9.24512 44.8061L9.34679 45.1353C9.34679 45.1353 9.29596 45.1719 9.17976 45.1645C8.89654 45.2596 8.61332 45.3035 8.3083 45.2962C8.26473 45.384 8.24295 45.4718 8.24295 45.5596C8.24295 45.6547 8.37366 45.6547 8.62058 45.5742V45.5888L8.59153 45.94C8.43902 45.9692 8.27926 45.9839 8.11223 45.9912C8.0396 45.9912 7.97425 45.9765 7.91615 45.9326L7.89436 45.9107C7.81448 45.7717 7.83626 45.5522 7.95972 45.2596L7.33518 45.0329L7.3497 44.711C7.55304 44.8207 7.78543 44.8939 8.03234 44.9524L8.11223 44.967C8.30104 44.6378 8.62058 44.2867 9.07083 43.9356L8.25747 42.8383L8.49712 42.6627L9.30322 43.7673L9.64454 43.5186L9.65907 43.5332L9.79705 43.8624C9.79705 43.899 9.73895 43.9209 9.64454 43.9136L9.4993 44.0234L9.78979 44.4184C9.78979 44.4184 9.83336 44.2648 9.85515 44.038L10.1093 44.0819L8.78035 42.2677L8.77308 42.2531ZM7.93793 44.5574L7.95972 44.5866L7.72733 44.7622L6.90671 44.0892C6.76873 44.0746 6.76146 44.0234 6.89218 43.9136L7.04469 43.7307L7.71281 44.3745L7.93793 44.5501V44.5574ZM8.13401 43.065L8.76582 43.9209L8.05413 44.455L7.42232 43.5918L8.13401 43.065ZM8.0977 43.4747L7.81448 43.6869L8.08318 44.0526L8.3664 43.8405L8.0977 43.4747Z" fill="#231815"/>
<path d="M15.3663 49.8097L17.4142 51.1338L17.2254 51.4264L16.3612 50.8631L16.2305 50.8924C16.2668 51.0533 16.2813 51.2435 16.274 51.463L16.2523 51.6166C16.3321 51.6312 16.6081 51.6312 17.0801 51.5947L17.2036 51.58L17.2835 52.0189V52.0482C17.1963 52.0043 17.1019 51.9897 16.9857 52.0043L16.2305 51.9604C16.2668 52.553 16.4483 53.0943 16.7679 53.5917L16.2886 53.6576C16.0925 53.3284 15.9618 52.9114 15.9109 52.4067C15.802 52.5749 15.6495 52.7432 15.4607 52.9041C15.3082 53.065 15.0395 53.0138 14.6473 52.7578C14.7127 52.6407 14.7635 52.4944 14.7998 52.3335L15.0685 52.5237C15.1992 52.6407 15.3881 52.5091 15.6204 52.1287C15.1629 52.2238 14.5311 52.1872 13.725 52.0189L13.6016 51.5873C14.0373 51.7263 14.5529 51.8141 15.1339 51.858C15.2355 51.858 15.4534 51.8507 15.7947 51.8068L15.8819 51.5142V51.4996C15.3881 51.58 14.7998 51.5361 14.1172 51.3752L14.0082 50.9655C14.3641 51.0826 14.8071 51.1777 15.359 51.2362L15.8964 51.2143L15.8528 50.9143C15.4679 50.9143 15.0322 50.8631 14.5384 50.7461L14.4222 50.3291C14.7998 50.4535 15.2355 50.5486 15.7149 50.6071H15.9545L15.1775 50.1023L15.3663 49.8097ZM16.7533 49.5098L17.1237 49.7951C17.16 49.8244 17.1237 49.8536 16.993 49.8902L16.8913 50.0511L18.2929 50.9582L17.77 51.7702L17.4505 51.5581L17.7846 51.0314L15.3227 49.444L14.9886 49.9707L14.6618 49.7585L15.1775 48.9392L16.5427 49.817L16.7606 49.4952L16.7533 49.5098Z" fill="#231815"/>
<path d="M23.7617 54.8865L25.3085 55.1865L24.9672 57.0007L24.6041 56.9275L24.6477 56.6422L23.8416 56.4886L23.7762 56.7666L23.4131 56.7007L23.7544 54.8865H23.7617ZM24.0594 55.2889L23.8924 56.1521L24.7203 56.313L24.8873 55.4498L24.0594 55.2889ZM24.7493 53.1528L26.9643 53.5771L26.6593 55.2011L26.2816 55.128L26.3107 54.9085L24.8728 54.6305L24.8219 54.8427L24.4443 54.7695L24.7493 53.1455V53.1528ZM25.0616 53.5771L24.9309 54.2867L26.3906 54.5647L26.5286 53.8624L25.0689 53.5844L25.0616 53.5771ZM25.7007 55.2596L27.2475 55.5596L26.9062 57.3737L26.5431 57.3006L26.5867 57.0226L25.7806 56.869L25.7225 57.147L25.3593 57.0738L25.7079 55.2596H25.7007ZM25.9984 55.662L25.8314 56.5252L26.6593 56.6861L26.8263 55.8229L25.9984 55.6693V55.662Z" fill="#231815"/>
<path d="M35.1051 53.2114H35.1414L35.4319 53.4163C35.4682 53.4821 35.4174 53.5114 35.2721 53.4967L34.2191 53.8113L34.2409 53.9942L35.5045 53.7235L35.5699 54.0234L35.0615 54.1332L35.1705 54.6599L34.8073 54.7403L34.6984 54.2136L34.2627 54.3087C34.2627 54.4843 34.1973 54.7038 34.0521 54.9744L33.7471 54.8135C33.9504 54.5648 33.9722 54.1698 33.8197 53.6431L34.771 53.3578L35.1051 53.2188V53.2114ZM34.4805 54.9525L37.0804 54.4038L37.458 56.2034L36.8335 56.3351C37.0659 56.4009 37.4217 56.4229 37.9083 56.4082L37.6977 56.7594C37.4362 56.7447 37.1312 56.7082 36.7899 56.635L36.5575 56.5692L36.6665 56.3717L35.6425 56.5984L35.8894 56.7374C35.8894 56.7374 35.8894 56.8106 35.8023 56.8471L34.9235 57.3007L34.771 57.3665L34.4225 57.1471C34.6984 57.0593 35.0397 56.8837 35.4464 56.6423L34.8582 56.7594L34.4805 54.9598V54.9525ZM34.9163 55.15L34.9671 55.3768L36.8117 54.9818L36.7681 54.755L34.9235 55.15H34.9163ZM36.8916 52.8311H36.9352L37.2329 53.0359C37.2692 53.1017 37.2184 53.1237 37.0731 53.1164L36.0274 53.4236L36.0564 53.6138L37.3636 53.3358L37.429 53.6357L36.9206 53.7455L37.0296 54.2795L36.6665 54.3526L36.5575 53.8259L36.0782 53.9283C36.071 54.0893 36.0201 54.2649 35.9475 54.4477L35.8821 54.5794L35.5699 54.4185C35.766 54.1771 35.7805 53.7894 35.628 53.2553L36.6301 52.9554L36.8988 52.8457L36.8916 52.8311ZM35.0179 55.6255L35.0688 55.8742L36.9134 55.4792L36.8625 55.2305L35.0179 55.6255ZM35.1196 56.1229L35.1777 56.3863L37.0223 55.9913L36.9642 55.7279L35.1196 56.1229Z" fill="#231815"/>
<path d="M42.7959 50.1098L43.1517 49.8976C43.1881 49.8757 43.2098 49.9196 43.2098 50.044L43.6093 50.578L43.907 50.3585L44.1176 50.6438L43.8199 50.8706L43.8852 50.9584C44.1031 51.0827 44.3863 51.1705 44.7276 51.2217L44.6841 51.5875L44.2265 51.4192L45.4539 53.0725L45.1634 53.2919L44.074 51.8289L44.2629 52.597L43.8416 52.6263C43.8489 52.2532 43.7472 51.7484 43.5366 51.112L43.5221 51.0974L43.1082 51.4119L42.8976 51.1266L43.3043 50.8194L42.7959 50.1171V50.1098ZM43.5584 49.744L45.541 48.2517L45.7371 48.5077L45.1271 48.9759L45.2868 49.1881L45.8097 48.793L46.3979 49.5831L44.6114 50.9291L44.0232 50.1391L44.5388 49.7513L44.3791 49.5392L43.7618 50.0074L43.5729 49.744H43.5584ZM44.6187 49.349L44.7785 49.5611L45.0181 49.3783L44.8584 49.1661L44.6187 49.349ZM44.4735 50.1683L44.7058 50.4756L44.9382 50.3L44.7131 49.9927L44.4807 50.1683H44.4735ZM44.96 49.8026L45.1852 50.1098L45.4248 49.9269L45.1997 49.627L44.96 49.8099V49.8026ZM44.8656 51.0023L46.3761 49.8538L46.5577 50.1025L45.0399 51.2437L44.8584 50.9949L44.8656 51.0023ZM45.4539 49.4295L45.679 49.7367L45.9186 49.5538L45.6935 49.2466L45.4539 49.4222V49.4295ZM44.8801 51.646L46.9426 50.0878L47.1459 50.3585L46.2745 51.0169L46.6666 51.5436C46.8772 51.8143 46.8046 52.0703 46.4415 52.3117L46.3907 52.3629L46.0493 52.1581L46.3326 51.9313C46.4342 51.8655 46.318 51.6314 45.9767 51.2437L45.0835 51.924L44.8801 51.6533V51.646ZM45.541 51.7338H45.9041C45.9404 51.7338 45.9404 51.7777 45.8896 51.8874C45.8896 52.0118 45.846 52.2312 45.7516 52.5458L45.7153 52.6263L45.3304 52.5824C45.4611 52.3336 45.5337 52.0849 45.5483 51.8143V51.7338H45.541ZM46.7247 50.8706C46.9716 50.9291 47.2621 50.9364 47.6107 50.8706L47.5671 51.2656C47.4727 51.2949 47.1895 51.2583 46.7029 51.1486L46.6884 51.1266L46.7175 50.8706H46.7247Z" fill="#231815"/>
<path d="M50.3489 42.3042L50.6249 41.9677C50.6249 41.9677 50.683 41.9677 50.7266 42.0848L50.821 42.1506L51.6271 40.9216L51.874 41.0826L51.5036 41.6532L51.765 42.0628L52.3751 41.1338L52.6438 41.3167L50.545 44.5134L50.2763 44.3379L50.9081 43.3723L50.4724 43.2333L50.0584 43.8697L49.8115 43.7014L50.6104 42.4798L50.3562 42.3042H50.3489ZM50.683 42.8968L51.1187 43.0358L51.5399 42.3993L51.2857 41.9823L50.6903 42.8894L50.683 42.8968ZM51.0098 44.1184L52.4913 41.8507L53.5515 42.5529L52.9125 43.5259L53.1231 43.6649L54.0381 42.2676L54.2995 42.4432L53.3845 43.8404L53.8202 44.133L53.6096 44.4549L53.1739 44.1696L52.2226 45.6254L51.9611 45.4498L52.9125 44.0014L52.7019 43.8624L52.0628 44.8353L51.0025 44.133L51.0098 44.1184ZM51.4673 43.9575L51.6416 44.0745L52.7019 42.4578L52.5276 42.3481L51.4673 43.9648V43.9575ZM51.8595 44.2208L52.0337 44.3379L53.094 42.7212L52.9197 42.6041L51.8595 44.2208Z" fill="#231815"/>
<path d="M4.84406 34.4915L4.71334 33.8551C4.90942 33.7966 5.0474 33.7015 5.12002 33.5771C5.19991 33.4454 5.22895 33.2845 5.20717 33.0797C5.18538 32.8675 5.12728 32.7139 5.03288 32.6115C4.93847 32.5164 4.8368 32.4725 4.72786 32.4871C4.66251 32.4871 4.60441 32.5237 4.55357 32.5749C4.51 32.6261 4.47369 32.7066 4.4519 32.8236C4.43738 32.9041 4.40833 33.087 4.37928 33.365C4.33571 33.7307 4.26309 33.9868 4.16868 34.1404C4.0307 34.3598 3.84188 34.4769 3.60949 34.5061C3.45699 34.5208 3.31174 34.4915 3.17376 34.411C3.02852 34.3306 2.91959 34.2062 2.82518 34.038C2.73803 33.8697 2.67993 33.6576 2.65089 33.4089C2.60731 32.9992 2.65089 32.6773 2.79613 32.4579C2.93411 32.2311 3.14471 32.0994 3.41341 32.0628L3.50782 32.7212C3.36258 32.7651 3.25364 32.8383 3.20281 32.9334C3.14471 33.0358 3.13019 33.1748 3.14471 33.365C3.1665 33.5552 3.21733 33.7015 3.29722 33.8039C3.34805 33.8697 3.41341 33.8917 3.4933 33.8917C3.55866 33.8843 3.61675 33.8478 3.66033 33.7746C3.71116 33.6868 3.75473 33.4747 3.79104 33.1528C3.82736 32.8236 3.87093 32.5822 3.92903 32.4213C3.98712 32.2604 4.07427 32.1287 4.19046 32.0263C4.30666 31.9238 4.45916 31.8653 4.64798 31.8434C4.82227 31.8214 4.98204 31.858 5.14907 31.9458C5.30884 32.0336 5.43229 32.1653 5.5267 32.3481C5.62111 32.531 5.67921 32.7651 5.70826 33.0504C5.75183 33.4601 5.70099 33.7892 5.54849 34.0307C5.39598 34.2721 5.16359 34.433 4.82953 34.5135" fill="#231815"/>
<path d="M3.33343 30.5778L3.35522 29.9121L4.90932 29.4001L3.39879 28.7856L3.42784 28.1345L5.46125 29.0489L5.83888 29.2245C5.96234 29.283 6.05675 29.3415 6.1221 29.3928C6.18746 29.444 6.2383 29.5025 6.27461 29.5683C6.31092 29.6342 6.33997 29.7146 6.36176 29.8097C6.37628 29.9048 6.3908 30.0146 6.38354 30.1316C6.38354 30.2486 6.36176 30.373 6.33997 30.4827L5.88972 30.5193C5.9115 30.4242 5.92603 30.3364 5.92603 30.256C5.92603 30.1097 5.89698 29.9999 5.81709 29.9268C5.73721 29.8536 5.6428 29.7951 5.51935 29.7585L3.32617 30.5705L3.33343 30.5778Z" fill="#231815"/>
<path d="M3.56543 26.6056L3.68162 26.0423L3.97211 26.1009C3.78329 25.8521 3.71794 25.5815 3.78329 25.3035C3.81234 25.1572 3.87044 25.0328 3.95032 24.9304C4.03021 24.8353 4.13188 24.7622 4.25534 24.7183C4.16093 24.5939 4.10283 24.4622 4.07378 24.3306C4.04473 24.1989 4.03747 24.0672 4.07378 23.9355C4.11009 23.76 4.16819 23.6283 4.2626 23.5186C4.34974 23.4162 4.45868 23.343 4.59666 23.3137C4.69833 23.2918 4.84357 23.2991 5.04691 23.343L6.40494 23.6283L6.27422 24.2428L5.06144 23.9867C4.85083 23.9429 4.70559 23.9355 4.64023 23.9648C4.55308 24.0014 4.49499 24.0818 4.46594 24.1989C4.44415 24.2867 4.45141 24.3745 4.48772 24.4549C4.51677 24.5427 4.58213 24.6085 4.66202 24.6671C4.74916 24.7183 4.88714 24.7695 5.09048 24.8061L6.10719 25.0182L5.98373 25.6327L4.82178 25.384C4.61844 25.3401 4.48046 25.3254 4.4151 25.3328C4.34974 25.3401 4.29891 25.3693 4.2626 25.4059C4.22629 25.4425 4.19724 25.5083 4.18271 25.5815C4.16093 25.6766 4.16819 25.7644 4.19724 25.8521C4.22629 25.9399 4.28438 26.0058 4.36427 26.057C4.44415 26.1082 4.58939 26.1521 4.79274 26.196L5.82396 26.4081L5.70051 27.0226L3.59448 26.5764L3.56543 26.6056Z" fill="#231815"/>
<path d="M6.8411 22.297L4.07422 21.1924L4.30661 20.6072L5.29426 21.0022C5.17807 20.7462 5.17081 20.4902 5.27248 20.2414C5.38141 19.9708 5.5557 19.7806 5.80988 19.6782C6.05679 19.5684 6.34728 19.5904 6.68134 19.7221C7.02992 19.861 7.25505 20.0586 7.37124 20.3073C7.48744 20.5633 7.48744 20.8194 7.38577 21.0754C7.33493 21.1997 7.25505 21.3168 7.14611 21.4119C7.03718 21.5143 6.90646 21.5801 6.76122 21.624L7.05171 21.7411L6.8411 22.2897V22.297ZM6.02774 21.3022C6.23834 21.3899 6.41264 21.4119 6.54335 21.3826C6.72491 21.3387 6.85563 21.229 6.92099 21.0608C6.97182 20.9291 6.96456 20.7974 6.8992 20.6657C6.83384 20.5341 6.6886 20.4243 6.47073 20.3365C6.23108 20.2414 6.04953 20.2195 5.90428 20.2707C5.7663 20.3219 5.66463 20.417 5.6138 20.5633C5.5557 20.7096 5.56296 20.8413 5.62832 20.9803C5.69368 21.1193 5.8244 21.2217 6.02774 21.3095" fill="#231815"/>
<path d="M7.24785 18.5295C7.08082 18.4344 6.9501 18.2954 6.84843 18.1199C6.74676 17.937 6.69592 17.7468 6.71045 17.5346C6.72497 17.3225 6.79033 17.1177 6.89927 16.9128C7.08082 16.6056 7.32047 16.4008 7.61822 16.3057C7.91597 16.2106 8.20645 16.2471 8.48968 16.4154C8.7729 16.5836 8.95446 16.8177 9.01982 17.1323C9.09244 17.4395 9.0416 17.7468 8.86005 18.054C8.75112 18.2442 8.61314 18.3978 8.43158 18.5295C8.25729 18.6539 8.06847 18.7197 7.86513 18.7197C7.66179 18.7197 7.45119 18.6612 7.24059 18.5295M7.58917 17.9882C7.77799 18.0979 7.94502 18.1345 8.10478 18.0979C8.26455 18.0613 8.38075 17.9662 8.46063 17.8272C8.54051 17.6883 8.5623 17.5346 8.51873 17.381C8.47515 17.2274 8.3517 17.0884 8.16288 16.9787C7.97407 16.8689 7.80704 16.8397 7.64727 16.8763C7.49476 16.9128 7.37131 17.0079 7.29142 17.1469C7.21154 17.2932 7.18975 17.4395 7.23332 17.5932C7.2769 17.7468 7.39309 17.8858 7.58191 17.9882" fill="#231815"/>
<path d="M10.1959 15.8815L7.80664 14.0892L8.18427 13.5845L10.5663 15.3767L10.1959 15.8815Z" fill="#231815"/>
<path d="M13.7477 10.4243C13.6315 10.2707 13.5662 10.0878 13.5371 9.88295C13.5154 9.67812 13.5444 9.48061 13.6388 9.29041C13.7332 9.10022 13.8712 8.93196 14.06 8.79297C14.3505 8.58083 14.6483 8.48573 14.9533 8.52231C15.2655 8.55888 15.5197 8.70519 15.7158 8.96854C15.9119 9.23189 15.9845 9.5245 15.9264 9.83906C15.8683 10.1536 15.7013 10.4097 15.418 10.6218C15.2437 10.7535 15.0549 10.8413 14.8443 10.8851C14.6337 10.929 14.4304 10.9144 14.2488 10.8339C14.0673 10.7535 13.893 10.6145 13.7477 10.417M14.2779 10.0512C14.4086 10.2268 14.5538 10.3219 14.7136 10.3511C14.8734 10.3804 15.0186 10.3438 15.1493 10.2414C15.2801 10.1463 15.3599 10.0146 15.3745 9.85369C15.3963 9.69275 15.3382 9.5245 15.2074 9.34894C15.0767 9.17337 14.9387 9.07095 14.779 9.04901C14.6192 9.01975 14.474 9.05632 14.3432 9.15874C14.2125 9.26115 14.1399 9.38551 14.1181 9.54645C14.0963 9.70739 14.1544 9.87564 14.2851 10.0512" fill="#231815"/>
<path d="M16.1943 7.41028L16.4921 7.24203L16.4122 7.09572C16.3178 6.93478 16.2742 6.80311 16.267 6.70801C16.267 6.6056 16.2887 6.50318 16.3614 6.40077C16.434 6.29104 16.5429 6.19594 16.6954 6.10816C16.8552 6.02037 17.015 5.95454 17.1893 5.91064L17.32 6.29835C17.2183 6.32762 17.1312 6.37151 17.044 6.4154C16.9641 6.45929 16.9206 6.5105 16.8988 6.56902C16.8842 6.62754 16.8988 6.7007 16.9569 6.80311L17.0295 6.9421L17.4362 6.70801L17.6613 7.10304L17.2546 7.33713L18.097 8.82213L17.5596 9.12937L16.7172 7.64437L16.4195 7.81993L16.1943 7.42491V7.41028Z" fill="#231815"/>
<path d="M23.5371 6.54726L22.9053 3.62115L23.5298 3.48216L25.2727 5.16467L24.8515 3.19686L25.447 3.06519L26.0716 5.9913L25.4325 6.13029L23.7114 4.49167L24.1326 6.41559L23.5371 6.54726Z" fill="#231815"/>
<path d="M27.9302 4.27204L27.3564 4.21352C27.4073 4.00138 27.509 3.84044 27.6542 3.7234C27.8067 3.61367 28.0318 3.54783 28.3368 3.52589C28.6201 3.51125 28.8234 3.52588 28.9686 3.57709C29.1066 3.6283 29.2083 3.70145 29.2737 3.78924C29.3318 3.87702 29.3753 4.05259 29.3899 4.30131L29.4262 4.97431C29.4407 5.16451 29.4552 5.31082 29.4843 5.3986C29.5133 5.48638 29.5569 5.58148 29.615 5.6839L28.9904 5.72779C28.9904 5.72779 28.9469 5.64 28.9178 5.56685C28.9105 5.53027 28.896 5.50833 28.896 5.50101C28.7944 5.60343 28.6854 5.6839 28.5692 5.74242C28.453 5.79362 28.3223 5.8302 28.1843 5.83752C27.9447 5.85215 27.7486 5.80826 27.6034 5.69121C27.4581 5.58148 27.3782 5.42786 27.3637 5.23766C27.3564 5.1133 27.3782 5.00357 27.4363 4.90116C27.4944 4.79875 27.5816 4.71828 27.6905 4.65975C27.7994 4.60123 27.9665 4.55003 28.1771 4.4915C28.4676 4.41835 28.6636 4.35983 28.7726 4.30862V4.2501C28.7653 4.14037 28.729 4.0599 28.6636 4.02332C28.6055 3.97943 28.4893 3.9648 28.3223 3.97212C28.2134 3.97212 28.1262 4.00869 28.0681 4.04527C28.0028 4.08916 27.9592 4.16232 27.9302 4.27204ZM28.8016 4.6817C28.7217 4.71096 28.5983 4.74754 28.424 4.79875C28.2497 4.84264 28.1408 4.88653 28.0899 4.92311C28.01 4.98163 27.9737 5.05478 27.981 5.13525C27.9883 5.21572 28.0246 5.28887 28.0899 5.34008C28.1625 5.3986 28.2424 5.42054 28.3441 5.42054C28.4603 5.41323 28.562 5.36934 28.6636 5.29618C28.7363 5.23766 28.7798 5.16451 28.8016 5.09136C28.8161 5.04015 28.8161 4.94505 28.8016 4.80606V4.68902V4.6817Z" fill="#231815"/>
<path d="M32.1203 3.60646L32.0985 4.06001L31.67 4.03806L31.6192 4.92321C31.6119 5.09878 31.6119 5.20851 31.6192 5.23777C31.6265 5.26703 31.641 5.29629 31.67 5.31092C31.6991 5.33287 31.7354 5.3475 31.779 5.3475C31.8371 5.3475 31.917 5.34018 32.0331 5.3036L32.0549 5.74984C31.9097 5.80104 31.7427 5.81568 31.5611 5.80836C31.4522 5.80836 31.3505 5.7791 31.2634 5.74252C31.1762 5.69863 31.1109 5.65474 31.0745 5.59622C31.0382 5.53769 31.0092 5.46454 31.0019 5.36944C30.9874 5.29629 30.9947 5.16461 31.0019 4.95979L31.0528 4.0088L30.7695 3.99417L30.7913 3.54062L31.0818 3.55525L31.1036 3.12365L31.7427 2.81641L31.7064 3.58451L32.1348 3.60646H32.1203Z" fill="#231815"/>
<path d="M33.2676 5.91801L33.5799 3.77463L34.1971 3.86242L33.8849 6.0058L33.2676 5.9107V5.91801ZM33.6234 3.48202L33.7033 2.95532L34.3206 3.04311L34.248 3.56981L33.6307 3.47471L33.6234 3.48202Z" fill="#231815"/>
<path d="M35.4978 5.15733C35.5487 4.97445 35.6431 4.8062 35.7883 4.65989C35.9336 4.51359 36.1078 4.41849 36.3185 4.38191C36.5291 4.33802 36.7397 4.34534 36.9648 4.41117C37.3134 4.50627 37.5675 4.68184 37.7273 4.95251C37.8943 5.22317 37.9307 5.50847 37.8508 5.83034C37.7636 6.1449 37.5821 6.3863 37.3061 6.53261C37.0229 6.67891 36.7179 6.70818 36.3838 6.62039C36.1732 6.56187 35.9844 6.46677 35.8174 6.32778C35.6503 6.18879 35.5414 6.02054 35.4906 5.83034C35.4325 5.63283 35.4397 5.41337 35.5051 5.17196M36.1151 5.36948C36.057 5.58162 36.0715 5.75719 36.1442 5.89618C36.224 6.04248 36.3402 6.13027 36.5 6.17416C36.6598 6.21805 36.805 6.1961 36.943 6.11564C37.081 6.03517 37.1827 5.88155 37.2335 5.6694C37.2916 5.45726 37.2771 5.28169 37.2044 5.1427C37.1318 5.00371 37.0084 4.90861 36.8559 4.86472C36.6961 4.82083 36.5508 4.84278 36.4129 4.92324C36.2749 5.00371 36.1732 5.15002 36.1224 5.36948" fill="#231815"/>
<path d="M40.7623 8.18572L40.1886 7.937L40.6316 6.92017C40.726 6.70803 40.7768 6.56172 40.7768 6.48857C40.7768 6.41542 40.7623 6.34958 40.7187 6.28374C40.6751 6.22522 40.6243 6.17401 40.5444 6.13744C40.4428 6.09354 40.3411 6.07891 40.2394 6.10086C40.1377 6.11549 40.0506 6.15938 39.9852 6.22522C39.9199 6.29837 39.84 6.44468 39.7383 6.66414L39.3462 7.57123L38.7725 7.3152L39.6367 5.32544L40.1741 5.55953L40.0506 5.85214C40.3411 5.70583 40.6316 5.69852 40.9148 5.82288C41.0455 5.8814 41.1472 5.95455 41.2343 6.03502C41.3215 6.12281 41.3796 6.21059 41.4014 6.30569C41.4304 6.39347 41.4304 6.48125 41.4159 6.57635C41.4014 6.66414 41.3578 6.7885 41.2924 6.94212L40.755 8.1784L40.7623 8.18572Z" fill="#231815"/>
<path d="M43.2243 7.82008L42.7885 7.447C42.9556 7.30069 43.1298 7.22754 43.3114 7.22754C43.493 7.22754 43.7181 7.30069 43.9795 7.46894C44.2192 7.61525 44.3789 7.74692 44.4661 7.8786C44.5532 8.00296 44.5895 8.12 44.5895 8.22973C44.5895 8.33946 44.5242 8.5004 44.3935 8.71254L44.0376 9.28313C43.9359 9.45139 43.8706 9.57575 43.8415 9.66353C43.8125 9.75131 43.7907 9.85373 43.7834 9.97077L43.2533 9.64158C43.2533 9.60501 43.2678 9.54649 43.2896 9.46602C43.2969 9.42944 43.3041 9.4075 43.3041 9.40018C43.1589 9.42944 43.0282 9.42944 42.8975 9.40018C42.7667 9.37823 42.6433 9.32703 42.5271 9.25387C42.3237 9.12951 42.193 8.97589 42.1349 8.80033C42.0841 8.62476 42.0986 8.45651 42.2003 8.29557C42.2656 8.18584 42.3528 8.11269 42.4545 8.06148C42.5561 8.01028 42.6723 7.99564 42.803 8.01027C42.9265 8.02491 43.0935 8.07611 43.2969 8.15658C43.5728 8.26631 43.7689 8.33946 43.8924 8.36141L43.9214 8.3102C43.9795 8.2151 43.994 8.13464 43.9723 8.06148C43.9432 7.98833 43.8633 7.90786 43.7181 7.82008C43.6237 7.76155 43.5365 7.73229 43.4639 7.73229C43.3913 7.73229 43.3114 7.76887 43.2243 7.83471M43.6963 8.67597C43.6164 8.65402 43.493 8.61744 43.3259 8.55161C43.1589 8.49308 43.0427 8.45651 42.9773 8.45651C42.8829 8.45651 42.8103 8.49308 42.7595 8.56624C42.7232 8.63207 42.7086 8.71254 42.7377 8.80033C42.7595 8.88811 42.8176 8.95395 42.9047 9.01247C42.9991 9.07099 43.1081 9.10025 43.2315 9.09294C43.3259 9.09294 43.3985 9.05636 43.4566 9.00515C43.5002 8.97589 43.551 8.89542 43.6237 8.77106L43.689 8.66865L43.6963 8.67597Z" fill="#231815"/>
<path d="M46.6653 8.37345L44.833 10.7375L45.3253 11.1247L47.1576 8.7606L46.6653 8.37345Z" fill="#231815"/>
<path d="M51.1688 17.147C51.1688 17.3445 51.2052 17.5347 51.2633 17.7322L50.7767 17.7761C50.7404 17.681 50.7186 17.5786 50.6968 17.4762C50.6968 17.4542 50.6823 17.286 50.6605 16.9641C50.4717 16.8324 50.3047 16.6642 50.1594 16.4447C49.8762 16.0277 49.76 15.6254 49.8253 15.2377C49.8907 14.85 50.1158 14.5135 50.5225 14.2355C50.9219 13.9575 51.3214 13.8551 51.7062 13.9356C52.0911 14.016 52.4252 14.2574 52.7012 14.6671C52.9771 15.0694 53.0788 15.4645 53.0207 15.8522C52.9626 16.2399 52.7302 16.5764 52.3308 16.8544C52.1202 17.0007 51.9096 17.0958 51.699 17.147C51.5392 17.1836 51.3722 17.1836 51.1834 17.1543M51.1471 16.5325C51.2705 16.5471 51.394 16.5325 51.532 16.5032C51.6627 16.4593 51.8007 16.3935 51.9386 16.2984C52.2219 16.1009 52.3889 15.8814 52.4397 15.6473C52.4833 15.4133 52.4397 15.1792 52.2872 14.9597C52.1347 14.7403 51.9386 14.6086 51.699 14.572C51.4666 14.5281 51.2052 14.6086 50.9147 14.8061C50.6242 15.0036 50.4572 15.2231 50.4063 15.4645C50.3555 15.7059 50.4063 15.9253 50.5443 16.1375C50.5951 16.2179 50.6605 16.2838 50.7331 16.335C50.7259 16.174 50.6968 16.0277 50.6532 15.8888L51.0454 15.8449C51.1108 16.0643 51.1471 16.2984 51.1471 16.5398" fill="#231815"/>
<path d="M52.3748 20.2998L52.6652 20.1609C52.5273 20.1316 52.3893 20.0658 52.2731 19.9707C52.1496 19.8756 52.0552 19.7512 51.9899 19.6049C51.9245 19.4586 51.8882 19.3196 51.8954 19.1733C51.8954 19.027 51.939 18.9099 52.0189 18.8075C52.0988 18.7051 52.2295 18.61 52.4111 18.5222L53.6529 17.937L53.9143 18.5076L53.0138 18.9319C52.7379 19.0636 52.5781 19.1513 52.5273 19.2026C52.4764 19.2538 52.4474 19.3123 52.4328 19.3854C52.4256 19.4586 52.4329 19.5391 52.4764 19.6268C52.5273 19.7219 52.5854 19.8024 52.6725 19.8536C52.7596 19.9048 52.8395 19.9341 52.9267 19.9268C53.0138 19.9268 53.1954 19.8536 53.4786 19.7219L54.2992 19.3269L54.5679 19.8975L52.6217 20.8192L52.3748 20.2852V20.2998Z" fill="#231815"/>
<path d="M54.7061 22.1946L54.6262 21.624C54.8441 21.624 55.0257 21.6825 55.1636 21.7996C55.3089 21.924 55.4251 22.1288 55.5122 22.4214C55.5921 22.6921 55.6284 22.8969 55.6066 23.0505C55.5921 23.1968 55.5485 23.3139 55.4686 23.3943C55.396 23.4748 55.2435 23.5553 55.0039 23.6284L54.3648 23.8186C54.1832 23.8771 54.0525 23.9283 53.9726 23.9722C53.8928 24.0161 53.8129 24.082 53.733 24.1624L53.5442 23.5626C53.5442 23.5626 53.6241 23.5041 53.6821 23.4602C53.7112 23.4382 53.733 23.4309 53.7402 23.4163C53.6168 23.3431 53.5151 23.2553 53.4352 23.1529C53.3554 23.0505 53.2973 22.9335 53.2537 22.8018C53.1811 22.5677 53.1811 22.3702 53.2537 22.1946C53.3263 22.0264 53.457 21.9093 53.6313 21.8581C53.7475 21.8215 53.8637 21.8215 53.9726 21.8581C54.0816 21.8947 54.1832 21.9532 54.2631 22.0556C54.343 22.1507 54.4374 22.297 54.5391 22.4945C54.6698 22.7652 54.7787 22.9408 54.8514 23.0432L54.9095 23.0286C55.0111 22.992 55.0765 22.9481 55.1055 22.8749C55.1346 22.8018 55.1201 22.6921 55.0692 22.5311C55.0329 22.4214 54.9966 22.3482 54.9385 22.297C54.8804 22.2531 54.8005 22.2239 54.6916 22.2166M54.4955 23.1602C54.4447 23.0944 54.3866 22.9774 54.2994 22.8237C54.2195 22.6628 54.1469 22.5677 54.1034 22.5238C54.0307 22.4653 53.9509 22.4433 53.871 22.4653C53.7911 22.4872 53.733 22.5384 53.6967 22.6189C53.6604 22.6994 53.6531 22.7872 53.6821 22.8896C53.7185 22.9993 53.7838 23.0944 53.8782 23.1675C53.9509 23.2261 54.0307 23.2553 54.1106 23.2553C54.1615 23.2553 54.2559 23.2407 54.3866 23.1968L54.4955 23.1602Z" fill="#231815"/>
<path d="M56.9307 24.8968L54.0059 25.4583L54.1228 26.0762L57.0476 25.5148L56.9307 24.8968Z" fill="#231815"/>
<path d="M54.3428 27.5641L56.4851 27.3446L56.5505 27.9664L54.4081 28.1859L54.3428 27.5568V27.5641ZM56.7756 27.308L57.2985 27.2568L57.3638 27.886L56.841 27.9372L56.7756 27.308Z" fill="#231815"/>
<path d="M56.6593 30.7681H56.209V30.3439H55.3303C55.1488 30.3585 55.0471 30.3585 55.018 30.3658C54.989 30.3731 54.9672 30.3951 54.9454 30.4243C54.9236 30.4536 54.9164 30.4902 54.9164 30.5341C54.9164 30.5926 54.9382 30.673 54.9745 30.7828L54.5315 30.834C54.4734 30.6877 54.4443 30.5267 54.4443 30.3439C54.4443 30.2268 54.4589 30.1317 54.4879 30.0439C54.5242 29.9488 54.5678 29.883 54.6186 29.8391C54.6767 29.7952 54.7493 29.7659 54.8438 29.7513C54.9091 29.7367 55.0471 29.7294 55.2504 29.7294H56.1945V29.4294H56.652V29.7147H57.0805L57.4218 30.3365H56.6593V30.7755V30.7681Z" fill="#231815"/>
<path d="M56.638 31.9972L56.5654 32.6555L54.9823 33.0579L56.4492 33.7748L56.3839 34.4258L54.4158 33.3724L54.0527 33.1749C53.9365 33.1091 53.8421 33.0433 53.784 32.992C53.7186 32.9335 53.6751 32.8677 53.6388 32.8019C53.6097 32.736 53.5807 32.6482 53.5734 32.5531C53.5589 32.458 53.5589 32.3483 53.5734 32.2313C53.5879 32.1142 53.6097 31.9972 53.6388 31.8801H54.089C54.06 31.9679 54.0382 32.0557 54.0309 32.1362C54.0164 32.2752 54.0454 32.3922 54.1181 32.4653C54.1907 32.5458 54.2851 32.6043 54.4013 32.6555L56.6453 31.9972H56.638Z" fill="#231815"/>
<path d="M55.9691 10.7023V7.85669H57.2181C57.4723 7.85669 57.6611 7.88595 57.7919 7.93716C57.9226 7.98837 58.0315 8.07615 58.1041 8.20782C58.184 8.3395 58.2203 8.47849 58.2203 8.63943C58.2203 8.84425 58.155 9.01251 58.0242 9.1515C57.8935 9.29049 57.6974 9.37827 57.4215 9.41485C57.5232 9.45874 57.5958 9.50995 57.6466 9.55384C57.7555 9.65625 57.8572 9.78061 57.9516 9.93423L58.4382 10.7097H57.9734L57.5958 10.1171C57.4868 9.94886 57.3997 9.81719 57.3271 9.72209C57.2545 9.6343 57.1964 9.56847 57.1383 9.53189C57.0802 9.49531 57.0221 9.47337 56.964 9.45874C56.9204 9.45142 56.855 9.44411 56.7534 9.44411H56.3176V10.7097H55.9473L55.9691 10.7023ZM56.3394 9.11492H57.1455C57.3126 9.11492 57.4505 9.09297 57.5449 9.06371C57.6466 9.02714 57.7192 8.96861 57.7701 8.88815C57.8136 8.80768 57.8427 8.72721 57.8427 8.63211C57.8427 8.49312 57.7991 8.39071 57.6974 8.29561C57.603 8.20782 57.4433 8.16393 57.2399 8.16393H56.3467V9.1076L56.3394 9.11492Z" fill="#009944"/>
<path d="M54.6045 9.29044C54.6045 10.6511 55.7083 11.763 57.0591 11.763C58.4099 11.763 59.5137 10.6511 59.5137 9.29044C59.5137 7.9298 58.4099 6.81787 57.0591 6.81787C55.7083 6.81787 54.6045 7.9298 54.6045 9.29044ZM54.9531 9.29044C54.9531 8.11999 55.8972 7.16901 57.0591 7.16901C58.221 7.16901 59.1651 8.11999 59.1651 9.29044C59.1651 10.4609 58.221 11.4119 57.0591 11.4119C55.8972 11.4119 54.9531 10.4609 54.9531 9.29044Z" fill="#009944"/>
<path d="M65.7952 27.0959L71.5468 26.8472C71.6267 28.4199 71.939 29.488 72.4836 30.0439C73.3624 30.9437 74.9818 31.39 77.3493 31.39C79.3173 31.39 80.7407 31.0827 81.6194 30.4755C82.4982 29.8611 82.9339 29.1149 82.9339 28.2444C82.9339 27.4909 82.578 26.8545 81.8518 26.3424C81.3507 25.962 79.9564 25.3402 77.6833 24.4843C75.4103 23.6211 73.7473 22.9115 72.7088 22.3409C71.663 21.763 70.8424 21.0242 70.2396 20.1098C69.6441 19.1954 69.3391 18.1273 69.3391 16.891C69.3391 14.7477 70.2324 12.9774 72.0189 11.5582C73.8053 10.1464 76.3907 9.43677 79.7821 9.43677C83.1735 9.43677 85.8823 10.139 87.7705 11.5363C89.6587 12.9408 90.6971 14.8062 90.886 17.1325L85.1343 17.3519C84.9891 16.1449 84.4807 15.2158 83.6093 14.5648C82.7451 13.9137 81.4524 13.5919 79.7531 13.5919C78.0537 13.5919 76.8845 13.8479 76.1728 14.3526C75.4539 14.8647 75.098 15.5085 75.098 16.2839C75.098 17.0081 75.4248 17.6079 76.0857 18.0834C76.732 18.5662 78.1844 19.2319 80.4212 20.0732C83.7981 21.3314 85.9404 22.3556 86.8627 23.1456C88.2353 24.3014 88.9252 25.7864 88.9252 27.6079C88.9252 29.8537 87.9012 31.763 85.8533 33.3578C83.8126 34.9452 80.9586 35.7425 77.313 35.7425C74.793 35.7425 72.6071 35.3768 70.7625 34.6379C68.9179 33.9137 67.618 32.8969 66.8555 31.5948C66.0929 30.2927 65.7371 28.8003 65.7952 27.1032" fill="#009944"/>
<path d="M111.467 35.2964H105.875L97.9737 18.2444L93.8633 35.2964H88.2715L94.4153 9.87573H100.007L107.93 26.8911L112.019 9.87573H117.611L111.467 35.2964Z" fill="#009944"/>
<path d="M121.888 25.2158C121.888 26.9642 122.505 28.4346 123.74 29.6123C124.974 30.7974 126.594 31.3826 128.605 31.3826C130.239 31.3826 131.808 30.9218 133.319 29.9854C134.822 29.0564 136.064 27.6372 137.051 25.7499C138.039 23.8552 138.526 22.0044 138.526 20.2122C138.526 18.2078 137.901 16.635 136.659 15.4938C135.417 14.3526 133.827 13.782 131.895 13.782C128.932 13.782 126.528 14.9744 124.669 17.3592C122.817 19.7513 121.888 22.3629 121.888 25.2085M115.911 25.3036C115.911 23.804 116.173 22.2239 116.695 20.5633C117.371 18.3322 118.417 16.3936 119.811 14.755C121.205 13.1164 122.97 11.8142 125.091 10.8632C127.218 9.91226 129.629 9.43677 132.353 9.43677C135.984 9.43677 138.918 10.417 141.154 12.3702C143.391 14.3234 144.51 16.913 144.51 20.139C144.51 22.8164 143.783 25.4134 142.324 27.9225C140.864 30.4316 138.889 32.3629 136.39 33.7089C133.892 35.0622 131.067 35.7425 127.908 35.7425C125.178 35.7425 122.876 35.2012 121.024 34.1259C119.165 33.0505 117.85 31.7191 117.073 30.1317C116.296 28.5443 115.911 26.9349 115.911 25.3183" fill="#009944"/>
<path d="M129.63 28.5442L132.121 22.9992L138.083 31.3605C138.083 31.3605 143.043 33.9794 145.926 27.5493C148.817 21.1191 149.114 20.4534 151.598 14.9085C154.082 9.36347 156.71 10.3437 157.059 11.8507C157.4 13.3649 160 15.5376 160 15.5376C160 15.5376 155.825 16.313 153.936 20.5266C152.041 24.7475 142.789 40.7973 140.008 38.4637C137.219 36.1301 129.63 28.5442 129.63 28.5442Z" fill="#E60012"/>
</g>
<defs>
<clipPath id="clip0_762_7138">
<rect width="160" height="60" fill="white"/>
</clipPath>
</defs>
</svg>
