<svg class="component-light-mode-solid-icon" width="24" height="25" viewBox="0 0 24 25" fill="none" xmlns="http://www.w3.org/2000/svg">
<mask id="mask0_76_4483" style="mask-type:alpha" maskUnits="userSpaceOnUse" x="0" y="0" width="24" height="25">
<rect y="0.5" width="24" height="24" fill="#D9D9D9"/>
</mask>
<g mask="url(#mask0_76_4483)">
<path class="component-light-mode-solid-icon__path" d="M12 17.5C10.6167 17.5 9.4375 17.0125 8.4625 16.0375C7.4875 15.0625 7 13.8833 7 12.5C7 11.1167 7.4875 9.9375 8.4625 8.9625C9.4375 7.9875 10.6167 7.5 12 7.5C13.3833 7.5 14.5625 7.9875 15.5375 8.9625C16.5125 9.9375 17 11.1167 17 12.5C17 13.8833 16.5125 15.0625 15.5375 16.0375C14.5625 17.0125 13.3833 17.5 12 17.5ZM2 13.5C1.71667 13.5 1.47917 13.4042 1.2875 13.2125C1.09583 13.0208 1 12.7833 1 12.5C1 12.2167 1.09583 11.9792 1.2875 11.7875C1.47917 11.5958 1.71667 11.5 2 11.5H4C4.28333 11.5 4.52083 11.5958 4.7125 11.7875C4.90417 11.9792 5 12.2167 5 12.5C5 12.7833 4.90417 13.0208 4.7125 13.2125C4.52083 13.4042 4.28333 13.5 4 13.5H2ZM20 13.5C19.7167 13.5 19.4792 13.4042 19.2875 13.2125C19.0958 13.0208 19 12.7833 19 12.5C19 12.2167 19.0958 11.9792 19.2875 11.7875C19.4792 11.5958 19.7167 11.5 20 11.5H22C22.2833 11.5 22.5208 11.5958 22.7125 11.7875C22.9042 11.9792 23 12.2167 23 12.5C23 12.7833 22.9042 13.0208 22.7125 13.2125C22.5208 13.4042 22.2833 13.5 22 13.5H20ZM12 5.5C11.7167 5.5 11.4792 5.40417 11.2875 5.2125C11.0958 5.02083 11 4.78333 11 4.5V2.5C11 2.21667 11.0958 1.97917 11.2875 1.7875C11.4792 1.59583 11.7167 1.5 12 1.5C12.2833 1.5 12.5208 1.59583 12.7125 1.7875C12.9042 1.97917 13 2.21667 13 2.5V4.5C13 4.78333 12.9042 5.02083 12.7125 5.2125C12.5208 5.40417 12.2833 5.5 12 5.5ZM12 23.5C11.7167 23.5 11.4792 23.4042 11.2875 23.2125C11.0958 23.0208 11 22.7833 11 22.5V20.5C11 20.2167 11.0958 19.9792 11.2875 19.7875C11.4792 19.5958 11.7167 19.5 12 19.5C12.2833 19.5 12.5208 19.5958 12.7125 19.7875C12.9042 19.9792 13 20.2167 13 20.5V22.5C13 22.7833 12.9042 23.0208 12.7125 23.2125C12.5208 23.4042 12.2833 23.5 12 23.5ZM5.65 7.55L4.575 6.5C4.375 6.31667 4.27917 6.08333 4.2875 5.8C4.29583 5.51667 4.39167 5.275 4.575 5.075C4.775 4.875 5.01667 4.775 5.3 4.775C5.58333 4.775 5.81667 4.875 6 5.075L7.05 6.15C7.23333 6.35 7.325 6.58333 7.325 6.85C7.325 7.11667 7.23333 7.35 7.05 7.55C6.86667 7.75 6.6375 7.84583 6.3625 7.8375C6.0875 7.82917 5.85 7.73333 5.65 7.55ZM18 19.925L16.95 18.85C16.7667 18.65 16.675 18.4125 16.675 18.1375C16.675 17.8625 16.7667 17.6333 16.95 17.45C17.1333 17.25 17.3625 17.1542 17.6375 17.1625C17.9125 17.1708 18.15 17.2667 18.35 17.45L19.425 18.5C19.625 18.6833 19.7208 18.9167 19.7125 19.2C19.7042 19.4833 19.6083 19.725 19.425 19.925C19.225 20.125 18.9833 20.225 18.7 20.225C18.4167 20.225 18.1833 20.125 18 19.925ZM16.95 7.55C16.75 7.36667 16.6542 7.1375 16.6625 6.8625C16.6708 6.5875 16.7667 6.35 16.95 6.15L18 5.075C18.1833 4.875 18.4167 4.77917 18.7 4.7875C18.9833 4.79583 19.225 4.89167 19.425 5.075C19.625 5.275 19.725 5.51667 19.725 5.8C19.725 6.08333 19.625 6.31667 19.425 6.5L18.35 7.55C18.15 7.73333 17.9167 7.825 17.65 7.825C17.3833 7.825 17.15 7.73333 16.95 7.55ZM4.575 19.925C4.375 19.725 4.275 19.4833 4.275 19.2C4.275 18.9167 4.375 18.6833 4.575 18.5L5.65 17.45C5.85 17.2667 6.0875 17.175 6.3625 17.175C6.6375 17.175 6.86667 17.2667 7.05 17.45C7.25 17.6333 7.34583 17.8625 7.3375 18.1375C7.32917 18.4125 7.23333 18.65 7.05 18.85L6 19.925C5.81667 20.125 5.58333 20.2208 5.3 20.2125C5.01667 20.2042 4.775 20.1083 4.575 19.925Z" fill="black"/>
</g>
</svg>
