<svg class="component-diversity-one-solid-icon" width="24" height="25" viewBox="0 0 24 25" fill="none" xmlns="http://www.w3.org/2000/svg">
<mask id="mask0_67_2084" style="mask-type:alpha" maskUnits="userSpaceOnUse" x="0" y="0" width="24" height="25">
<rect y="0.5" width="24" height="24" fill="#D9D9D9"/>
</mask>
<g mask="url(#mask0_67_2084)">
<path class="component-diversity-one-solid-icon__path" d="M0.95 13.8C0.65 13.2 0.416667 12.5917 0.25 11.975C0.0833333 11.3583 0 10.7333 0 10.1C0 8.23333 0.633333 6.66667 1.9 5.4C3.16667 4.13333 4.73333 3.5 6.6 3.5C7.65 3.5 8.65 3.72083 9.6 4.1625C10.55 4.60417 11.35 5.21667 12 6C12.65 5.21667 13.45 4.60417 14.4 4.1625C15.35 3.72083 16.35 3.5 17.4 3.5C19.2667 3.5 20.8333 4.13333 22.1 5.4C23.3667 6.66667 24 8.23333 24 10.1C24 10.7333 23.9167 11.3583 23.75 11.975C23.5833 12.5917 23.35 13.2 23.05 13.8C22.8667 13.4833 22.65 13.2 22.4 12.95C22.15 12.7 21.8583 12.5 21.525 12.35C21.675 11.9667 21.7917 11.5917 21.875 11.225C21.9583 10.8583 22 10.4833 22 10.1C22 8.8 21.5583 7.70833 20.675 6.825C19.7917 5.94167 18.7 5.5 17.4 5.5C16.05 5.5 15.0125 5.87083 14.2875 6.6125C13.5625 7.35417 12.8 8.18333 12 9.1C11.2 8.16667 10.4375 7.33333 9.7125 6.6C8.9875 5.86667 7.95 5.5 6.6 5.5C5.3 5.5 4.20833 5.94167 3.325 6.825C2.44167 7.70833 2 8.8 2 10.1C2 10.4833 2.04167 10.8583 2.125 11.225C2.20833 11.5917 2.325 11.9667 2.475 12.35C2.14167 12.5 1.85 12.7 1.6 12.95C1.35 13.2 1.13333 13.4833 0.95 13.8ZM0 22.5V20.925C0 20.1917 0.370833 19.6042 1.1125 19.1625C1.85417 18.7208 2.81667 18.5 4 18.5C4.21667 18.5 4.425 18.5042 4.625 18.5125C4.825 18.5208 5.01667 18.5417 5.2 18.575C4.96667 18.9083 4.79167 19.2667 4.675 19.65C4.55833 20.0333 4.5 20.4417 4.5 20.875V22.5H0ZM6 22.5V20.875C6 19.7917 6.55417 18.9167 7.6625 18.25C8.77083 17.5833 10.2167 17.25 12 17.25C13.8 17.25 15.25 17.5833 16.35 18.25C17.45 18.9167 18 19.7917 18 20.875V22.5H6ZM19.5 22.5V20.875C19.5 20.4417 19.4458 20.0333 19.3375 19.65C19.2292 19.2667 19.0667 18.9083 18.85 18.575C19.0333 18.5417 19.2208 18.5208 19.4125 18.5125C19.6042 18.5042 19.8 18.5 20 18.5C21.2 18.5 22.1667 18.7208 22.9 19.1625C23.6333 19.6042 24 20.1917 24 20.925V22.5H19.5ZM4 17.5C3.45 17.5 2.97917 17.3042 2.5875 16.9125C2.19583 16.5208 2 16.05 2 15.5C2 14.9333 2.19583 14.4583 2.5875 14.075C2.97917 13.6917 3.45 13.5 4 13.5C4.56667 13.5 5.04167 13.6917 5.425 14.075C5.80833 14.4583 6 14.9333 6 15.5C6 16.05 5.80833 16.5208 5.425 16.9125C5.04167 17.3042 4.56667 17.5 4 17.5ZM20 17.5C19.45 17.5 18.9792 17.3042 18.5875 16.9125C18.1958 16.5208 18 16.05 18 15.5C18 14.9333 18.1958 14.4583 18.5875 14.075C18.9792 13.6917 19.45 13.5 20 13.5C20.5667 13.5 21.0417 13.6917 21.425 14.075C21.8083 14.4583 22 14.9333 22 15.5C22 16.05 21.8083 16.5208 21.425 16.9125C21.0417 17.3042 20.5667 17.5 20 17.5ZM12 16.5C11.1667 16.5 10.4583 16.2083 9.875 15.625C9.29167 15.0417 9 14.3333 9 13.5C9 12.65 9.29167 11.9375 9.875 11.3625C10.4583 10.7875 11.1667 10.5 12 10.5C12.85 10.5 13.5625 10.7875 14.1375 11.3625C14.7125 11.9375 15 12.65 15 13.5C15 14.3333 14.7125 15.0417 14.1375 15.625C13.5625 16.2083 12.85 16.5 12 16.5Z" fill="black"/>
</g>
</svg>
