<svg width="24" height="25" viewBox="0 0 24 25" fill="none" xmlns="http://www.w3.org/2000/svg">
<mask id="mask0_67_2096" style="mask-type:alpha" maskUnits="userSpaceOnUse" x="0" y="0" width="24" height="25">
<rect y="0.5" width="24" height="24" fill="#D9D9D9"/>
</mask>
<g mask="url(#mask0_67_2096)">
<path d="M8.75 22.925C7.98333 22.925 7.29583 22.725 6.6875 22.325C6.07917 21.925 5.60833 21.375 5.275 20.675C5.00833 21.025 4.67083 21.2959 4.2625 21.4875C3.85417 21.6792 3.43333 21.775 3 21.775C2.15 21.775 1.4375 21.4834 0.8625 20.9C0.2875 20.3167 0 19.6084 0 18.775C0 18.0584 0.233333 17.4125 0.7 16.8375C1.16667 16.2625 1.75833 15.9334 2.475 15.85C2.24167 15.5167 2.0625 15.1625 1.9375 14.7875C1.8125 14.4125 1.75 14.0167 1.75 13.6C1.75 12.9334 1.92083 12.3084 2.2625 11.725C2.60417 11.1417 3.08333 10.6667 3.7 10.3C3.78333 10.6 3.89583 10.9209 4.0375 11.2625C4.17917 11.6042 4.34167 11.9 4.525 12.15C4.29167 12.3334 4.10833 12.5542 3.975 12.8125C3.84167 13.0709 3.775 13.3417 3.775 13.625C3.775 14.5584 4.15833 15.1334 4.925 15.35C5.69167 15.5667 6.41667 15.7417 7.1 15.875L7.575 16.675C7.39167 17.2084 7.23333 17.6625 7.1 18.0375C6.96667 18.4125 6.9 18.75 6.9 19.05C6.9 19.55 7.07917 19.9875 7.4375 20.3625C7.79583 20.7375 8.23333 20.925 8.75 20.925C9.38333 20.925 9.90833 20.6417 10.325 20.075C10.7417 19.5084 11.0833 18.8417 11.35 18.075C11.6167 17.3084 11.8208 16.5334 11.9625 15.75C12.1042 14.9667 12.2167 14.3667 12.3 13.95L14.25 14.475C14.1 15.225 13.9167 16.0834 13.7 17.05C13.4833 18.0167 13.1792 18.9375 12.7875 19.8125C12.3958 20.6875 11.8792 21.425 11.2375 22.025C10.5958 22.625 9.76667 22.925 8.75 22.925ZM10.1 15.825C9.33333 15.1417 8.6375 14.5042 8.0125 13.9125C7.3875 13.3209 6.85 12.7459 6.4 12.1875C5.95 11.6292 5.60417 11.0709 5.3625 10.5125C5.12083 9.95422 5 9.37505 5 8.77505C5 7.69172 5.37083 6.77922 6.1125 6.03755C6.85417 5.29588 7.76667 4.92505 8.85 4.92505C8.91667 4.92505 8.975 4.92922 9.025 4.93755C9.075 4.94588 9.13333 4.95005 9.2 4.95005C9.13333 4.78338 9.08333 4.61672 9.05 4.45005C9.01667 4.28338 9 4.10838 9 3.92505C9 3.09172 9.29167 2.38338 9.875 1.80005C10.4583 1.21672 11.1667 0.925049 12 0.925049C12.8333 0.925049 13.5417 1.21672 14.125 1.80005C14.7083 2.38338 15 3.09172 15 3.92505C15 4.10838 14.9833 4.27922 14.95 4.43755C14.9167 4.59588 14.8667 4.75838 14.8 4.92505H15.15C16.15 4.92505 17 5.24588 17.7 5.88755C18.4 6.52922 18.8167 7.32505 18.95 8.27505C18.65 8.22505 18.3125 8.20005 17.9375 8.20005C17.5625 8.20005 17.2167 8.21672 16.9 8.25005C16.7833 7.86672 16.5708 7.55005 16.2625 7.30005C15.9542 7.05005 15.5833 6.92505 15.15 6.92505C14.5667 6.92505 14.1125 7.09588 13.7875 7.43755C13.4625 7.77922 13.0167 8.27505 12.45 8.92505H11.525C10.9417 8.24172 10.4875 7.73755 10.1625 7.41255C9.8375 7.08755 9.4 6.92505 8.85 6.92505C8.31667 6.92505 7.875 7.10005 7.525 7.45005C7.175 7.80005 7 8.24172 7 8.77505C7 9.15838 7.10833 9.55422 7.325 9.96255C7.54167 10.3709 7.84583 10.8042 8.2375 11.2625C8.62917 11.7209 9.10417 12.2084 9.6625 12.725C10.2208 13.2417 10.8417 13.8 11.525 14.4L10.1 15.825ZM15.225 22.925C14.8583 22.925 14.4958 22.875 14.1375 22.775C13.7792 22.675 13.4333 22.5167 13.1 22.3C13.2833 22.0667 13.4667 21.7917 13.65 21.475C13.8333 21.1584 14 20.8667 14.15 20.6C14.3333 20.7167 14.5167 20.8001 14.7 20.85C14.8833 20.9 15.0667 20.925 15.25 20.925C15.7833 20.925 16.2292 20.7375 16.5875 20.3625C16.9458 19.9875 17.125 19.5417 17.125 19.025C17.125 18.7084 17.0583 18.3667 16.925 18C16.7917 17.6334 16.6333 17.1834 16.45 16.65L16.925 15.85C17.625 15.7167 18.3542 15.5417 19.1125 15.325C19.8708 15.1084 20.25 14.5334 20.25 13.6C20.25 12.9334 20.0042 12.45 19.5125 12.15C19.0208 11.85 18.4833 11.7 17.9 11.7C17.2 11.7 16.3833 11.8334 15.45 12.1C14.5167 12.3667 13.425 12.7084 12.175 13.125L11.65 11.175C12.95 10.7584 14.1083 10.4084 15.125 10.125C16.1417 9.84171 17.075 9.70005 17.925 9.70005C19.075 9.70005 20.0833 10.0417 20.95 10.725C21.8167 11.4084 22.25 12.3667 22.25 13.6C22.25 14.0167 22.1875 14.4125 22.0625 14.7875C21.9375 15.1625 21.7583 15.5167 21.525 15.85C22.2417 15.9334 22.8333 16.2625 23.3 16.8375C23.7667 17.4125 24 18.0584 24 18.775C24 19.6084 23.7125 20.3167 23.1375 20.9C22.5625 21.4834 21.85 21.775 21 21.775C20.5667 21.775 20.1458 21.6792 19.7375 21.4875C19.3292 21.2959 18.9917 21.025 18.725 20.675C18.3917 21.375 17.9208 21.925 17.3125 22.325C16.7042 22.725 16.0083 22.925 15.225 22.925Z" fill="black"/>
</g>
</svg>
