<svg width="24" height="25" viewBox="0 0 24 25" fill="none" xmlns="http://www.w3.org/2000/svg">
<mask id="mask0_76_4792" style="mask-type:alpha" maskUnits="userSpaceOnUse" x="0" y="0" width="24" height="25">
<rect y="0.5" width="24" height="24" fill="#D9D9D9"/>
</mask>
<g mask="url(#mask0_76_4792)">
<path d="M16.7 15.775L19.35 13.1C19.8833 12.5667 20.2917 11.9583 20.575 11.275C20.8583 10.5917 21 9.875 21 9.125C21 7.55833 20.4542 6.22917 19.3625 5.1375C18.2708 4.04583 16.9417 3.5 15.375 3.5C14.625 3.5 13.9083 3.64167 13.225 3.925C12.5417 4.20833 11.9333 4.61667 11.4 5.15L8.725 7.8L16.7 15.775ZM8.625 21.5C9.375 21.5 10.0917 21.3583 10.775 21.075C11.4583 20.7917 12.0667 20.3833 12.6 19.85L15.275 17.2L7.3 9.225L4.65 11.9C4.11667 12.4333 3.70833 13.0417 3.425 13.725C3.14167 14.4083 3 15.125 3 15.875C3 17.4417 3.54583 18.7708 4.6375 19.8625C5.72917 20.9542 7.05833 21.5 8.625 21.5Z" fill="black"/>
</g>
</svg>
