<svg class="component-clinical-notes-solid-icon" width="24" height="25" viewBox="0 0 24 25" fill="none" xmlns="http://www.w3.org/2000/svg">
<mask id="mask0_34_3936" style="mask-type:alpha" maskUnits="userSpaceOnUse" x="0" y="0" width="24" height="25">
<rect y="0.5" width="24" height="24" fill="#D9D9D9"/>
</mask>
<g mask="url(#mask0_34_3936)">
<path class="component-clinical-notes-solid-icon__path" d="M17 16.5C16.1667 16.5 15.4583 16.2083 14.875 15.625C14.2917 15.0417 14 14.3333 14 13.5C14 12.6667 14.2917 11.9583 14.875 11.375C15.4583 10.7917 16.1667 10.5 17 10.5C17.8333 10.5 18.5417 10.7917 19.125 11.375C19.7083 11.9583 20 12.6667 20 13.5C20 14.3333 19.7083 15.0417 19.125 15.625C18.5417 16.2083 17.8333 16.5 17 16.5ZM11 23.5V20.6C11 20.25 11.0833 19.9208 11.25 19.6125C11.4167 19.3042 11.65 19.0583 11.95 18.875C12.4833 18.5583 13.0458 18.2958 13.6375 18.0875C14.2292 17.8792 14.8333 17.725 15.45 17.625L17 19.5L18.55 17.625C19.1667 17.725 19.7667 17.8792 20.35 18.0875C20.9333 18.2958 21.4917 18.5583 22.025 18.875C22.325 19.0583 22.5625 19.3042 22.7375 19.6125C22.9125 19.9208 23 20.25 23 20.6V23.5H11ZM9 20.6V21.5H5C4.45 21.5 3.97917 21.3042 3.5875 20.9125C3.19583 20.5208 3 20.05 3 19.5V5.5C3 4.95 3.19583 4.47917 3.5875 4.0875C3.97917 3.69583 4.45 3.5 5 3.5H19C19.55 3.5 20.0208 3.69583 20.4125 4.0875C20.8042 4.47917 21 4.95 21 5.5V10.5C20.4833 9.85 19.9 9.35417 19.25 9.0125C18.6 8.67083 17.85 8.5 17 8.5V7.5H7V9.5H14C13.6667 9.76667 13.3667 10.0667 13.1 10.4C12.8333 10.7333 12.6083 11.1 12.425 11.5H7V13.5H12C12 13.85 12.0375 14.1917 12.1125 14.525C12.1875 14.8583 12.2917 15.1833 12.425 15.5H7V17.5H10.45C10 17.8833 9.64583 18.3458 9.3875 18.8875C9.12917 19.4292 9 20 9 20.6Z" fill="black"/>
</g>
</svg>
