<svg width="85" height="100" viewBox="0 0 85 100" fill="none" xmlns="http://www.w3.org/2000/svg">
<g clip-path="url(#clip0_762_7137)">
<path d="M0 42.2827C0 65.5944 18.999 84.5654 42.3451 84.5654C65.6912 84.5654 84.6902 65.5944 84.6902 42.2827C84.6902 18.971 65.6912 0 42.3451 0C18.999 0 0 18.971 0 42.2827ZM1.11516 42.2827C1.11516 19.5896 19.6186 1.12383 42.3451 1.12383C65.0717 1.12383 83.5648 19.5896 83.5648 42.293C83.5648 64.9964 65.0717 83.4519 42.3451 83.4519C19.6186 83.4519 1.11516 64.9861 1.11516 42.2827Z" fill="#009C43"/>
<path d="M59.6816 29.6114C59.0931 28.8072 57.9263 27.1163 55.7786 25.1883C54.364 23.9098 52.4744 22.621 50.6571 21.6518C46.5475 19.4351 41.9836 19.2701 39.6913 19.4557C36.9551 19.6722 34.4769 20.4249 31.9988 21.7859C30.0886 22.8375 27.8066 24.4666 26.6605 25.9719C24.0997 29.3433 22.8504 31.6838 23.2531 34.6635C23.4183 35.9007 24.7709 37.0658 26.3507 37.8494C27.2594 38.303 28.23 38.6845 29.0044 38.9526C30.6978 39.5609 31.4102 39.6228 32.577 39.8908C33.7335 40.1589 35.5301 40.3754 35.5508 40.994C35.5818 41.6126 33.1656 42.3034 31.3483 42.8293C29.3038 43.417 27.5278 44.0356 27.5278 44.0356C27.5278 44.0356 23.3976 44.8913 22.7161 47.4277C21.6526 51.3662 25.7518 54.9852 25.7518 54.9852L17.7702 60.759C13.6606 55.4594 11.2031 48.799 11.2031 41.5714C11.2031 24.2603 25.2459 10.2383 42.5825 10.2383C53.1352 10.2383 62.4592 15.4347 68.1589 23.4046L59.6816 29.6217V29.6114Z" fill="#FFE100"/>
<path d="M26.3818 55.7275C28.5398 58.1607 31.4619 57.7998 32.3809 57.3977C33.8471 56.7585 35.1275 54.4902 36.9345 52.7478C41.9217 47.9225 46.1552 46.4069 46.1552 46.4069C50.3887 44.6335 53.7342 44.6541 54.6635 44.5717C58.0709 44.1696 59.754 43.8602 60.7039 43.3447C61.8191 42.7364 62.1185 42.3859 62.5212 41.6332C62.8 41.1177 62.862 40.4063 62.9033 39.8289C62.9652 38.9525 62.862 38.3133 62.7897 37.3029C62.6141 34.7356 60.2702 30.6424 60.2702 30.6424L68.7578 24.3428C72.0001 29.2505 73.9103 35.1274 73.9413 41.4476C74.0239 58.7484 60.0328 72.8426 42.7065 72.9251C32.9591 72.9767 24.234 68.5844 18.4414 61.6456L26.3921 55.7378L26.3818 55.7275Z" fill="#009944"/>
<path d="M12.5453 58.8514L15.5913 62.9652L11.3269 66.1202L11.0068 65.6974L11.1513 65.5737L8.74548 62.3156L8.58027 62.4188L8.27051 61.996L12.535 58.8411L12.5453 58.8514ZM12.473 59.5525L9.13785 62.0167L11.5644 65.285L14.8995 62.8209L14.4039 62.1507L14.311 62.759L14.0115 62.6971L14.2697 63.058L13.9289 63.3158L13.1751 62.295C12.8138 62.5837 12.4833 62.9033 12.1839 63.2642L12.1116 63.3982C12.4111 63.3776 12.7518 63.2951 13.1235 63.1405L13.1442 63.1714L13.2887 63.6354C13.2887 63.6354 13.2165 63.6869 13.0512 63.6766C12.6485 63.8106 12.2458 63.8725 11.8122 63.8622C11.7502 63.9859 11.7192 64.1096 11.7192 64.2334C11.7192 64.3674 11.9051 64.3674 12.2562 64.254V64.2746L12.2149 64.7695C11.998 64.8108 11.7709 64.8314 11.5334 64.8417C11.4301 64.8417 11.3372 64.8211 11.2546 64.7489L11.2236 64.718C11.11 64.5221 11.141 64.2231 11.3165 63.8003L10.4285 63.4807L10.4492 63.0271C10.7383 63.1817 11.0687 63.2848 11.4198 63.3673L11.5334 63.3879C11.8018 62.924 12.2562 62.4291 12.8964 61.9239L11.7399 60.3773L12.0806 60.1299L13.2268 61.6867L13.7121 61.3259L13.7327 61.3465L13.9289 61.8104C13.9289 61.862 13.8463 61.8929 13.7224 61.8826L13.5159 62.0373L13.9289 62.594C13.9289 62.594 13.9909 62.3775 14.0218 62.0579L14.3832 62.1198L12.4937 59.5628L12.473 59.5525ZM11.2856 62.8002L11.3165 62.8415L10.9861 63.0889L9.81934 62.1404C9.62316 62.1198 9.61283 62.0476 9.79869 61.8929L10.0155 61.6455L10.9655 62.5528L11.2856 62.8002ZM11.5644 60.6969L12.4627 61.9032L11.4508 62.6559L10.5525 61.4393L11.5644 60.6969ZM11.5127 61.2743L11.11 61.5733L11.4921 62.0888L11.8948 61.7898L11.5127 61.2743Z" fill="#231815"/>
<path d="M21.849 70.2032L24.7608 72.0694L24.4923 72.4818L23.2636 71.6879L23.0777 71.7291C23.1293 71.9559 23.15 72.224 23.1396 72.5333L23.1087 72.7498C23.2223 72.7705 23.6146 72.7705 24.2858 72.7189L24.4613 72.6983L24.5749 73.3169V73.3582C24.451 73.2963 24.3168 73.2757 24.1516 73.2963L23.0777 73.2344C23.1293 74.0696 23.3875 74.8325 23.8418 75.5336L23.1603 75.6264C22.8815 75.1625 22.6957 74.5748 22.6234 73.8634C22.4685 74.1005 22.2517 74.3376 21.9832 74.5645C21.7664 74.7913 21.3843 74.7191 20.8267 74.3583C20.9197 74.1933 20.9919 73.9871 21.0436 73.7603L21.4256 74.0283C21.6115 74.1933 21.8696 74.0077 22.2103 73.4716C21.5598 73.6056 20.6615 73.5541 19.5154 73.3169L19.3398 72.7086C19.9594 72.9045 20.6925 73.0282 21.5185 73.0901C21.6631 73.0901 21.9729 73.0798 22.4582 73.0179L22.5821 72.6055V72.5849C21.8799 72.6983 21.0436 72.6364 20.073 72.4096L19.9181 71.8322C20.424 71.9972 21.0539 72.1312 21.8386 72.2137L22.6027 72.1828L22.5408 71.76C21.9935 71.76 21.374 71.6879 20.6718 71.5229L20.5066 70.9352C21.0436 71.1105 21.6631 71.2445 22.3446 71.327H22.6853L21.5805 70.6156L21.849 70.2032ZM23.8211 69.7805L24.3477 70.1826C24.3994 70.2238 24.3477 70.265 24.1619 70.3166L24.0173 70.5434L26.0102 71.8219L25.2667 72.9664L24.8124 72.6674L25.2874 71.925L21.787 69.6877L21.312 70.43L20.8474 70.131L21.5805 68.9866L23.5217 70.2238L23.8315 69.7702L23.8211 69.7805Z" fill="#231815"/>
<path d="M33.7857 77.3584L35.985 77.7811L35.4997 80.3381L34.9834 80.235L35.0454 79.8329L33.8992 79.6164L33.8063 80.0082L33.29 79.9154L33.7753 77.3584H33.7857ZM34.209 77.9255L33.9715 79.1421L35.1486 79.3689L35.3861 78.1523L34.209 77.9255ZM35.1899 74.9149L38.3392 75.5128L37.9056 77.8017L37.3686 77.6986L37.4099 77.3893L35.3655 76.9975L35.2932 77.2965L34.7563 77.1934L35.1899 74.9045V74.9149ZM35.6339 75.5128L35.4481 76.513L37.5235 76.9047L37.7197 75.915L35.6443 75.5232L35.6339 75.5128ZM36.5426 77.8842L38.7419 78.3069L38.2566 80.8639L37.7404 80.7608L37.8023 80.369L36.6562 80.1525L36.5736 80.5443L36.0573 80.4412L36.5529 77.8842H36.5426ZM36.9659 78.4513L36.7284 79.6679L37.9056 79.8947L38.143 78.6781L36.9659 78.4616V78.4513Z" fill="#231815"/>
<path d="M49.9133 74.9973H49.9649L50.378 75.286C50.4296 75.3788 50.3573 75.42 50.1508 75.3994L48.6536 75.8428L48.6846 76.1005L50.4812 75.719L50.5741 76.1418L49.8513 76.2964L50.0062 77.0388L49.49 77.1522L49.3351 76.3995L48.7155 76.5336C48.7155 76.781 48.6226 77.0903 48.4161 77.4718L47.9824 77.245C48.2715 76.8944 48.3025 76.3377 48.0857 75.5953L49.4383 75.1932L49.9133 74.9973ZM49.0253 77.4512L52.7219 76.6779L53.2588 79.2142L52.3708 79.3998C52.7012 79.4926 53.2072 79.5236 53.899 79.5029L53.5995 79.9978C53.2278 79.9772 52.7941 79.9257 52.3088 79.8226L51.9784 79.7298L52.1333 79.4514L50.6774 79.771L51.0285 79.9669C51.0285 79.9669 51.0285 80.07 50.9046 80.1216L49.6552 80.7608L49.4383 80.8536L48.9427 80.5443C49.3351 80.4206 49.8204 80.1731 50.3986 79.8329L49.5622 79.9978L49.0253 77.4615V77.4512ZM49.6448 77.7296L49.7171 78.0492L52.3398 77.4924L52.2779 77.1728L49.6552 77.7296H49.6448ZM52.4534 74.4612H52.5153L52.9387 74.7499C52.9903 74.8427 52.918 74.8736 52.7115 74.8633L51.2246 75.2963L51.2659 75.5644L53.1245 75.1726L53.2175 75.5953L52.4947 75.75L52.6496 76.5026L52.1333 76.6057L51.9784 75.8634L51.2969 76.0077C51.2866 76.2346 51.2143 76.482 51.1111 76.7398L51.0181 76.9254L50.5741 76.6985C50.8529 76.3583 50.8736 75.8118 50.6567 75.0592L52.0817 74.6365L52.4637 74.4818L52.4534 74.4612ZM49.7894 78.3997L49.8617 78.7503L52.4844 78.1935L52.4121 77.843L49.7894 78.3997ZM49.934 79.1008L50.0166 79.472L52.6392 78.9152L52.5566 78.5441L49.934 79.1008Z" fill="#231815"/>
<path d="M60.8486 70.6259L61.3546 70.3269C61.4062 70.296 61.4372 70.3578 61.4372 70.5331L62.0051 71.2858L62.4284 70.9662L62.7279 71.3683L62.3045 71.6879L62.3975 71.8116C62.7072 71.9869 63.1099 72.1106 63.5952 72.1828L63.5333 72.6983L62.8828 72.4611L64.6278 74.7913L64.2148 75.1006L62.6659 73.0385L62.9344 74.1211L62.3355 74.1624C62.3458 73.6365 62.2013 72.9251 61.9018 72.0281L61.8812 72.0075L61.2926 72.4508L60.9932 72.0487L61.5714 71.6157L60.8486 70.6259ZM61.9328 70.1104L64.7517 68.0071L65.0305 68.3679L64.1631 69.0278L64.3903 69.3268L65.1337 68.77L65.9701 69.8836L63.43 71.7807L62.5937 70.6672L63.3268 70.1207L63.0996 69.8217L62.2219 70.4816L61.9535 70.1207L61.9328 70.1104ZM63.4403 69.5536L63.6675 69.8526L64.0083 69.5949L63.7811 69.2959L63.4403 69.5536ZM63.2338 70.7084L63.5643 71.1414L63.8947 70.894L63.5746 70.4609L63.2442 70.7084H63.2338ZM63.9256 70.1929L64.2457 70.6259L64.5865 70.3681L64.2664 69.9454L63.9256 70.1929ZM63.7914 71.8838L65.9391 70.265L66.1973 70.6156L64.0392 72.224L63.7811 71.8735L63.7914 71.8838ZM64.6278 69.667L64.9479 70.1001L65.2886 69.8423L64.9685 69.4093L64.6278 69.6567V69.667ZM63.8121 72.7911L66.7445 70.5847L67.0336 70.9662L65.7946 71.8941L66.3522 72.6364C66.6516 73.0179 66.5483 73.3788 66.0321 73.719L65.9598 73.7912L65.4745 73.5025L65.8772 73.1829C66.0217 73.0901 65.8565 72.7601 65.3712 72.2137L64.1012 73.1726L63.8121 72.7911ZM64.7517 72.9148H65.268C65.3196 72.9148 65.3196 72.9767 65.2473 73.1313C65.2473 73.3066 65.1854 73.6159 65.0511 74.0593L64.9995 74.1727L64.4523 74.1108C64.6381 73.7602 64.7414 73.4097 64.762 73.0282V72.9148H64.7517ZM66.4348 71.6982C66.7858 71.7807 67.1988 71.791 67.6945 71.6982L67.6325 72.2549C67.4983 72.2962 67.0956 72.2343 66.4038 72.09L66.3831 72.059L66.4244 71.6982H66.4348Z" fill="#231815"/>
<path d="M71.5873 59.6247L71.9797 59.1504C71.9797 59.1504 72.0623 59.1504 72.1243 59.3154L72.2585 59.4082L73.4046 57.676L73.7557 57.9132L73.2291 58.7174L73.6008 59.2947L74.4682 57.9853L74.8502 58.2431L71.8661 62.7487L71.4841 62.5013L72.3824 61.1403L71.7629 60.9444L71.1743 61.8414L70.8232 61.6043L71.9591 59.8824L71.5977 59.635L71.5873 59.6247ZM72.0623 60.4598L72.6818 60.6557L73.2807 59.7587L72.9193 59.171L72.0726 60.4495L72.0623 60.4598ZM72.527 62.1816L74.6334 58.9854L76.1409 59.9752L75.2323 61.3465L75.5317 61.5424L76.8327 59.5731L77.2044 59.8206L75.9034 61.7899L76.523 62.2023L76.2235 62.6559L75.604 62.2538L74.2513 64.3056L73.8796 64.0581L75.2323 62.0167L74.9328 61.8208L74.0242 63.1921L72.5166 62.2023L72.527 62.1816ZM73.1775 61.9548L73.4253 62.1095L74.9328 59.8309L74.685 59.6762L73.1775 61.9548ZM73.7351 62.326L73.9829 62.491L75.4904 60.2124L75.2426 60.0577L73.7351 62.3363V62.326Z" fill="#231815"/>
<path d="M6.88733 48.6132L6.70147 47.7162C6.98026 47.6338 7.17645 47.4997 7.2797 47.3244C7.39328 47.1389 7.43459 46.912 7.40361 46.6233C7.37263 46.3243 7.29003 46.1078 7.1558 45.9635C7.02156 45.8294 6.87701 45.7676 6.72212 45.7779C6.62919 45.7779 6.54659 45.8294 6.47431 45.9016C6.41236 45.9738 6.36073 46.0872 6.32975 46.2522C6.3091 46.3656 6.2678 46.6233 6.2265 47.0151C6.16454 47.5307 6.06129 47.8915 5.92705 48.108C5.73087 48.4173 5.4624 48.5823 5.13199 48.6235C4.91515 48.6442 4.70864 48.6029 4.51245 48.4895C4.30594 48.3761 4.15106 48.2008 4.01683 47.9637C3.89292 47.7265 3.81032 47.4275 3.76901 47.077C3.70706 46.4996 3.76901 46.046 3.97552 45.7367C4.17171 45.417 4.47115 45.2314 4.8532 45.1799L4.98743 46.1078C4.78092 46.1697 4.62603 46.2728 4.55376 46.4068C4.47115 46.5512 4.4505 46.7471 4.47115 47.0151C4.50213 47.2832 4.57441 47.4894 4.68799 47.6338C4.76027 47.7265 4.8532 47.7575 4.96678 47.7575C5.05971 47.7472 5.14231 47.6956 5.20427 47.5925C5.27654 47.4688 5.3385 47.1698 5.39013 46.7161C5.44175 46.2522 5.50371 45.9119 5.58631 45.6851C5.66892 45.4583 5.79282 45.2727 5.95803 45.1283C6.12324 44.984 6.34008 44.9015 6.60854 44.8706C6.85636 44.8397 7.08352 44.8912 7.32101 45.0149C7.54817 45.1387 7.73403 45.3242 7.85793 45.582C7.99217 45.8398 8.07477 46.1697 8.11607 46.5718C8.17803 47.1492 8.10575 47.6131 7.88891 47.9534C7.67207 48.2936 7.34166 48.5204 6.86668 48.6339" fill="#231815"/>
<path d="M4.73982 43.0972L4.77079 42.159L6.98046 41.4373L4.83275 40.5712L4.87405 39.6536L7.76521 40.9424L8.30214 41.1898C8.47767 41.2723 8.6119 41.3548 8.70483 41.4269C8.79776 41.4991 8.87004 41.5816 8.92167 41.6744C8.9733 41.7672 9.0146 41.8806 9.04558 42.0146C9.06623 42.1487 9.08688 42.3033 9.07655 42.4683C9.07655 42.6333 9.04558 42.8085 9.0146 42.9632L8.37441 43.0147C8.40539 42.8807 8.42604 42.757 8.42604 42.6436C8.42604 42.4374 8.38474 42.2827 8.27116 42.1796C8.15758 42.0765 8.02335 41.994 7.84781 41.9425L4.72949 43.0869L4.73982 43.0972Z" fill="#231815"/>
<path d="M5.07031 37.4988L5.23552 36.7049L5.64854 36.7874C5.38008 36.4368 5.28715 36.0553 5.38008 35.6635C5.42138 35.4573 5.50399 35.2821 5.61757 35.1377C5.73115 35.0037 5.87571 34.9006 6.05124 34.8387C5.91701 34.6634 5.8344 34.4778 5.7931 34.2923C5.7518 34.1067 5.74147 33.9211 5.7931 33.7355C5.84473 33.4881 5.92733 33.3025 6.06157 33.1581C6.18547 33.0138 6.34036 32.9107 6.53654 32.8694C6.6811 32.8385 6.88761 32.8488 7.17673 32.9107L9.10761 33.3128L8.92175 34.1788L7.19738 33.818C6.89794 33.7561 6.69143 33.7458 6.5985 33.7871C6.47459 33.8386 6.39198 33.952 6.35068 34.117C6.31971 34.2407 6.33003 34.3644 6.38166 34.4778C6.42296 34.6016 6.51589 34.6944 6.62947 34.7768C6.75338 34.849 6.94956 34.9212 7.23868 34.9727L8.68426 35.2717L8.50872 36.1378L6.85663 35.7873C6.56752 35.7254 6.37133 35.7048 6.2784 35.7151C6.18547 35.7254 6.11319 35.7666 6.06157 35.8182C6.00994 35.8697 5.96864 35.9625 5.94799 36.0656C5.91701 36.1997 5.92733 36.3234 5.96864 36.4471C6.00994 36.5708 6.09254 36.6636 6.20612 36.7358C6.31971 36.808 6.52622 36.8698 6.81533 36.9317L8.28156 37.2307L8.10603 38.0968L5.11161 37.4678L5.07031 37.4988Z" fill="#231815"/>
<path d="M9.72701 31.4259L5.79297 29.869L6.12339 29.0442L7.52766 29.6009C7.36245 29.2401 7.35213 28.8792 7.49669 28.5287C7.65157 28.1472 7.89938 27.8791 8.26078 27.7348C8.61185 27.5801 9.02487 27.611 9.49984 27.7966C9.99547 27.9925 10.3156 28.2709 10.4808 28.6318C10.646 28.9926 10.646 29.3535 10.5014 29.7144C10.4291 29.8896 10.3156 30.0546 10.1607 30.1886C10.0058 30.333 9.81994 30.4258 9.61343 30.4876L10.0264 30.6526L9.72701 31.4259ZM8.57054 30.0237C8.86999 30.1474 9.1178 30.1783 9.30366 30.1371C9.5618 30.0752 9.74766 29.9206 9.84059 29.6834C9.91287 29.4978 9.90254 29.3122 9.80961 29.1267C9.71668 28.9411 9.51017 28.7864 9.2004 28.6627C8.85966 28.5287 8.60152 28.4977 8.39501 28.5699C8.19882 28.6421 8.05427 28.7761 7.98199 28.9823C7.89938 29.1885 7.90971 29.3741 8.00264 29.57C8.09557 29.7659 8.28143 29.9102 8.57054 30.034" fill="#231815"/>
<path d="M10.3052 26.1161C10.0677 25.9821 9.88189 25.7862 9.73733 25.5387C9.59277 25.281 9.53082 25.0129 9.54114 24.7139C9.56179 24.4149 9.65472 24.1262 9.80961 23.8375C10.0677 23.4045 10.4085 23.1158 10.8318 22.9818C11.2552 22.8477 11.6682 22.8993 12.0709 23.1364C12.4736 23.3736 12.7317 23.7035 12.8247 24.1468C12.9279 24.5799 12.8556 25.0129 12.5975 25.446C12.4426 25.714 12.2464 25.9305 11.9883 26.1161C11.7405 26.2914 11.472 26.3842 11.1829 26.3842C10.8938 26.3842 10.5943 26.3017 10.2949 26.1161M10.7905 25.3532C11.059 25.5078 11.2965 25.5594 11.5236 25.5078C11.7508 25.4563 11.916 25.3222 12.0296 25.1263C12.1432 24.9304 12.1742 24.7139 12.1122 24.4974C12.0503 24.2809 11.8747 24.085 11.6063 23.9303C11.3378 23.7757 11.1003 23.7344 10.8731 23.786C10.6563 23.8375 10.4808 23.9716 10.3672 24.1675C10.2536 24.3737 10.2226 24.5799 10.2846 24.7964C10.3465 25.0129 10.5117 25.2088 10.7802 25.3532" fill="#231815"/>
<path d="M14.4967 22.3837L11.0996 19.8577L11.6365 19.1462L15.0233 21.6723L14.4967 22.3837Z" fill="#231815"/>
<path d="M19.5465 14.6922C19.3813 14.4757 19.2884 14.2179 19.2471 13.9293C19.2161 13.6406 19.2574 13.3622 19.3916 13.0941C19.5259 12.826 19.722 12.5889 19.9905 12.393C20.4035 12.094 20.8269 11.96 21.2606 12.0115C21.7046 12.0631 22.0659 12.2693 22.3447 12.6405C22.6235 13.0116 22.7268 13.424 22.6442 13.8674C22.5616 14.3107 22.3241 14.6716 21.9214 14.9706C21.6736 15.1562 21.4051 15.2799 21.1057 15.3418C20.8062 15.4036 20.5171 15.383 20.259 15.2696C20.0008 15.1562 19.753 14.9603 19.5465 14.6819M20.3003 14.1664C20.4861 14.4138 20.6926 14.5582 20.9198 14.5891C21.147 14.6304 21.3535 14.5788 21.5393 14.4345C21.7252 14.3004 21.8388 14.1148 21.8594 13.888C21.8904 13.6612 21.8078 13.424 21.6219 13.1766C21.4361 12.9291 21.2399 12.7848 21.0127 12.7539C20.7856 12.7126 20.5791 12.7642 20.3932 12.9085C20.2073 13.0529 20.1041 13.2281 20.0731 13.455C20.0421 13.6818 20.1247 13.9189 20.3106 14.1664" fill="#231815"/>
<path d="M23.0264 10.4444L23.4497 10.2073L23.3361 10.0011C23.2019 9.77426 23.1399 9.58867 23.1296 9.45464C23.1296 9.31029 23.1606 9.16595 23.2639 9.0216C23.3671 8.86695 23.522 8.73291 23.7388 8.60919C23.966 8.48547 24.1932 8.39267 24.441 8.33081L24.6268 8.87726C24.4823 8.9185 24.3584 8.98036 24.2345 9.04222C24.1209 9.10409 24.0589 9.17626 24.0279 9.25874C24.0073 9.34122 24.0279 9.44433 24.1106 9.58867L24.2138 9.78457L24.792 9.45464L25.1121 10.0114L24.5339 10.3413L25.7317 12.4343L24.9676 12.8674L23.7698 10.7744L23.3465 11.0218L23.0264 10.4651V10.4444Z" fill="#231815"/>
<path d="M33.4647 9.22779L32.5664 5.10365L33.4544 4.90776L35.9325 7.27914L35.3337 4.50565L36.1804 4.32007L37.0684 8.4442L36.1597 8.6401L33.7125 6.33059L34.3114 9.04221L33.4647 9.22779Z" fill="#231815"/>
<path d="M39.7122 6.02115L38.8965 5.93867C38.9688 5.63967 39.1133 5.40253 39.3198 5.24787C39.5367 5.09322 39.8568 5.00042 40.2904 4.96949C40.6931 4.94887 40.9822 4.96949 41.1888 5.04166C41.3849 5.11384 41.5295 5.21694 41.6224 5.34066C41.705 5.46439 41.767 5.71184 41.7876 6.06239L41.8393 7.01094C41.8599 7.27901 41.8806 7.48522 41.9219 7.60894C41.9632 7.73266 42.0251 7.8667 42.1077 8.01104L41.2197 8.07291C41.2197 8.07291 41.1578 7.94918 41.1165 7.84608C41.1062 7.79453 41.0855 7.7636 41.0855 7.75329C40.9409 7.89763 40.7861 8.01104 40.6209 8.09353C40.4556 8.1657 40.2698 8.21725 40.0736 8.22756C39.7329 8.24818 39.4541 8.18632 39.2476 8.02135C39.041 7.8667 38.9275 7.65018 38.9068 7.39242C38.8965 7.21715 38.9275 7.06249 39.0101 6.91815C39.0927 6.7738 39.2166 6.66039 39.3715 6.57791C39.5263 6.49542 39.7638 6.41294 40.0633 6.34077C40.4763 6.23766 40.7551 6.15518 40.91 6.08301V6.00053C40.8996 5.84587 40.848 5.73246 40.7551 5.68091C40.6725 5.61904 40.5073 5.59842 40.2698 5.60873C40.1149 5.61904 39.991 5.66029 39.9084 5.71184C39.8155 5.7737 39.7535 5.8768 39.7122 6.03146M40.9513 6.60884C40.8377 6.65008 40.6622 6.70163 40.4143 6.7738C40.1665 6.83566 40.0116 6.89753 39.9394 6.94908C39.8258 7.03156 39.7742 7.13466 39.7845 7.24808C39.7948 7.36149 39.8464 7.4646 39.9394 7.53677C40.0426 7.61925 40.1562 7.65018 40.3008 7.65018C40.466 7.63987 40.6105 7.57801 40.7551 7.47491C40.8583 7.39242 40.9203 7.28932 40.9513 7.18622C40.9719 7.11404 40.9719 6.98001 40.9513 6.78411V6.61915V6.60884Z" fill="#231815"/>
<path d="M45.6696 5.083L45.6386 5.72224L45.0294 5.69131L44.9571 6.93886C44.9468 7.18631 44.9468 7.34096 44.9571 7.38221C44.9674 7.42345 44.9881 7.46469 45.0294 7.48531C45.0707 7.51624 45.1223 7.53686 45.1843 7.53686C45.2669 7.53686 45.3805 7.52655 45.5457 7.475L45.5766 8.10393C45.3701 8.16579 45.1326 8.19672 44.8745 8.18641C44.7196 8.18641 44.5751 8.14517 44.4512 8.09362C44.3273 8.03176 44.2343 7.96989 44.1827 7.88741C44.1311 7.80493 44.0898 7.70183 44.0794 7.56779C44.0588 7.46469 44.0691 7.2791 44.0794 6.99041L44.1517 5.65007L43.749 5.62945L43.78 4.99021L44.193 5.01083L44.224 4.40252L45.1326 3.96948L45.081 5.05207L45.6902 5.083H45.6696Z" fill="#231815"/>
<path d="M47.3018 8.34103L47.7458 5.3201L48.6234 5.45413L48.1794 8.47506L47.3018 8.34103ZM47.8077 4.89737L47.9213 4.15503L48.799 4.27875L48.6957 5.0211L47.818 4.88706L47.8077 4.89737Z" fill="#231815"/>
<path d="M50.4712 7.26891C50.5435 7.01115 50.6777 6.77401 50.8842 6.5678C51.0907 6.3616 51.3385 6.22756 51.638 6.1657C51.9374 6.10384 52.2369 6.11415 52.557 6.20694C53.0526 6.34098 53.414 6.59874 53.6411 6.96991C53.8786 7.35139 53.9303 7.75349 53.8063 8.20715C53.6824 8.6608 53.4243 8.99073 53.0319 9.19694C52.6292 9.40315 52.1956 9.44439 51.7206 9.32067C51.4211 9.23818 51.1527 9.10415 50.9152 8.90825C50.6777 8.71236 50.5228 8.47522 50.4505 8.19684C50.3679 7.91846 50.3783 7.60915 50.4712 7.26891ZM51.3385 7.54729C51.2559 7.84629 51.2766 8.09373 51.3798 8.28963C51.4934 8.48553 51.6586 8.61956 51.8858 8.68142C52.113 8.74329 52.3195 8.71236 52.5157 8.58863C52.7118 8.47522 52.8564 8.2587 52.9287 7.9597C53.0113 7.6607 52.9906 7.41325 52.8874 7.21736C52.7841 7.02146 52.6086 6.88742 52.3917 6.82556C52.1646 6.7637 51.9581 6.79463 51.7619 6.90805C51.5657 7.02146 51.4211 7.22767 51.3489 7.52667" fill="#231815"/>
<path d="M57.9571 11.5373L57.1414 11.1867L57.7713 9.74326C57.9055 9.44426 57.9778 9.23805 57.9778 9.13495C57.9778 9.03185 57.9571 8.93905 57.8952 8.84626C57.8332 8.76378 57.7609 8.69161 57.6474 8.65036C57.5028 8.5885 57.3583 8.56788 57.2137 8.5885C57.0691 8.60912 56.9452 8.67098 56.8523 8.76378C56.7594 8.86688 56.6458 9.07309 56.5012 9.3824L55.9436 10.6609L55.1279 10.3L56.3567 7.49561L57.1208 7.82554L56.9452 8.23795C57.3583 8.03174 57.7713 8.02143 58.174 8.19671C58.3598 8.27919 58.5044 8.38229 58.6283 8.49571C58.7522 8.61943 58.8348 8.74316 58.8658 8.87719C58.9071 9.00092 58.9071 9.12464 58.8864 9.25867C58.8658 9.3824 58.8038 9.55767 58.7109 9.77419L57.9468 11.5166L57.9571 11.5373Z" fill="#231815"/>
<path d="M61.4575 11.0217L60.838 10.4856C61.0754 10.2794 61.3233 10.1763 61.5814 10.1763C61.8395 10.1763 62.1596 10.2794 62.5314 10.5165C62.8721 10.7227 63.0993 10.9083 63.2232 11.0939C63.3471 11.2692 63.3987 11.4341 63.3987 11.5888C63.3987 11.7434 63.3058 11.9703 63.1199 12.2693L62.614 13.0735C62.4694 13.3106 62.3765 13.4859 62.3352 13.6096C62.2939 13.7333 62.2629 13.8777 62.2526 14.0426L61.4988 13.5787C61.4988 13.5271 61.5194 13.4446 61.5504 13.3312C61.5608 13.2797 61.5711 13.2488 61.5711 13.2384C61.3646 13.2797 61.1787 13.2797 60.9928 13.2384C60.807 13.2075 60.6315 13.1353 60.4662 13.0322C60.1771 12.857 59.9913 12.6404 59.9087 12.393C59.8364 12.1455 59.857 11.9084 60.0016 11.6816C60.0945 11.5269 60.2184 11.4238 60.363 11.3516C60.5179 11.2795 60.6728 11.2589 60.8586 11.2795C61.0341 11.3001 61.2716 11.3723 61.5607 11.4857C61.9531 11.6403 62.2319 11.7434 62.4074 11.7744L62.4487 11.7022C62.5314 11.5682 62.552 11.4548 62.521 11.3516C62.4797 11.2485 62.3661 11.1351 62.1596 11.0114C62.0254 10.9289 61.9015 10.8877 61.7982 10.8877C61.695 10.8877 61.5814 10.9392 61.4575 11.032M62.1287 12.2177C62.0151 12.1868 61.8395 12.1352 61.6021 12.0424C61.3646 11.96 61.1994 11.9084 61.1064 11.9084C60.9722 11.9084 60.8689 11.9703 60.7967 12.0631C60.745 12.1559 60.7244 12.2693 60.7657 12.393C60.7967 12.5167 60.8793 12.6095 61.0032 12.692C61.1374 12.7745 61.2923 12.8157 61.4678 12.8054C61.6021 12.8054 61.7053 12.7539 61.7879 12.6817C61.8499 12.6404 61.9221 12.527 62.0254 12.3621L62.1183 12.2177H62.1287Z" fill="#231815"/>
<path d="M66.3503 11.8015L63.7451 15.1335L64.4451 15.6792L67.0503 12.3472L66.3503 11.8015Z" fill="#231815"/>
<path d="M72.7538 24.1675C72.7538 24.4459 72.8054 24.714 72.888 24.9924L72.1962 25.0542C72.1446 24.9202 72.1136 24.7758 72.0826 24.6315C72.0826 24.6006 72.062 24.3634 72.031 23.9098C71.7625 23.7242 71.5251 23.4871 71.3185 23.1777C70.9159 22.5901 70.7506 22.023 70.8436 21.4765C70.9365 20.9301 71.2566 20.4558 71.8348 20.064C72.4027 19.6722 72.9706 19.5279 73.5179 19.6413C74.0651 19.7547 74.5401 20.095 74.9325 20.6723C75.3249 21.2394 75.4694 21.7962 75.3868 22.3426C75.3042 22.8891 74.9738 23.3633 74.4059 23.7551C74.1064 23.9613 73.807 24.0954 73.5076 24.1675C73.2804 24.2191 73.0429 24.2191 72.7745 24.1778M72.7228 23.3015C72.8984 23.3221 73.0739 23.3015 73.2701 23.2602C73.4559 23.1984 73.6521 23.1056 73.8483 22.9715C74.251 22.6932 74.4885 22.3838 74.5608 22.0539C74.6227 21.724 74.5608 21.3941 74.3439 21.0847C74.1271 20.7754 73.8483 20.5898 73.5076 20.5383C73.1772 20.4764 72.8054 20.5898 72.3924 20.8682C71.9794 21.1466 71.7419 21.4559 71.6696 21.7962C71.5973 22.1364 71.6696 22.4457 71.8658 22.7447C71.9381 22.8581 72.031 22.9509 72.1343 23.0231C72.1239 22.7963 72.0826 22.5901 72.0207 22.3942L72.5783 22.3323C72.6712 22.6416 72.7228 22.9715 72.7228 23.3118" fill="#231815"/>
<path d="M74.4679 28.6112L74.881 28.4153C74.6848 28.3741 74.4886 28.2813 74.3234 28.1473C74.1479 28.0132 74.0136 27.838 73.9207 27.6318C73.8278 27.4256 73.7761 27.2297 73.7865 27.0235C73.7865 26.8172 73.8484 26.6523 73.962 26.5079C74.0756 26.3636 74.2614 26.2296 74.5196 26.1058L76.2852 25.281L76.657 26.0852L75.3766 26.6832C74.9842 26.8688 74.7571 26.9925 74.6848 27.0647C74.6125 27.1369 74.5712 27.2193 74.5505 27.3225C74.5402 27.4256 74.5506 27.539 74.6125 27.6627C74.6848 27.7967 74.7674 27.9101 74.8913 27.9823C75.0152 28.0545 75.1288 28.0957 75.2527 28.0854C75.3766 28.0854 75.6347 27.9823 76.0374 27.7967L77.2042 27.24L77.5863 28.0442L74.819 29.3433L74.4679 28.5906V28.6112Z" fill="#231815"/>
<path d="M77.7822 31.2815L77.6686 30.4773C77.9784 30.4773 78.2365 30.5598 78.4327 30.7247C78.6392 30.9 78.8044 31.1887 78.9283 31.6011C79.0419 31.9826 79.0935 32.2713 79.0626 32.4878C79.0419 32.694 78.98 32.859 78.8664 32.9724C78.7631 33.0858 78.5463 33.1992 78.2055 33.3023L77.2969 33.5704C77.0388 33.6529 76.8529 33.7251 76.7393 33.7869C76.6257 33.8488 76.5122 33.9416 76.3986 34.055L76.1301 33.2095C76.1301 33.2095 76.2437 33.1271 76.3263 33.0652C76.3676 33.0343 76.3986 33.0239 76.4089 33.0033C76.2334 32.9002 76.0888 32.7765 75.9752 32.6322C75.8616 32.4878 75.779 32.3228 75.7171 32.1373C75.6138 31.8073 75.6138 31.529 75.7171 31.2815C75.8203 31.0444 76.0062 30.8897 76.254 30.8072C76.4192 30.7557 76.5844 30.7557 76.7393 30.8072C76.8942 30.8588 77.0388 30.9413 77.1523 31.0856C77.2659 31.2196 77.4002 31.4258 77.5447 31.7042C77.7306 32.0857 77.8855 32.3332 77.9887 32.4775L78.0713 32.4569C78.2159 32.4053 78.3088 32.3435 78.3501 32.2404C78.3914 32.1373 78.3708 31.9826 78.2985 31.7558C78.2469 31.6011 78.1952 31.498 78.1126 31.4258C78.03 31.364 77.9164 31.3227 77.7615 31.3124M77.4828 32.6425C77.4105 32.5497 77.3279 32.3847 77.204 32.1682C77.0904 31.9414 76.9871 31.8073 76.9252 31.7455C76.8219 31.663 76.7083 31.6321 76.5948 31.663C76.4812 31.6939 76.3986 31.7661 76.3469 31.8795C76.2953 31.9929 76.285 32.1166 76.3263 32.261C76.3779 32.4156 76.4709 32.5394 76.6051 32.6528C76.7083 32.7353 76.8219 32.7765 76.9355 32.7765C77.0078 32.7765 77.142 32.7559 77.3279 32.694L77.4828 32.6425Z" fill="#231815"/>
<path d="M80.9429 35.0946L76.7842 35.8853L76.9503 36.7563L81.109 35.9656L80.9429 35.0946Z" fill="#231815"/>
<path d="M77.2666 38.8493L80.3126 38.54L80.4056 39.4164L77.3595 39.7257L77.2666 38.839V38.8493ZM80.7257 38.4884L81.4691 38.4163L81.562 39.3029L80.8186 39.3751L80.7257 38.4884Z" fill="#231815"/>
<path d="M80.5604 43.3653H79.9202V42.7673H78.6709C78.4127 42.7879 78.2682 42.7879 78.2269 42.7982C78.1856 42.8085 78.1546 42.8395 78.1236 42.8807C78.0926 42.922 78.0823 42.9735 78.0823 43.0354C78.0823 43.1179 78.1133 43.2313 78.1649 43.3859L77.535 43.4581C77.4524 43.2519 77.4111 43.0251 77.4111 42.7673C77.4111 42.6127 77.4318 42.4683 77.4731 42.3446C77.5247 42.2106 77.5867 42.1178 77.6589 42.0559C77.7415 41.994 77.8448 41.9528 77.979 41.9322C78.072 41.9115 78.2682 41.9012 78.5573 41.9012H79.8996V41.4785H80.5501V41.8806H81.1593L81.6446 42.757H80.5604V43.3756V43.3653Z" fill="#231815"/>
<path d="M80.5291 45.0973L80.4259 46.0253L78.1749 46.5923L80.2607 47.6027L80.1677 48.5204L77.3695 47.0357L76.8532 46.7573C76.688 46.6645 76.5538 46.5717 76.4712 46.4995C76.3783 46.4171 76.3163 46.3243 76.2647 46.2315C76.2234 46.1387 76.1821 46.015 76.1717 45.8809C76.1511 45.7469 76.1511 45.5922 76.1717 45.4273C76.1924 45.2623 76.2234 45.0973 76.2647 44.9324H76.9049C76.8636 45.0561 76.8326 45.1798 76.8223 45.2932C76.8016 45.4891 76.8429 45.6541 76.9462 45.7572C77.0494 45.8706 77.1837 45.9531 77.3489 46.0253L80.5395 45.0973H80.5291Z" fill="#231815"/>
<path d="M79.5788 15.084V11.0732H81.3548C81.7162 11.0732 81.9847 11.1042 82.1705 11.1867C82.3564 11.2588 82.5113 11.3826 82.6145 11.5681C82.7281 11.7537 82.7797 11.9496 82.7797 12.1764C82.7797 12.4651 82.6868 12.7023 82.501 12.8982C82.3151 13.0941 82.0363 13.2178 81.6439 13.2693C81.7885 13.3312 81.8917 13.4034 81.964 13.4652C82.1189 13.6096 82.2635 13.7849 82.3977 14.0014L83.0895 15.0943H82.4287L81.8918 14.2591C81.7369 14.022 81.613 13.8364 81.5097 13.7024C81.4065 13.5787 81.3238 13.4859 81.2412 13.4343C81.1586 13.3828 81.076 13.3518 80.9934 13.3312C80.9315 13.3209 80.8385 13.3106 80.694 13.3106H80.0745V15.0943H79.5479L79.5788 15.084ZM80.1054 12.8466H81.2516C81.4891 12.8466 81.6852 12.8157 81.8195 12.7744C81.964 12.7229 82.0673 12.6404 82.1396 12.527C82.2015 12.4136 82.2428 12.3002 82.2428 12.1661C82.2428 11.9702 82.1809 11.8259 82.0363 11.6919C81.9021 11.5681 81.6749 11.5063 81.3858 11.5063H80.1158V12.8363L80.1054 12.8466Z" fill="#009944"/>
<path d="M77.6377 13.094C77.6377 15.0117 79.2072 16.5789 81.1277 16.5789C83.0483 16.5789 84.6178 15.0117 84.6178 13.094C84.6178 11.1763 83.0483 9.60913 81.1277 9.60913C79.2072 9.60913 77.6377 11.1763 77.6377 13.094ZM78.1333 13.094C78.1333 11.4444 79.4756 10.104 81.1277 10.104C82.7798 10.104 84.1221 11.4444 84.1221 13.094C84.1221 14.7437 82.7798 16.084 81.1277 16.084C79.4756 16.084 78.1333 14.7437 78.1333 13.094Z" fill="#009944"/>
<path d="M76.2435 92.1741V93.616H77.6569V92.1741H76.2435ZM75.5985 91.5765H78.3304V94.2231H75.5985V91.5765ZM75.1621 94.8871H78.7383V95.5132H75.1621V94.8871ZM76.0538 95.1717H76.7083C76.5471 95.959 76.3194 96.9455 76.1486 97.5716L75.5036 97.4483C75.6933 96.8412 75.9115 95.8926 76.0538 95.1717ZM76.1297 96.3574H77.894V96.9645H75.9684L76.1297 96.3574ZM77.6284 96.3574H78.2925C78.2925 96.3574 78.283 96.5471 78.2735 96.6515C78.1217 98.634 77.9794 99.4119 77.7138 99.6964C77.5525 99.8672 77.3913 99.9241 77.1352 99.9526C76.9265 99.962 76.5376 99.962 76.1392 99.9431C76.1297 99.7628 76.0538 99.4878 75.94 99.317C76.3478 99.355 76.7178 99.355 76.8696 99.355C77.0119 99.3644 77.1067 99.3455 77.1826 99.2601C77.3723 99.0704 77.5146 98.34 77.6284 96.4712V96.3574ZM81.2046 91.8706H83.4717V92.4587H81.2046V91.8706ZM79.298 93.1038H83.4812V93.6824H79.298V93.1038ZM80.8631 91.2161H81.5461V93.4073H80.8631V91.2161ZM78.9944 93.1038H79.6394V95.5321C79.6394 96.8602 79.5066 98.7384 78.6245 100C78.5106 99.8767 78.245 99.6775 78.0838 99.6111C78.909 98.4064 78.9944 96.7558 78.9944 95.5321V93.1038ZM79.8671 94.6689L82.6749 94.3938L82.7413 94.8871L79.9335 95.1906L79.8671 94.6689ZM80.9011 93.7488H81.5366V95.4468C81.5366 95.646 81.5746 95.6744 81.8402 95.6744C81.954 95.6744 82.5611 95.6744 82.7224 95.6744C82.931 95.6744 82.969 95.608 82.9974 95.0768C83.1302 95.1622 83.3769 95.2476 83.5476 95.2855C83.4907 96.0159 83.3105 96.2056 82.7982 96.2056C82.656 96.2056 81.8971 96.2056 81.7548 96.2056C81.0718 96.2056 80.9011 96.0539 80.9011 95.4468V93.7488ZM83.282 93.1038H83.3864L83.5002 93.0753L83.946 93.1891C83.8322 93.7678 83.6804 94.4508 83.5666 94.8776L83.0164 94.7448C83.1113 94.3464 83.2251 93.7014 83.282 93.1986V93.1038ZM80.4078 96.623H81.0244C80.958 98.2356 80.6829 99.3455 79.5256 99.981C79.4402 99.8198 79.2505 99.5826 79.1082 99.4688C80.1422 98.9376 80.3509 98.0174 80.4078 96.623ZM81.8022 96.6135H82.4188V98.9565C82.4188 99.0229 82.4378 99.0893 82.4852 99.1083C82.5421 99.1368 82.618 99.1557 82.7129 99.1557C82.7888 99.1557 82.9405 99.1557 83.0544 99.1557C83.1397 99.1557 83.2631 99.1368 83.3105 99.1083C83.3674 99.0799 83.4148 99.0135 83.4338 98.9091C83.4623 98.7573 83.4717 98.3874 83.4717 97.9605C83.5951 98.0744 83.8322 98.1977 84.0124 98.2546C84.003 98.7004 83.9555 99.1747 83.9081 99.336C83.8512 99.5162 83.7468 99.6206 83.6045 99.7059C83.4907 99.7628 83.282 99.8008 83.1018 99.8008C82.9785 99.8008 82.6654 99.8008 82.5611 99.8008C82.3524 99.8008 82.1342 99.7628 81.9919 99.649C81.8402 99.5162 81.8022 99.3739 81.8022 98.9376V96.6135Z" fill="#1E1E1E"/>
<path d="M70.8832 99.1843L73.4823 93.1702H70.0674V92.4114H74.3645V93.0564L71.7938 99.1843H70.8832Z" fill="#1E1E1E"/>
<path d="M69.2597 95.7884C69.2597 96.3386 69.2186 96.8287 69.1364 97.2588C69.0605 97.6888 68.9372 98.0556 68.7665 98.3591C68.602 98.6563 68.3839 98.884 68.1119 99.0421C67.84 99.2002 67.5143 99.2793 67.1349 99.2793C66.6543 99.2793 66.2559 99.1401 65.9397 98.8619C65.6298 98.5836 65.399 98.1852 65.2472 97.6667C65.0954 97.1418 65.0195 96.5157 65.0195 95.7884C65.0195 95.0549 65.0891 94.4288 65.2282 93.9102C65.3673 93.3917 65.5918 92.9964 65.9017 92.7245C66.2116 92.4463 66.6226 92.3071 67.1349 92.3071C67.6155 92.3071 68.0108 92.4463 68.3206 92.7245C68.6368 92.9964 68.8708 93.3917 69.0226 93.9102C69.1807 94.4288 69.2597 95.0549 69.2597 95.7884ZM65.8448 95.7884C65.8448 96.4082 65.8859 96.9236 65.9681 97.3346C66.0567 97.7457 66.1958 98.0556 66.3855 98.2643C66.5752 98.4666 66.825 98.5678 67.1349 98.5678C67.4448 98.5678 67.6946 98.4666 67.8843 98.2643C68.074 98.0619 68.2099 97.7552 68.2922 97.3441C68.3807 96.9268 68.425 96.4082 68.425 95.7884C68.425 95.1687 68.3807 94.6565 68.2922 94.2517C68.2099 93.8407 68.074 93.534 67.8843 93.3316C67.6946 93.1229 67.4448 93.0186 67.1349 93.0186C66.825 93.0186 66.5752 93.1229 66.3855 93.3316C66.1958 93.534 66.0567 93.8407 65.9681 94.2517C65.8859 94.6565 65.8448 95.1687 65.8448 95.7884Z" fill="#1E1E1E"/>
<path d="M64.165 95.7884C64.165 96.3386 64.1239 96.8287 64.0417 97.2588C63.9658 97.6888 63.8425 98.0556 63.6717 98.3591C63.5073 98.6563 63.2891 98.884 63.0172 99.0421C62.7453 99.2002 62.4196 99.2793 62.0402 99.2793C61.5595 99.2793 61.1611 99.1401 60.8449 98.8619C60.5351 98.5836 60.3042 98.1852 60.1525 97.6667C60.0007 97.1418 59.9248 96.5157 59.9248 95.7884C59.9248 95.0549 59.9944 94.4288 60.1335 93.9102C60.2726 93.3917 60.4971 92.9964 60.807 92.7245C61.1169 92.4463 61.5279 92.3071 62.0402 92.3071C62.5208 92.3071 62.916 92.4463 63.2259 92.7245C63.5421 92.9964 63.7761 93.3917 63.9278 93.9102C64.0859 94.4288 64.165 95.0549 64.165 95.7884ZM60.7501 95.7884C60.7501 96.4082 60.7912 96.9236 60.8734 97.3346C60.9619 97.7457 61.1011 98.0556 61.2908 98.2643C61.4805 98.4666 61.7303 98.5678 62.0402 98.5678C62.35 98.5678 62.5998 98.4666 62.7895 98.2643C62.9793 98.0619 63.1152 97.7552 63.1974 97.3441C63.286 96.9268 63.3302 96.4082 63.3302 95.7884C63.3302 95.1687 63.286 94.6565 63.1974 94.2517C63.1152 93.8407 62.9793 93.534 62.7895 93.3316C62.5998 93.1229 62.35 93.0186 62.0402 93.0186C61.7303 93.0186 61.4805 93.1229 61.2908 93.3316C61.1011 93.534 60.9619 93.8407 60.8734 94.2517C60.7912 94.6565 60.7501 95.1687 60.7501 95.7884Z" fill="#1E1E1E"/>
<path d="M59.0693 95.7884C59.0693 96.3386 59.0282 96.8287 58.946 97.2588C58.8701 97.6888 58.7468 98.0556 58.576 98.3591C58.4116 98.6563 58.1934 98.884 57.9215 99.0421C57.6496 99.2002 57.3239 99.2793 56.9445 99.2793C56.4638 99.2793 56.0654 99.1401 55.7492 98.8619C55.4394 98.5836 55.2085 98.1852 55.0568 97.6667C54.905 97.1418 54.8291 96.5157 54.8291 95.7884C54.8291 95.0549 54.8987 94.4288 55.0378 93.9102C55.1769 93.3917 55.4014 92.9964 55.7113 92.7245C56.0212 92.4463 56.4322 92.3071 56.9445 92.3071C57.4251 92.3071 57.8203 92.4463 58.1302 92.7245C58.4464 92.9964 58.6804 93.3917 58.8321 93.9102C58.9902 94.4288 59.0693 95.0549 59.0693 95.7884ZM55.6544 95.7884C55.6544 96.4082 55.6955 96.9236 55.7777 97.3346C55.8662 97.7457 56.0054 98.0556 56.1951 98.2643C56.3848 98.4666 56.6346 98.5678 56.9445 98.5678C57.2543 98.5678 57.5041 98.4666 57.6938 98.2643C57.8836 98.0619 58.0195 97.7552 58.1017 97.3441C58.1903 96.9268 58.2345 96.4082 58.2345 95.7884C58.2345 95.1687 58.1903 94.6565 58.1017 94.2517C58.0195 93.8407 57.8836 93.534 57.6938 93.3316C57.5041 93.1229 57.2543 93.0186 56.9445 93.0186C56.6346 93.0186 56.3848 93.1229 56.1951 93.3316C56.0054 93.534 55.8662 93.8407 55.7777 94.2517C55.6955 94.6565 55.6544 95.1687 55.6544 95.7884Z" fill="#1E1E1E"/>
<path d="M52.5046 99.1843H51.6983V94.4508C51.6983 94.2674 51.6983 94.1125 51.6983 93.986C51.7046 93.8596 51.7109 93.7426 51.7172 93.6351C51.7236 93.5212 51.7299 93.4042 51.7362 93.2841C51.6477 93.3853 51.5623 93.4738 51.4801 93.5497C51.3979 93.6192 51.2999 93.7046 51.186 93.8058L50.5125 94.3939L50.0762 93.8343L51.8216 92.4114H52.5046V99.1843Z" fill="#1E1E1E"/>
<path d="M48.8798 95.7884C48.8798 96.3386 48.8387 96.8287 48.7565 97.2588C48.6806 97.6888 48.5573 98.0556 48.3866 98.3591C48.2222 98.6563 48.004 98.884 47.732 99.0421C47.4601 99.2002 47.1344 99.2793 46.755 99.2793C46.2744 99.2793 45.876 99.1401 45.5598 98.8619C45.2499 98.5836 45.0191 98.1852 44.8673 97.6667C44.7155 97.1418 44.6396 96.5157 44.6396 95.7884C44.6396 95.0549 44.7092 94.4288 44.8483 93.9102C44.9875 93.3917 45.212 92.9964 45.5218 92.7245C45.8317 92.4463 46.2428 92.3071 46.755 92.3071C47.2356 92.3071 47.6309 92.4463 47.9407 92.7245C48.2569 92.9964 48.4909 93.3917 48.6427 93.9102C48.8008 94.4288 48.8798 95.0549 48.8798 95.7884ZM45.4649 95.7884C45.4649 96.4082 45.506 96.9236 45.5882 97.3346C45.6768 97.7457 45.8159 98.0556 46.0056 98.2643C46.1953 98.4666 46.4451 98.5678 46.755 98.5678C47.0649 98.5678 47.3147 98.4666 47.5044 98.2643C47.6941 98.0619 47.8301 97.7552 47.9123 97.3441C48.0008 96.9268 48.0451 96.4082 48.0451 95.7884C48.0451 95.1687 48.0008 94.6565 47.9123 94.2517C47.8301 93.8407 47.6941 93.534 47.5044 93.3316C47.3147 93.1229 47.0649 93.0186 46.755 93.0186C46.4451 93.0186 46.1953 93.1229 46.0056 93.3316C45.8159 93.534 45.6768 93.8407 45.5882 94.2517C45.506 94.6565 45.4649 95.1687 45.4649 95.7884Z" fill="#1E1E1E"/>
<path d="M41.3647 92.4114C42.1994 92.4114 42.8065 92.5853 43.186 92.9331C43.5654 93.2809 43.7551 93.771 43.7551 94.4034C43.7551 94.6817 43.7109 94.9504 43.6223 95.2097C43.5401 95.4627 43.401 95.6903 43.2049 95.8927C43.0089 96.0951 42.7465 96.2563 42.4176 96.3765C42.0951 96.4903 41.6967 96.5472 41.2224 96.5472H40.5015V99.1843H39.6572V92.4114H41.3647ZM41.2983 93.1418H40.5015V95.8168H41.1275C41.5196 95.8168 41.8453 95.7725 42.1046 95.684C42.3639 95.5891 42.5567 95.4405 42.6832 95.2382C42.816 95.0358 42.8824 94.7702 42.8824 94.4414C42.8824 94.005 42.7528 93.6793 42.4935 93.4643C42.2405 93.2493 41.8421 93.1418 41.2983 93.1418Z" fill="#1E1E1E"/>
<path d="M31.3472 95.3805H36.7637V94.4224H30.522V93.8248H37.4656V95.9876H31.3472V95.3805ZM30.9868 95.3805H31.6982C31.5275 96.1868 31.2903 97.1733 31.1006 97.7994L30.3987 97.695C30.5979 97.0879 30.8445 96.1299 30.9868 95.3805ZM31.0911 96.8603H37.4846V97.4768H30.9014L31.0911 96.8603ZM37.3044 96.8603H38.0253C38.0253 96.8603 38.0158 97.05 37.9968 97.1543C37.8735 98.4729 37.7407 99.061 37.5036 99.2981C37.3328 99.4594 37.1621 99.5163 36.8965 99.5258C36.6499 99.5448 36.185 99.5448 35.7013 99.5258C35.6823 99.3171 35.6064 99.0515 35.5021 98.8618C35.9574 98.9187 36.4127 98.9187 36.5835 98.9187C36.7447 98.9187 36.8396 98.9092 36.9155 98.8333C37.0862 98.6816 37.2 98.1883 37.3044 96.9551V96.8603ZM33.6903 93.9766H34.3922V99.9432H33.6903V93.9766ZM33.5005 97.05L34.0602 97.3061C33.178 98.378 31.5749 99.3361 30.171 99.7914C30.0667 99.6207 29.8674 99.3645 29.7157 99.2223C31.1101 98.8333 32.7037 97.9796 33.5005 97.05ZM30.854 92.0414H33.9179V92.6201H30.854V92.0414ZM34.5155 92.0414H38.3478V92.6201H34.5155V92.0414ZM31.0532 91.1782L31.7172 91.349C31.3567 92.2786 30.7781 93.2082 30.1995 93.7963C30.0761 93.7015 29.7821 93.5023 29.6113 93.4169C30.2089 92.8572 30.7401 92.0225 31.0532 91.1782ZM34.7906 91.1782L35.4641 91.349C35.1037 92.2976 34.4681 93.1797 33.8231 93.7584C33.6903 93.6351 33.4057 93.4359 33.2255 93.341C33.8989 92.8288 34.4776 92.032 34.7906 91.1782ZM31.3852 92.4873L31.9828 92.2691C32.1915 92.6485 32.4286 93.1703 32.514 93.4928L31.8879 93.7394C31.8121 93.4074 31.6034 92.8857 31.3852 92.4873ZM35.3503 92.4778L35.9479 92.2596C36.2704 92.639 36.6214 93.1608 36.7732 93.5117L36.1566 93.7679C36.0238 93.4074 35.6823 92.8762 35.3503 92.4778Z" fill="#1E1E1E"/>
<path d="M22.0316 93.9672H26.5848V94.6217H22.0316V93.9672ZM20.4854 96.3481H28.6622V97.0216H20.4854V96.3481ZM24.1943 95.6367H24.9437V99.0611C24.9437 99.488 24.8394 99.6967 24.4979 99.8105C24.1659 99.9243 23.6631 99.9338 22.8568 99.9338C22.8094 99.7251 22.6671 99.4216 22.5438 99.2224C23.1888 99.2413 23.8054 99.2413 23.9762 99.2318C24.1469 99.2224 24.1943 99.1844 24.1943 99.0516V95.6367ZM26.3666 93.9672H26.5563L26.7176 93.9292L27.1824 94.2802C26.5563 94.9727 25.6172 95.7126 24.7445 96.1584C24.6591 96.0256 24.4694 95.8454 24.3556 95.7505C25.0955 95.3521 25.9397 94.6407 26.3666 94.1095V93.9672ZM24.1754 91.2068H24.9247V92.734H24.1754V91.2068ZM20.5802 92.2502H28.5389V94.4794H27.8085V92.9237H21.2822V94.4794H20.5802V92.2502Z" fill="#1E1E1E"/>
<path d="M13.191 92.3073V94.1096H16.9853V92.3073H13.191ZM12.4985 91.6243H17.7063V94.7926H12.4985V91.6243ZM11.123 95.7981H14.5V99.8675H13.7886V96.481H11.7965V99.9434H11.123V95.7981ZM15.534 95.7981H19.1007V99.8865H18.3892V96.481H16.217V99.9434H15.534V95.7981ZM11.4266 98.7482H14.0732V99.4312H11.4266V98.7482ZM15.885 98.7482H18.7023V99.4312H15.885V98.7482Z" fill="#1E1E1E"/>
<path d="M2.82315 93.559H8.38188V94.0997H2.82315V93.559ZM6.77876 92.7812L7.11077 92.4397C7.48072 92.601 7.91707 92.8666 8.14473 93.0847L7.80324 93.4642C7.57558 93.2365 7.13923 92.9614 6.77876 92.7812ZM7.40483 94.5361L7.98347 94.6499C7.50918 96.4428 6.56059 97.7708 5.25154 98.615C5.16616 98.5012 4.95748 98.264 4.83416 98.1597C6.12424 97.4103 6.99694 96.1771 7.40483 94.5361ZM2.72829 97.4388C3.45871 97.3155 4.52112 97.1352 5.59303 96.936L5.612 97.4388C4.62547 97.6285 3.61048 97.8372 2.82315 97.9795L2.72829 97.4388ZM3.66739 95.1432V96.1013H4.74879V95.1432H3.66739ZM3.15516 94.6973H5.27051V96.5376H3.15516V94.6973ZM5.63097 92.5441H6.23807C6.36139 95.2286 6.77876 97.7328 7.6989 97.8751C7.8317 97.9036 7.92656 97.5052 7.99296 96.8886C8.10679 97.0024 8.32496 97.1542 8.45777 97.2111C8.33445 98.2546 8.00244 98.634 7.49969 98.4538C6.19064 98.1692 5.80172 95.4752 5.63097 92.5441ZM1.62793 91.6619H9.55813V99.981H8.84669V92.3069H2.30143V99.981H1.62793V91.6619ZM2.04531 98.8901H9.24509V99.5351H2.04531V98.8901Z" fill="#1E1E1E"/>
</g>
<defs>
<clipPath id="clip0_762_7137">
<rect width="85" height="100" fill="white"/>
</clipPath>
</defs>
</svg>
