<svg class="component-family-home-solid-icon" width="24" height="25" viewBox="0 0 24 25" fill="none" xmlns="http://www.w3.org/2000/svg">
<mask id="mask0_76_4498" style="mask-type:alpha" maskUnits="userSpaceOnUse" x="0" y="0" width="24" height="25">
<rect y="0.5" width="24" height="24" fill="#D9D9D9"/>
</mask>
<g mask="url(#mask0_76_4498)">
<path class="component-family-home-solid-icon__path" d="M12 3.5L23 11.75L21.8 13.35L20 12V21.5H4V12L2.2 13.35L1 11.75L12 3.5ZM7.35 12.55C7.35 13.4333 7.825 14.375 8.775 15.375C9.725 16.375 10.8 17.4167 12 18.5C13.2 17.4167 14.275 16.375 15.225 15.375C16.175 14.375 16.65 13.4333 16.65 12.55C16.65 11.8167 16.4 11.2083 15.9 10.725C15.4 10.2417 14.8 10 14.1 10C13.6667 10 13.2708 10.0875 12.9125 10.2625C12.5542 10.4375 12.25 10.6667 12 10.95C11.75 10.6667 11.4375 10.4375 11.0625 10.2625C10.6875 10.0875 10.3 10 9.9 10C9.2 10 8.6 10.2417 8.1 10.725C7.6 11.2083 7.35 11.8167 7.35 12.55Z" fill="black"/>
</g>
</svg>
