<svg width="24" height="25" viewBox="0 0 24 25" fill="none" xmlns="http://www.w3.org/2000/svg">
<mask id="mask0_34_3945" style="mask-type:alpha" maskUnits="userSpaceOnUse" x="0" y="0" width="24" height="25">
<rect y="0.5" width="24" height="24" fill="#D9D9D9"/>
</mask>
<g mask="url(#mask0_34_3945)">
<path d="M6 23L4.4 21.8L7 18.325V13C7 12.4833 7.04583 11.9125 7.1375 11.2875C7.22917 10.6625 7.35 10.1 7.5 9.6L6 10.45V14H4V9.3L9.4 6.225C9.53333 6.14167 9.675 6.08333 9.825 6.05C9.975 6.01667 10.1333 6 10.3 6C10.7 6 11.0667 6.1 11.4 6.3C11.7333 6.5 11.9833 6.775 12.15 7.125L12.925 8.8C13.2583 9.53333 13.7667 10.0833 14.45 10.45C15.1333 10.8167 15.9833 11 17 11V13H16.025L21.5 22.55L20.625 23.05L14.7 12.725C14.0333 12.5083 13.4292 12.1958 12.8875 11.7875C12.3458 11.3792 11.8833 10.8833 11.5 10.3C11.3333 10.7833 11.2042 11.3375 11.1125 11.9625C11.0208 12.5875 10.9917 13.1667 11.025 13.7L13 16.5V23H11V18L9.225 15.45L9 19L6 23ZM11.5 5.5C10.95 5.5 10.4792 5.30417 10.0875 4.9125C9.69583 4.52083 9.5 4.05 9.5 3.5C9.5 2.95 9.69583 2.47917 10.0875 2.0875C10.4792 1.69583 10.95 1.5 11.5 1.5C12.05 1.5 12.5208 1.69583 12.9125 2.0875C13.3042 2.47917 13.5 2.95 13.5 3.5C13.5 4.05 13.3042 4.52083 12.9125 4.9125C12.5208 5.30417 12.05 5.5 11.5 5.5Z" fill="black"/>
</g>
</svg>
