<svg width="24" height="25" viewBox="0 0 24 25" fill="none" xmlns="http://www.w3.org/2000/svg">
<mask id="mask0_92_4890" style="mask-type:alpha" maskUnits="userSpaceOnUse" x="0" y="0" width="24" height="25">
<rect y="0.5" width="24" height="24" fill="#D9D9D9"/>
</mask>
<g mask="url(#mask0_92_4890)">
<path d="M5 20.5C4.45 20.5 3.97917 20.3042 3.5875 19.9125C3.19583 19.5208 3 19.05 3 18.5V4.5C3 3.95 3.19583 3.47917 3.5875 3.0875C3.97917 2.69583 4.45 2.5 5 2.5H19C19.55 2.5 20.0208 2.69583 20.4125 3.0875C20.8042 3.47917 21 3.95 21 4.5V11.575C20.8333 11.5417 20.6708 11.5208 20.5125 11.5125C20.3542 11.5042 20.1833 11.5 20 11.5H14C13.3833 11.5 12.7958 11.5875 12.2375 11.7625C11.6792 11.9375 11.1583 12.1833 10.675 12.5H7V16.5H8.075C8.04167 16.6667 8.02083 16.8292 8.0125 16.9875C8.00417 17.1458 8 17.3167 8 17.5C8 18.0333 8.06667 18.5542 8.2 19.0625C8.33333 19.5708 8.53333 20.05 8.8 20.5H5ZM7 10.5H11V6.5H7V10.5ZM14 21.5C12.9 21.5 11.9583 21.1083 11.175 20.325C10.3917 19.5417 10 18.6 10 17.5C10 16.4 10.3917 15.4583 11.175 14.675C11.9583 13.8917 12.9 13.5 14 13.5H16V15.5H14C13.45 15.5 12.9792 15.6958 12.5875 16.0875C12.1958 16.4792 12 16.95 12 17.5C12 18.05 12.1958 18.5208 12.5875 18.9125C12.9792 19.3042 13.45 19.5 14 19.5H16V21.5H14ZM13 10.5H17V6.5H13V10.5ZM14 18.5V16.5H20V18.5H14ZM18 21.5V19.5H20C20.55 19.5 21.0208 19.3042 21.4125 18.9125C21.8042 18.5208 22 18.05 22 17.5C22 16.95 21.8042 16.4792 21.4125 16.0875C21.0208 15.6958 20.55 15.5 20 15.5H18V13.5H20C21.1 13.5 22.0417 13.8875 22.825 14.6625C23.6083 15.4375 24 16.3833 24 17.5C24 18.6 23.6083 19.5417 22.825 20.325C22.0417 21.1083 21.1 21.5 20 21.5H18Z" fill="#1C1B1F"/>
</g>
</svg>
