<svg width="24" height="25" viewBox="0 0 24 25" fill="none" xmlns="http://www.w3.org/2000/svg">
<mask id="mask0_91_4787" style="mask-type:alpha" maskUnits="userSpaceOnUse" x="0" y="0" width="24" height="25">
<rect y="0.5" width="24" height="24" fill="#D9D9D9"/>
</mask>
<g mask="url(#mask0_91_4787)">
<path d="M4 20.5C3.45 20.5 2.97917 20.3042 2.5875 19.9125C2.19583 19.5208 2 19.05 2 18.5V4.5C2 3.95 2.19583 3.47917 2.5875 3.0875C2.97917 2.69583 3.45 2.5 4 2.5H9C9.55 2.5 10.0208 2.69583 10.4125 3.0875C10.8042 3.47917 11 3.95 11 4.5V9.5H9V7.5H4V15.5H11V18.5C11 19.05 10.8042 19.5208 10.4125 19.9125C10.0208 20.3042 9.55 20.5 9 20.5H4ZM15 22.5C14.45 22.5 13.9792 22.3042 13.5875 21.9125C13.1958 21.5208 13 21.05 13 20.5V15.5H15V17.5H20V9.5H13V6.5C13 5.95 13.1958 5.47917 13.5875 5.0875C13.9792 4.69583 14.45 4.5 15 4.5H20C20.55 4.5 21.0208 4.69583 21.4125 5.0875C21.8042 5.47917 22 5.95 22 6.5V20.5C22 21.05 21.8042 21.5208 21.4125 21.9125C21.0208 22.3042 20.55 22.5 20 22.5H15ZM8 13.5C7.71667 13.5 7.47917 13.4042 7.2875 13.2125C7.09583 13.0208 7 12.7833 7 12.5C7 12.2167 7.09583 11.9792 7.2875 11.7875C7.47917 11.5958 7.71667 11.5 8 11.5C8.28333 11.5 8.52083 11.5958 8.7125 11.7875C8.90417 11.9792 9 12.2167 9 12.5C9 12.7833 8.90417 13.0208 8.7125 13.2125C8.52083 13.4042 8.28333 13.5 8 13.5ZM12 13.5C11.7167 13.5 11.4792 13.4042 11.2875 13.2125C11.0958 13.0208 11 12.7833 11 12.5C11 12.2167 11.0958 11.9792 11.2875 11.7875C11.4792 11.5958 11.7167 11.5 12 11.5C12.2833 11.5 12.5208 11.5958 12.7125 11.7875C12.9042 11.9792 13 12.2167 13 12.5C13 12.7833 12.9042 13.0208 12.7125 13.2125C12.5208 13.4042 12.2833 13.5 12 13.5ZM16 13.5C15.7167 13.5 15.4792 13.4042 15.2875 13.2125C15.0958 13.0208 15 12.7833 15 12.5C15 12.2167 15.0958 11.9792 15.2875 11.7875C15.4792 11.5958 15.7167 11.5 16 11.5C16.2833 11.5 16.5208 11.5958 16.7125 11.7875C16.9042 11.9792 17 12.2167 17 12.5C17 12.7833 16.9042 13.0208 16.7125 13.2125C16.5208 13.4042 16.2833 13.5 16 13.5Z" fill="#1C1B1F"/>
</g>
</svg>
