<svg width="24" height="25" viewBox="0 0 24 25" fill="none" xmlns="http://www.w3.org/2000/svg">
<mask id="mask0_11_3253" style="mask-type:alpha" maskUnits="userSpaceOnUse" x="0" y="0" width="24" height="25">
<rect y="0.5" width="24" height="24" fill="#D9D9D9"/>
</mask>
<g mask="url(#mask0_11_3253)">
<path d="M8.625 21.5C7.05833 21.5 5.72917 20.9542 4.6375 19.8625C3.54583 18.7708 3 17.4417 3 15.875C3 15.125 3.14167 14.4083 3.425 13.725C3.70833 13.0417 4.11667 12.4333 4.65 11.9L11.4 5.15C11.9333 4.61667 12.5417 4.20833 13.225 3.925C13.9083 3.64167 14.625 3.5 15.375 3.5C16.9417 3.5 18.2708 4.04583 19.3625 5.1375C20.4542 6.22917 21 7.55833 21 9.125C21 9.875 20.8583 10.5917 20.575 11.275C20.2917 11.9583 19.8833 12.5667 19.35 13.1L12.6 19.85C12.0667 20.3833 11.4583 20.7917 10.775 21.075C10.0917 21.3583 9.375 21.5 8.625 21.5ZM15.275 14.35L17.95 11.7C18.2833 11.3667 18.5417 10.975 18.725 10.525C18.9083 10.075 19 9.60833 19 9.125C19 8.125 18.6458 7.27083 17.9375 6.5625C17.2292 5.85417 16.375 5.5 15.375 5.5C14.8917 5.5 14.425 5.59167 13.975 5.775C13.525 5.95833 13.1333 6.21667 12.8 6.55L10.15 9.225L15.275 14.35ZM8.625 19.5C9.10833 19.5 9.575 19.4083 10.025 19.225C10.475 19.0417 10.8667 18.7833 11.2 18.45L13.85 15.775L8.725 10.65L6.05 13.3C5.71667 13.6333 5.45833 14.025 5.275 14.475C5.09167 14.925 5 15.3917 5 15.875C5 16.875 5.35417 17.7292 6.0625 18.4375C6.77083 19.1458 7.625 19.5 8.625 19.5Z" fill="#1C1B1F"/>
</g>
</svg>
