<svg width="24" height="25" viewBox="0 0 24 25" fill="none" xmlns="http://www.w3.org/2000/svg">
<mask id="mask0_34_3930" style="mask-type:alpha" maskUnits="userSpaceOnUse" x="0" y="0" width="24" height="25">
<rect y="0.5" width="24" height="24" fill="#D9D9D9"/>
</mask>
<g mask="url(#mask0_34_3930)">
<path d="M18.375 22.575L19.525 21.425L15.075 16.975L13.925 18.125C13.3083 18.7417 13 19.4833 13 20.35C13 21.2167 13.3083 21.9583 13.925 22.575C14.5417 23.1917 15.2833 23.5 16.15 23.5C17.0167 23.5 17.7583 23.1917 18.375 22.575ZM20.925 20.025L22.075 18.875C22.6917 18.2583 23 17.5167 23 16.65C23 15.7833 22.6917 15.0417 22.075 14.425C21.4583 13.8083 20.7167 13.5 19.85 13.5C18.9833 13.5 18.2417 13.8083 17.625 14.425L16.475 15.575L20.925 20.025ZM7 9.5H17V7.5H7V9.5ZM12 4.75C12.2167 4.75 12.3958 4.67917 12.5375 4.5375C12.6792 4.39583 12.75 4.21667 12.75 4C12.75 3.78333 12.6792 3.60417 12.5375 3.4625C12.3958 3.32083 12.2167 3.25 12 3.25C11.7833 3.25 11.6042 3.32083 11.4625 3.4625C11.3208 3.60417 11.25 3.78333 11.25 4C11.25 4.21667 11.3208 4.39583 11.4625 4.5375C11.6042 4.67917 11.7833 4.75 12 4.75ZM11.125 21.5H5C4.45 21.5 3.97917 21.3042 3.5875 20.9125C3.19583 20.5208 3 20.05 3 19.5V5.5C3 4.95 3.19583 4.47917 3.5875 4.0875C3.97917 3.69583 4.45 3.5 5 3.5H9.2C9.41667 2.9 9.77917 2.41667 10.2875 2.05C10.7958 1.68333 11.3667 1.5 12 1.5C12.6333 1.5 13.2042 1.68333 13.7125 2.05C14.2208 2.41667 14.5833 2.9 14.8 3.5H19C19.55 3.5 20.0208 3.69583 20.4125 4.0875C20.8042 4.47917 21 4.95 21 5.5V11.625C20.3 11.4583 19.6042 11.4458 18.9125 11.5875C18.2208 11.7292 17.5833 11.9917 17 12.375V11.5H7V13.5H15.725L13.725 15.5H7V17.5H11.875C11.4917 18.0833 11.2292 18.7208 11.0875 19.4125C10.9458 20.1042 10.9583 20.8 11.125 21.5Z" fill="black"/>
</g>
</svg>
