<svg width="24" height="25" viewBox="0 0 24 25" fill="none" xmlns="http://www.w3.org/2000/svg">
<mask id="mask0_92_4804" style="mask-type:alpha" maskUnits="userSpaceOnUse" x="0" y="0" width="24" height="25">
<rect y="0.5" width="24" height="24" fill="#D9D9D9"/>
</mask>
<g mask="url(#mask0_92_4804)">
<path d="M21 7.5V19.5C21 20.05 20.8042 20.5208 20.4125 20.9125C20.0208 21.3042 19.55 21.5 19 21.5H5C4.45 21.5 3.97917 21.3042 3.5875 20.9125C3.19583 20.5208 3 20.05 3 19.5V5.5C3 4.95 3.19583 4.47917 3.5875 4.0875C3.97917 3.69583 4.45 3.5 5 3.5H17L21 7.5ZM12 18.5C12.8333 18.5 13.5417 18.2083 14.125 17.625C14.7083 17.0417 15 16.3333 15 15.5C15 14.6667 14.7083 13.9583 14.125 13.375C13.5417 12.7917 12.8333 12.5 12 12.5C11.1667 12.5 10.4583 12.7917 9.875 13.375C9.29167 13.9583 9 14.6667 9 15.5C9 16.3333 9.29167 17.0417 9.875 17.625C10.4583 18.2083 11.1667 18.5 12 18.5ZM6 10.5H15V6.5H6V10.5Z" fill="#1C1B1F"/>
</g>
</svg>
