<svg width="24" height="25" viewBox="0 0 24 25" fill="none" xmlns="http://www.w3.org/2000/svg">
<mask id="mask0_76_4781" style="mask-type:alpha" maskUnits="userSpaceOnUse" x="0" y="0" width="24" height="25">
<rect y="0.5" width="24" height="24" fill="#D9D9D9"/>
</mask>
<g mask="url(#mask0_76_4781)">
<path d="M8 8.5H10V5.5H8V8.5ZM8 17.5H10V12.5H8V17.5ZM6 22.5C5.45 22.5 4.97917 22.3042 4.5875 21.9125C4.19583 21.5208 4 21.05 4 20.5V11.5H20V20.5C20 21.05 19.8042 21.5208 19.4125 21.9125C19.0208 22.3042 18.55 22.5 18 22.5H6ZM4 9.5V4.5C4 3.95 4.19583 3.47917 4.5875 3.0875C4.97917 2.69583 5.45 2.5 6 2.5H18C18.55 2.5 19.0208 2.69583 19.4125 3.0875C19.8042 3.47917 20 3.95 20 4.5V9.5H4Z" fill="black"/>
</g>
</svg>
